Praise-Pro.glyphspackage
{
color = 3;
glyphname = space;
layers = (
{
background = {
shapes = (
{
closed = 1;
nodes = (
(0,-230,l),
(200,-230,l),
(200,611,l),
(0,611,l)
);
}
);
};
layerId = "C623C401-2266-4A98-B253-3D45160C29C7";
width = 200;
}
);
note = space;
unicode = 32;
}
{
glyphname = exclam;
layers = (
{
background = {
shapes = (
{
closed = 1;
nodes = (
(195,165,o),
(207,168,o),
(212,175,cs),
(422,486,ls),
(424,489,o),
(425,491,o),
(425,494,cs),
(425,509,o),
(389,519,o),
(351,519,cs),
(312,519,o),
(270,508,o),
(261,484,cs),
(150,182,ls),
(146,171,o),
(164,165,o),
(182,165,cs)
);
},
{
closed = 1;
nodes = (
(148,-8,o),
(191,35,o),
(191,80,cs),
(191,106,o),
(176,124,o),
(151,124,cs),
(112,124,o),
(70,80,o),
(70,35,cs),
(70,9,o),
(86,-8,o),
(110,-8,cs)
);
},
{
closed = 1;
nodes = (
(195,165,o),
(207,168,o),
(212,175,cs),
(422,486,ls),
(424,489,o),
(425,491,o),
(425,494,cs),
(425,509,o),
(389,519,o),
(351,519,cs),
(312,519,o),
(270,508,o),
(261,484,cs),
(150,182,ls),
(146,171,o),
(164,165,o),
(182,165,cs)
);
}
);
};
layerId = "C623C401-2266-4A98-B253-3D45160C29C7";
shapes = (
{
closed = 1;
nodes = (
(168,165,o),
(182,165,cs),
(199,165,o),
(207,169,o),
(217,183,cs),
(408,465,ls),
(418,480,o),
(425,489,o),
(425,494,cs),
(425,507,o),
(388,519,o),
(351,519,cs),
(297,519,o),
(269,507,o),
(261,484,cs),
(220,372,o),
(151,195,o),
(151,180,cs),
(151,169,o)
);
},
{
pos = (-41,0);
ref = period;
}
);
width = 290;
}
);
note = exclam;
unicode = 33;
}
{
glyphname = quotedbl;
layers = (
{
background = {
shapes = (
{
closed = 1;
nodes = (
(285,425,o),
(297,427,o),
(299,430,cs),
(310,448,o),
(373,549,o),
(394,576,cs),
(398,582,o),
(381,585,o),
(361,585,cs),
(341,585,o),
(318,582,o),
(316,574,cs),
(308,546,o),
(269,459,o),
(259,432,cs),
(257,427,o),
(265,425,o),
(275,425,cs)
);
},
{
closed = 1;
nodes = (
(156,425,o),
(168,427,o),
(170,430,cs),
(181,448,o),
(244,549,o),
(265,576,cs),
(269,582,o),
(252,585,o),
(232,585,cs),
(212,585,o),
(189,582,o),
(187,574,cs),
(179,546,o),
(140,459,o),
(130,432,cs),
(128,427,o),
(136,425,o),
(146,425,cs)
);
}
);
};
layerId = "C623C401-2266-4A98-B253-3D45160C29C7";
shapes = (
{
pos = (-22,0);
ref = quotesingle;
},
{
pos = (107,0);
ref = quotesingle;
}
);
width = 218;
}
);
note = quotedbl;
unicode = 34;
}
{
glyphname = numbersign;
layers = (
{
anchors = (
{
name = top;
pos = (276.181,513.962);
}
);
background = {
shapes = (
{
closed = 1;
nodes = (
(334,138,o),
(359,144,o),
(361,148,cs),
(418,286,l),
(522,286,ls),
(528,286,o),
(559,323,o),
(559,339,cs),
(559,343,o),
(557,346,o),
(551,346,cs),
(443,346,l),
(486,449,l),
(578,449,ls),
(584,449,o),
(614,486,o),
(614,502,cs),
(614,506,o),
(612,509,o),
(606,509,cs),
(511,509,l),
(552,609,ls),
(555,615,o),
(544,618,o),
(531,618,cs),
(508,618,o),
(477,611,o),
(474,604,cs),
(435,509,l),
(335,509,l),
(382,622,ls),
(385,628,o),
(375,631,o),
(361,631,cs),
(339,631,o),
(307,624,o),
(304,616,cs),
(260,509,l),
(182,509,ls),
(169,509,o),
(125,449,o),
(142,449,cs),
(235,449,l),
(192,346,l),
(127,346,ls),
(114,346,o),
(69,286,o),
(87,286,cs),
(167,286,l),
(117,165,ls),
(113,155,o),
(126,151,o),
(143,151,cs),
(164,151,o),
(189,157,o),
(191,161,cs),
(243,286,l),
(342,286,l),
(287,152,ls),
(283,142,o),
(296,138,o),
(313,138,cs)
);
},
{
closed = 1;
nodes = (
(310,449,l),
(410,449,l),
(367,346,l),
(268,346,l)
);
}
);
};
layerId = "C623C401-2266-4A98-B253-3D45160C29C7";
shapes = (
{
closed = 1;
nodes = (
(312,450,o),
(500,450,o),
(578,450,cs),
(582,450,o),
(584,451,o),
(586,453,cs),
(594,461,o),
(614,490,o),
(614,502,cs),
(614,507,o),
(611,509,o),
(605,509,cs),
(533,509,o),
(361,509,o),
(189,509,cs),
(175,509,o),
(172,508,o),
(163,499,cs),
(152,487,o),
(139,463,o),
(139,453,cs),
(139,451,o),
(141,450,o),
(144,450,cs)
);
},
{
closed = 1;
nodes = (
(256,286,o),
(444,286,o),
(522,286,cs),
(526,286,o),
(528,287,o),
(530,289,cs),
(538,297,o),
(558,326,o),
(558,338,cs),
(558,343,o),
(555,345,o),
(549,345,cs),
(477,345,o),
(305,345,o),
(133,345,cs),
(119,345,o),
(116,344,o),
(107,335,cs),
(96,323,o),
(83,299,o),
(83,289,cs),
(83,287,o),
(85,286,o),
(88,286,cs)
);
},
{
closed = 1;
nodes = (
(223,239,o),
(315,461,o),
(379,615,cs),
(381,620,o),
(382,622,o),
(382,624,cs),
(382,628,o),
(376,631,o),
(360,631,cs),
(353,631,o),
(332,629,o),
(315,623,cs),
(307,620,o),
(305,618,o),
(302,611,cs),
(237,454,o),
(145,230,o),
(117,164,cs),
(115,159,o),
(114,157,o),
(114,155,cs),
(114,151,o),
(120,148,o),
(136,148,cs),
(143,148,o),
(164,150,o),
(181,156,cs),
(189,159,o),
(191,161,o),
(194,168,cs)
);
},
{
closed = 1;
nodes = (
(399,239,o),
(491,461,o),
(555,615,cs),
(557,620,o),
(558,622,o),
(558,624,cs),
(558,628,o),
(552,631,o),
(536,631,cs),
(529,631,o),
(508,629,o),
(491,623,cs),
(483,620,o),
(481,618,o),
(478,611,cs),
(413,454,o),
(321,230,o),
(293,164,cs),
(291,159,o),
(290,157,o),
(290,155,cs),
(290,151,o),
(296,148,o),
(312,148,cs),
(319,148,o),
(340,150,o),
(357,156,cs),
(365,159,o),
(367,161,o),
(370,168,cs)
);
}
);
width = 697;
}
);
note = numbersign;
unicode = 35;
}
{
glyphname = dollar;
layers = (
{
anchors = (
{
name = bottom;
pos = (-468,-275);
},
{
name = top;
pos = (-267,337);
}
);
background = {
shapes = (
{
closed = 1;
nodes = (
(303,2,o),
(376,52,o),
(376,131,cs),
(376,135,o),
(375,139,o),
(375,144,cs),
(364,246,o),
(307,309,o),
(275,402,cs),
(269,417,o),
(266,436,o),
(266,454,cs),
(266,485,o),
(276,512,o),
(305,512,cs),
(328,512,o),
(340,484,o),
(343,457,cs),
(348,411,o),
(359,380,o),
(391,380,cs),
(417,380,o),
(427,405,o),
(427,438,cs),
(427,444,o),
(427,450,o),
(426,457,cs),
(422,499,o),
(396,528,o),
(362,543,c),
(316,557,l),
(215,557,o),
(143,491,o),
(148,397,cs),
(155,279,o),
(243,224,o),
(262,118,cs),
(263,112,o),
(264,106,o),
(264,101,cs),
(264,71,o),
(245,56,o),
(223,56,cs),
(208,56,o),
(191,64,o),
(176,79,cs),
(137,118,o),
(126,173,o),
(126,214,cs),
(126,229,o),
(128,242,o),
(130,252,c),
(124,253,o),
(117,253,o),
(112,253,cs),
(57,253,o),
(39,212,o),
(39,173,cs),
(39,110,o),
(86,45,o),
(150,18,cs),
(158,14,o),
(206,6,o),
(214,4,cs),
(222,2,o),
(229,2,o),
(237,2,cs)
);
},
{
closed = 1;
nodes = (
(139,-108,l),
(379,633,l),
(348,633,l),
(108,-108,l)
);
}
);
};
layerId = "C623C401-2266-4A98-B253-3D45160C29C7";
shapes = (
{
closed = 1;
nodes = (
(346,-3,o),
(449,90,o),
(449,194,cs),
(449,234,o),
(427,275,o),
(377,305,cs),
(312,344,o),
(235,376,o),
(235,443,cs),
(235,491,o),
(280,535,o),
(355,535,cs),
(407,535,o),
(435,508,o),
(435,465,cs),
(435,443,o),
(427,416,o),
(407,391,c),
(461,391,o),
(495,435,o),
(495,469,cs),
(495,523,o),
(414,560,o),
(338,560,cs),
(235,560,o),
(138,507,o),
(138,398,cs),
(138,266,o),
(342,250,o),
(342,146,cs),
(342,85,o),
(291,25,o),
(218,25,cs),
(157,25,o),
(117,71,o),
(117,141,cs),
(118,179,o),
(126,214,o),
(161,253,c),
(99,253,o),
(40,205,o),
(40,137,cs),
(40,53,o),
(109,-3,o),
(212,-3,cs)
);
},
{
closed = 1;
nodes = (
(187,29,o),
(373,580,o),
(372,607,cs),
(372,619,o),
(368,626,o),
(361,626,cs),
(354,626,o),
(350,619,o),
(346,609,cs),
(311,520,o),
(202,129,o),
(106,-53,cs),
(102,-60,o),
(98,-67,o),
(98,-71,cs),
(98,-77,o),
(102,-80,o),
(108,-80,cs),
(117,-80,o),
(131,-70,o),
(138,-57,cs)
);
},
{
closed = 1;
nodes = (
(246,29,o),
(429,579,o),
(428,606,cs),
(428,618,o),
(424,625,o),
(417,625,cs),
(410,625,o),
(406,618,o),
(402,608,cs),
(367,519,o),
(261,137,o),
(165,-53,cs),
(162,-60,o),
(157,-67,o),
(157,-71,cs),
(157,-77,o),
(161,-80,o),
(167,-80,cs),
(176,-80,o),
(190,-70,o),
(197,-57,cs)
);
}
);
width = 495;
}
);
metricLeft = S;
note = dollar;
unicode = 36;
}
{
color = 4;
glyphname = percent;
layers = (
{
background = {
shapes = (
{
closed = 1;
nodes = (
(160,-11,o),
(196,1,o),
(209,17,cs),
(327,161,o),
(472,352,o),
(587,517,cs),
(599,534,o),
(608,548,o),
(608,558,cs),
(608,566,o),
(602,570,o),
(587,570,cs),
(571,570,o),
(540,571,o),
(529,568,c),
(498,541,o),
(456,525,o),
(415,525,cs),
(400,525,o),
(385,527,o),
(371,531,c),
(358,556,o),
(325,560,o),
(292,560,cs),
(200,560,o),
(136,461,o),
(136,383,cs),
(136,324,o),
(172,309,o),
(234,309,cs),
(318,309,o),
(376,435,o),
(377,500,c),
(391,494,o),
(406,492,o),
(420,492,cs),
(445,492,o),
(469,499,o),
(490,512,c),
(396,379,o),
(181,88,o),
(124,9,cs),
(121,5,o),
(119,1,o),
(119,-2,cs),
(119,-8,o),
(127,-11,o),
(138,-11,cs)
);
},
{
closed = 1;
nodes = (
(569,5,o),
(627,133,o),
(627,197,cs),
(627,249,o),
(585,256,o),
(543,256,cs),
(450,256,o),
(386,157,o),
(386,79,cs),
(386,20,o),
(422,5,o),
(484,5,cs)
);
},
{
closed = 1;
nodes = (
(450,20,o),
(485,118,o),
(493,140,cs),
(512,188,o),
(538,243,o),
(551,243,cs),
(556,243,o),
(558,238,o),
(558,231,cs),
(558,204,o),
(532,142,o),
(527,131,cs),
(507,80,o),
(479,20,o),
(468,20,cs)
);
},
{
closed = 1;
nodes = (
(200,324,o),
(235,422,o),
(243,444,cs),
(262,492,o),
(288,548,o),
(301,547,cs),
(306,547,o),
(308,542,o),
(308,535,cs),
(308,508,o),
(282,446,o),
(277,435,cs),
(257,384,o),
(229,324,o),
(218,324,cs)
);
}
);
};
layerId = "C623C401-2266-4A98-B253-3D45160C29C7";
shapes = (
{
closed = 1;
nodes = (
(160,-11,o),
(196,1,o),
(209,17,cs),
(327,161,o),
(472,352,o),
(587,517,cs),
(599,534,o),
(608,548,o),
(608,558,cs),
(608,566,o),
(602,570,o),
(578,570,cs),
(559,570,o),
(542,570,o),
(526,566,c),
(495,539,o),
(459,522,o),
(418,522,cs),
(399,522,o),
(375,527,o),
(365,539,cs),
(351,556,o),
(325,560,o),
(292,560,cs),
(200,560,o),
(136,461,o),
(136,383,cs),
(136,324,o),
(172,309,o),
(234,309,cs),
(274,309,o),
(311,338,o),
(338,382,cs),
(359,416,o),
(376,460,o),
(377,499,c),
(391,494,o),
(406,493,o),
(420,493,cs),
(445,493,o),
(469,499,o),
(490,512,c),
(396,379,o),
(181,88,o),
(124,9,cs),
(121,5,o),
(119,1,o),
(119,-2,cs),
(119,-8,o),
(127,-11,o),
(138,-11,cs)
);
},
{
closed = 1;
nodes = (
(518,5,o),
(555,37,o),
(579,76,cs),
(603,114,o),
(619,164,o),
(619,197,cs),
(619,238,o),
(594,256,o),
(535,256,cs),
(492,256,o),
(456,235,o),
(428,205,cs),
(397,169,o),
(378,121,o),
(378,79,cs),
(378,28,o),
(406,6,o),
(466,5,cs),
(471,5,o),
(474,5,o),
(476,5,cs)
);
},
{
closed = 1;
nodes = (
(214,324,o),
(213,328,o),
(213,334,cs),
(213,353,o),
(229,409,o),
(249,460,cs),
(266,503,o),
(289,547,o),
(301,547,cs),
(306,547,o),
(308,542,o),
(308,535,cs),
(308,517,o),
(295,480,o),
(281,444,cs),
(258,385,o),
(228,324,o),
(218,324,cs)
);
},
{
closed = 1;
nodes = (
(456,20,o),
(455,24,o),
(455,30,cs),
(455,49,o),
(471,105,o),
(491,156,cs),
(508,199,o),
(531,243,o),
(543,243,cs),
(548,243,o),
(550,238,o),
(550,231,cs),
(550,213,o),
(537,176,o),
(523,140,cs),
(500,81,o),
(470,20,o),
(460,20,cs)
);
}
);
width = 676;
}
);
note = percent;
unicode = 37;
}
{
color = 4;
glyphname = ampersand;
layers = (
{
anchors = (
{
name = bottom;
pos = (146,5);
},
{
name = ogonek;
pos = (349,71);
}
);
background = {
shapes = (
{
closed = 1;
nodes = (
(192,-3,o),
(244,4,o),
(300,44,cs),
(354,83,o),
(409,150,o),
(420,202,c),
(471,199,o),
(519,213,o),
(546,270,cs),
(549,275,o),
(549,280,o),
(543,275,cs),
(538,271,o),
(529,270,o),
(517,270,cs),
(503,270,o),
(486,272,o),
(469,275,cs),
(445,279,o),
(385,299,o),
(367,299,cs),
(340,299,o),
(324,274,o),
(304,214,c),
(309,215,o),
(317,216,o),
(324,216,cs),
(331,216,l),
(344,213,o),
(356,210,o),
(369,208,c),
(325,132,o),
(253,38,o),
(188,38,cs),
(160,38,o),
(148,55,o),
(148,81,cs),
(148,155,o),
(248,304,o),
(354,341,cs),
(363,344,o),
(367,349,o),
(367,353,cs),
(367,368,o),
(330,384,o),
(303,382,c),
(271,393,o),
(260,409,o),
(260,426,cs),
(260,460,o),
(306,498,o),
(331,511,cs),
(353,522,o),
(381,533,o),
(400,533,cs),
(411,533,o),
(419,529,o),
(419,518,cs),
(419,508,o),
(413,493,o),
(399,472,cs),
(394,465,o),
(392,457,o),
(392,450,cs),
(392,438,o),
(399,429,o),
(409,429,cs),
(419,429,o),
(433,438,o),
(446,463,cs),
(458,485,o),
(464,506,o),
(464,524,cs),
(464,574,o),
(419,604,o),
(340,604,cs),
(267,603,o),
(184,576,o),
(156,523,cs),
(147,507,o),
(143,492,o),
(143,478,cs),
(143,419,o),
(210,379,o),
(270,374,c),
(107,324,o),
(30,206,o),
(30,113,cs),
(30,48,o),
(71,-3,o),
(148,-3,cs)
);
}
);
};
layerId = "C623C401-2266-4A98-B253-3D45160C29C7";
shapes = (
{
closed = 1;
nodes = (
(238,604,o),
(143,552,o),
(143,480,cs),
(143,426,o),
(197,384,o),
(262,375,c),
(262,372,l),
(108,320,o),
(30,205,o),
(30,115,cs),
(30,34,o),
(79,-15,o),
(151,-15,cs),
(284,-15,o),
(421,142,o),
(421,214,cs),
(421,228,o),
(406,237,o),
(382,237,c),
(375,207,o),
(272,29,o),
(188,29,cs),
(160,29,o),
(148,55,o),
(148,81,cs),
(147,153,o),
(238,294,o),
(352,340,cs),
(361,344,o),
(367,347,o),
(367,354,cs),
(367,364,o),
(343,382,o),
(309,382,cs),
(284,382,o),
(260,404,o),
(260,426,cs),
(260,475,o),
(345,534,o),
(397,534,cs),
(411,534,o),
(419,528,o),
(419,518,cs),
(419,508,o),
(414,495,o),
(399,472,cs),
(393,463,o),
(392,457,o),
(392,450,cs),
(392,438,o),
(399,429,o),
(409,429,cs),
(438,429,o),
(464,495,o),
(464,524,cs),
(464,574,o),
(421,604,o),
(336,604,cs)
);
},
{
closed = 1;
nodes = (
(467,202,o),
(490,210,o),
(507,222,cs),
(532,240,o),
(547,267,o),
(547,274,cs),
(547,276,o),
(546,277,o),
(545,277,cs),
(544,277,o),
(542,275,o),
(537,273,cs),
(532,271,o),
(525,270,o),
(517,270,cs),
(458,270,o),
(395,298,o),
(367,299,cs),
(340,300,o),
(325,276,o),
(305,216,c),
(341,216,o),
(383,202,o),
(443,202,cs)
);
}
);
width = 491;
}
);
metricRight = "-57PV";
note = ampersand;
unicode = 38;
}
{
color = 4;
glyphname = quotesingle;
layers = (
{
background = {
shapes = (
{
closed = 1;
nodes = (
(178,425,o),
(190,427,o),
(192,430,cs),
(203,448,o),
(266,549,o),
(287,576,cs),
(291,582,o),
(274,585,o),
(254,585,cs),
(234,585,o),
(212,582,o),
(209,574,cs),
(197,546,o),
(162,459,o),
(152,432,cs),
(150,427,o),
(158,425,o),
(168,425,cs)
);
}
);
};
layerId = "C623C401-2266-4A98-B253-3D45160C29C7";
shapes = (
{
closed = 1;
nodes = (
(175,425,o),
(184,426,o),
(189,428,cs),
(192,429,o),
(193,431,o),
(197,437,cs),
(213,463,o),
(262,540,o),
(274,558,cs),
(285,574,o),
(287,576,o),
(287,578,cs),
(287,583,o),
(271,585,o),
(254,585,cs),
(231,585,o),
(213,583,o),
(208,572,cs),
(199,550,o),
(165,467,o),
(155,440,cs),
(153,435,o),
(152,432,o),
(152,430,cs),
(152,427,o),
(158,425,o),
(168,425,cs)
);
}
);
width = 218;
}
);
note = quotesingle;
unicode = 39;
}
{
glyphname = parenleft;
layers = (
{
background = {
shapes = (
{
closed = 1;
nodes = (
(184,-83,o),
(201,-80,o),
(220,-71,cs),
(232,-65,o),
(243,-59,o),
(255,-50,cs),
(261,-46,o),
(264,-40,o),
(264,-35,cs),
(264,-29,o),
(259,-23,o),
(250,-23,cs),
(247,-23,o),
(244,-24,o),
(240,-25,cs),
(230,-29,o),
(222,-31,o),
(214,-31,cs),
(179,-31,o),
(163,6,o),
(163,62,cs),
(163,117,o),
(180,191,o),
(209,264,cs),
(235,329,o),
(350,558,o),
(452,558,cs),
(457,558,o),
(462,557,o),
(467,556,cs),
(471,555,o),
(474,554,o),
(477,554,cs),
(488,554,o),
(493,561,o),
(493,568,cs),
(493,577,o),
(487,587,o),
(476,592,cs),
(455,602,o),
(435,606,o),
(415,606,cs),
(215,606,o),
(48,284,o),
(48,81,cs),
(48,18,o),
(64,-34,o),
(101,-60,cs),
(120,-74,o),
(143,-83,o),
(168,-83,cs)
);
}
);
};
guides = (
{
pos = (131,-30);
}
);
layerId = "C623C401-2266-4A98-B253-3D45160C29C7";
shapes = (
{
closed = 1;
nodes = (
(218,-83,o),
(255,-57,o),
(255,-41,cs),
(255,-34,o),
(251,-30,o),
(243,-30,cs),
(236,-30,o),
(228,-34,o),
(214,-34,cs),
(184,-34,o),
(163,-3,o),
(163,62,cs),
(163,160,o),
(206,279,o),
(277,397,cs),
(331,486,o),
(397,558,o),
(452,558,cs),
(463,558,o),
(469,554,o),
(477,554,cs),
(487,554,o),
(493,560,o),
(493,568,cs),
(493,587,o),
(454,606,o),
(415,606,cs),
(334,606,o),
(258,553,o),
(197,476,cs),
(107,364,o),
(48,212,o),
(48,68,cs),
(48,-27,o),
(98,-83,o),
(175,-83,cs)
);
}
);
width = 333;
}
);
note = parenleft;
unicode = 40;
}
{
glyphname = parenright;
layers = (
{
background = {
shapes = (
{
closed = 1;
nodes = (
(257,-82,o),
(424,240,o),
(424,443,cs),
(424,506,o),
(408,558,o),
(371,584,cs),
(352,598,o),
(329,607,o),
(304,607,cs),
(288,607,o),
(271,604,o),
(252,595,cs),
(240,589,o),
(229,583,o),
(217,574,cs),
(211,570,o),
(208,564,o),
(208,559,cs),
(208,553,o),
(213,547,o),
(222,547,cs),
(225,547,o),
(228,548,o),
(232,549,cs),
(242,553,o),
(250,555,o),
(258,555,cs),
(293,555,o),
(309,518,o),
(309,462,cs),
(309,407,o),
(292,333,o),
(263,260,cs),
(237,195,o),
(122,-34,o),
(20,-34,cs),
(15,-34,o),
(10,-33,o),
(5,-32,cs),
(1,-31,o),
(-2,-30,o),
(-5,-30,cs),
(-16,-30,o),
(-21,-37,o),
(-21,-44,cs),
(-21,-53,o),
(-15,-63,o),
(-4,-68,cs),
(17,-78,o),
(37,-82,o),
(57,-82,cs)
);
}
);
};
guides = (
{
pos = (126,-30);
}
);
layerId = "C623C401-2266-4A98-B253-3D45160C29C7";
shapes = (
{
closed = 1;
nodes = (
(152,-82,o),
(240,-9,o),
(306,89,cs),
(378,198,o),
(424,337,o),
(424,443,cs),
(424,539,o),
(387,607,o),
(291,607,cs),
(247,607,o),
(208,586,o),
(208,566,cs),
(208,559,o),
(213,554,o),
(222,554,cs),
(231,554,o),
(247,558,o),
(258,558,cs),
(293,558,o),
(309,518,o),
(309,462,cs),
(309,379,o),
(270,253,o),
(203,139,cs),
(146,42,o),
(78,-34,o),
(20,-34,cs),
(8,-34,o),
(2,-30,o),
(-8,-30,cs),
(-16,-30,o),
(-21,-36,o),
(-21,-43,cs),
(-21,-66,o),
(10,-82,o),
(57,-82,cs)
);
}
);
width = 404;
}
);
note = parenright;
unicode = 41;
}
{
color = 4;
glyphname = asterisk;
layers = (
{
background = {
shapes = (
{
closed = 1;
nodes = (
(368,245,o),
(417,275,o),
(410,283,cs),
(322,393,l),
(437,412,ls),
(447,414,o),
(463,459,o),
(463,479,cs),
(463,486,o),
(461,489,o),
(457,488,cs),
(324,446,l),
(390,559,ls),
(394,566,o),
(376,569,o),
(356,569,cs),
(332,569,o),
(305,565,o),
(303,558,cs),
(269,443,l),
(167,507,ls),
(156,514,o),
(127,437,o),
(136,434,cs),
(242,395,l),
(124,271,ls),
(115,262,o),
(157,253,o),
(183,253,cs),
(193,253,o),
(200,254,o),
(202,257,cs),
(276,363,l),
(339,248,ls),
(340,246,o),
(343,245,o),
(347,245,cs)
);
}
);
};
layerId = "C623C401-2266-4A98-B253-3D45160C29C7";
shapes = (
{
closed = 1;
nodes = (
(361,245,o),
(387,258,o),
(396,265,cs),
(404,271,o),
(411,278,o),
(411,281,cs),
(411,283,o),
(409,285,o),
(407,288,cs),
(380,322,o),
(349,359,o),
(322,393,c),
(431,411,ls),
(439,412,o),
(440,413,o),
(445,420,cs),
(455,436,o),
(463,465,o),
(463,480,cs),
(463,485,o),
(462,488,o),
(458,488,cs),
(456,488,o),
(452,487,o),
(443,484,cs),
(412,474,o),
(357,454,o),
(322,443,c),
(342,477,o),
(369,522,o),
(381,543,cs),
(384,548,o),
(391,559,o),
(391,561,cs),
(391,566,o),
(375,569,o),
(355,569,cs),
(339,569,o),
(324,567,o),
(313,564,cs),
(306,562,o),
(303,560,o),
(302,555,cs),
(270,442,l),
(180,499,ls),
(172,504,o),
(168,506,o),
(165,506,cs),
(162,506,o),
(160,504,o),
(157,500,cs),
(148,487,o),
(132,451,o),
(132,439,cs),
(132,436,o),
(133,435,o),
(138,433,cs),
(143,431,o),
(146,430,o),
(160,425,cs),
(242,395,l),
(204,355,o),
(168,317,o),
(130,277,cs),
(128,275,o),
(123,271,o),
(123,268,cs),
(123,262,o),
(154,253,o),
(183,253,cs),
(197,253,o),
(201,255,o),
(207,264,cs),
(230,299,o),
(254,331,o),
(276,363,c),
(337,251,ls),
(339,247,o),
(342,245,o),
(347,245,cs)
);
}
);
width = 449;
}
);
note = asterisk;
unicode = 42;
}
{
glyphname = plus;
layers = (
{
background = {
shapes = (
{
closed = 1;
nodes = (
(207,70,o),
(234,75,o),
(236,80,cs),
(301,205,l),
(440,205,ls),
(448,205,o),
(478,247,o),
(478,267,cs),
(478,273,o),
(475,277,o),
(468,277,cs),
(337,277,l),
(397,396,ls),
(400,403,o),
(386,406,o),
(368,406,cs),
(342,406,o),
(307,400,o),
(302,391,cs),
(245,277,l),
(127,277,ls),
(112,277,o),
(65,205,o),
(85,205,cs),
(209,205,l),
(149,88,ls),
(142,75,o),
(161,70,o),
(183,70,cs)
);
}
);
};
layerId = "C623C401-2266-4A98-B253-3D45160C29C7";
shapes = (
{
closed = 1;
nodes = (
(210,70,o),
(216,73,o),
(224,80,cs),
(227,83,o),
(229,88,o),
(235,100,cs),
(320,270,o),
(294,218,o),
(372,370,cs),
(381,388,o),
(385,394,o),
(385,398,cs),
(385,402,o),
(380,406,o),
(359,406,cs),
(344,406,o),
(330,403,o),
(321,397,cs),
(313,392,o),
(308,385,o),
(301,371,cs),
(168,108,ls),
(162,96,o),
(158,87,o),
(158,82,cs),
(158,76,o),
(170,70,o),
(190,70,cs)
);
},
{
closed = 1;
nodes = (
(164,215,o),
(353,215,o),
(412,215,cs),
(416,215,o),
(417,217,o),
(420,219,cs),
(427,225,o),
(446,256,o),
(446,264,cs),
(446,269,o),
(443,270,o),
(438,270,cs),
(383,270,o),
(199,270,o),
(144,270,cs),
(132,270,o),
(130,269,o),
(124,263,cs),
(115,253,o),
(99,227,o),
(99,219,cs),
(99,217,o),
(102,215,o),
(103,215,cs)
);
}
);
width = 528;
}
);
note = plus;
unicode = 43;
}
{
color = 4;
glyphname = hyphen;
layers = (
{
anchors = (
{
name = top;
pos = (291.138,305.558);
}
);
background = {
shapes = (
{
closed = 1;
nodes = (
(380,240,ls),
(386,240,o),
(411,275,o),
(411,291,cs),
(411,297,o),
(408,300,o),
(402,300,cs),
(190,300,ls),
(177,300,o),
(139,240,o),
(156,240,cs)
);
}
);
};
layerId = "C623C401-2266-4A98-B253-3D45160C29C7";
shapes = (
{
closed = 1;
nodes = (
(237,240,o),
(297,240,o),
(376,240,cs),
(381,240,o),
(383,242,o),
(386,245,cs),
(394,253,o),
(411,281,o),
(411,292,cs),
(411,297,o),
(408,300,o),
(402,300,cs),
(329,300,o),
(275,300,o),
(202,300,cs),
(187,300,o),
(184,298,o),
(176,289,cs),
(164,277,o),
(152,255,o),
(152,245,cs),
(152,242,o),
(154,240,o),
(157,240,cs)
);
}
);
width = 409;
}
);
note = hyphen;
unicode = 45;
}
{
color = 4;
glyphname = slash;
layers = (
{
background = {
shapes = (
{
closed = 1;
nodes = (
(65,-49,l),
(581,692,l),
(513,692,l),
(-2,-49,l)
);
}
);
};
layerId = "C623C401-2266-4A98-B253-3D45160C29C7";
shapes = (
{
closed = 1;
nodes = (
(35,-58,o),
(68,-49,o),
(81,-30,cs),
(201,138,o),
(446,489,o),
(561,654,cs),
(570,667,o),
(574,674,o),
(574,679,cs),
(574,687,o),
(568,691,o),
(544,691,cs),
(517,691,o),
(505,683,o),
(490,664,cs),
(444,604,o),
(56,41,o),
(-1,-38,cs),
(-4,-42,o),
(-6,-46,o),
(-6,-49,cs),
(-6,-55,o),
(2,-58,o),
(13,-58,cs)
);
}
);
width = 582;
}
);
note = slash;
unicode = 47;
}
{
glyphname = two;
layers = (
{
background = {
shapes = (
{
closed = 1;
nodes = (
(220,-12,o),
(228,-10,o),
(230,-2,cs),
(234,11,o),
(236,23,o),
(236,34,cs),
(236,80,o),
(195,99,o),
(139,99,cs),
(100,99,o),
(30,89,o),
(-11,73,c),
(86,134,o),
(349,302,o),
(349,459,cs),
(349,509,o),
(321,549,o),
(242,549,cs),
(168,549,o),
(109,509,o),
(58,457,cs),
(37,436,o),
(28,415,o),
(28,399,cs),
(28,382,o),
(38,370,o),
(52,370,cs),
(82,370,o),
(82,390,o),
(112,436,cs),
(129,463,o),
(168,489,o),
(195,489,cs),
(211,489,o),
(223,479,o),
(223,454,cs),
(223,331,o),
(47,171,o),
(-62,92,cs),
(-83,76,o),
(-100,40,o),
(-100,18,cs),
(-100,7,o),
(-96,0,o),
(-87,0,cs),
(110,0,ls),
(169,0,o),
(211,-1,o),
(217,-8,cs)
);
}
);
};
layerId = "C623C401-2266-4A98-B253-3D45160C29C7";
shapes = (
{
closed = 1;
nodes = (
(-5,77,l),
(96,141,o),
(349,305,o),
(349,459,cs),
(349,509,o),
(321,549,o),
(242,549,cs),
(168,549,o),
(109,509,o),
(58,457,cs),
(37,436,o),
(28,415,o),
(28,399,cs),
(28,382,o),
(38,370,o),
(52,370,cs),
(66,370,o),
(74,375,o),
(81,385,cs),
(89,395,o),
(96,412,o),
(112,436,cs),
(129,463,o),
(168,489,o),
(195,489,cs),
(211,489,o),
(223,479,o),
(223,454,cs),
(223,331,o),
(47,171,o),
(-62,92,cs),
(-83,76,o),
(-100,40,o),
(-100,18,cs),
(-100,7,o),
(-96,0,o),
(-87,0,cs),
(110,0,ls),
(147,0,o),
(189,0,o),
(208,-4,cs),
(220,-7,o),
(221,-10,o),
(224,-10,cs),
(226,-10,o),
(228,-8,o),
(230,-2,cs),
(234,9,o),
(236,23,o),
(236,34,cs),
(236,80,o),
(195,99,o),
(139,99,cs),
(102,99,o),
(37,90,o),
(-4,75,c)
);
}
);
width = 280;
}
);
note = two;
unicode = 50;
}
{
color = 4;
glyphname = four;
layers = (
{
background = {
shapes = (
{
closed = 1;
nodes = (
(262,41,o),
(282,98,o),
(309,161,c),
(346,165,o),
(376,169,o),
(390,171,cs),
(404,173,o),
(427,200,o),
(427,215,cs),
(427,222,o),
(423,226,o),
(413,226,cs),
(401,226,o),
(379,225,o),
(337,225,c),
(399,358,o),
(477,494,o),
(516,520,cs),
(523,525,o),
(528,530,o),
(528,534,cs),
(528,537,o),
(525,540,o),
(515,542,cs),
(497,545,o),
(480,547,o),
(464,547,cs),
(407,547,o),
(365,527,o),
(330,493,cs),
(311,474,o),
(98,280,o),
(28,224,cs),
(23,220,o),
(20,214,o),
(18,207,c),
(13,198,o),
(9,188,o),
(9,179,cs),
(9,168,o),
(14,158,o),
(24,152,cs),
(28,149,o),
(45,146,o),
(83,146,cs),
(106,146,o),
(137,147,o),
(178,150,c),
(165,118,o),
(155,91,o),
(152,75,cs),
(150,67,o),
(150,59,o),
(150,53,cs),
(150,-2,o),
(201,0,o),
(253,0,c)
);
},
{
closed = 1;
nodes = (
(125,254,o),
(245,353,o),
(316,418,c),
(287,369,o),
(246,294,o),
(213,225,c),
(105,225,l)
);
}
);
};
layerId = "C623C401-2266-4A98-B253-3D45160C29C7";
shapes = (
{
closed = 1;
nodes = (
(262,41,o),
(282,98,o),
(309,161,c),
(346,165,o),
(376,169,o),
(390,171,cs),
(404,173,o),
(427,200,o),
(427,215,cs),
(427,222,o),
(423,225,o),
(413,225,cs),
(401,225,o),
(379,225,o),
(337,225,c),
(383,323,o),
(443,434,o),
(490,495,cs),
(507,517,o),
(528,526,o),
(528,534,cs),
(528,542,o),
(505,547,o),
(464,547,cs),
(407,547,o),
(365,527,o),
(330,493,cs),
(311,474,o),
(113,295,o),
(30,226,cs),
(18,216,o),
(9,190,o),
(9,179,cs),
(9,157,o),
(24,146,o),
(59,146,cs),
(92,146,o),
(138,149,o),
(179,152,c),
(168,124,o),
(150,86,o),
(150,53,cs),
(150,16,o),
(172,0,o),
(229,0,cs),
(238,0,o),
(246,0,o),
(253,0,c)
);
},
{
closed = 1;
nodes = (
(314,415,l),
(286,366,o),
(245,293,o),
(213,225,c),
(103,223,l),
(123,252,o),
(241,351,o),
(313,416,c)
);
}
);
width = 417;
}
);
note = four;
unicode = 52;
}
{
glyphname = six;
layers = (
{
background = {
shapes = (
{
closed = 1;
nodes = (
(290,-12,o),
(384,147,o),
(384,285,cs),
(384,337,o),
(353,374,o),
(309,374,cs),
(257,374,o),
(228,347,o),
(208,323,c),
(224,382,o),
(295,509,o),
(354,501,cs),
(384,497,o),
(393,481,o),
(396,462,cs),
(397,454,o),
(405,450,o),
(414,450,cs),
(426,450,o),
(439,458,o),
(439,477,cs),
(439,522,o),
(388,549,o),
(333,549,cs),
(303,549,o),
(272,541,o),
(247,524,cs),
(204,495,o),
(153,440,o),
(119,382,cs),
(65,290,o),
(26,186,o),
(26,108,cs),
(26,37,o),
(57,-12,o),
(137,-12,cs)
);
},
{
closed = 1;
nodes = (
(141,36,o),
(136,47,o),
(136,67,cs),
(136,111,o),
(161,193,o),
(190,252,cs),
(209,292,o),
(231,323,o),
(248,323,cs),
(257,323,o),
(261,313,o),
(261,297,cs),
(261,248,o),
(225,146,o),
(220,134,cs),
(212,112,o),
(184,36,o),
(153,36,cs)
);
}
);
};
layerId = "C623C401-2266-4A98-B253-3D45160C29C7";
shapes = (
{
closed = 1;
nodes = (
(141,36,o),
(136,47,o),
(136,67,cs),
(136,111,o),
(161,193,o),
(190,252,cs),
(209,292,o),
(231,323,o),
(248,323,cs),
(257,323,o),
(261,313,o),
(261,297,cs),
(261,248,o),
(225,146,o),
(220,134,cs),
(212,112,o),
(184,36,o),
(153,36,cs)
);
},
{
closed = 1;
nodes = (
(210,329,l),
(228,388,o),
(291,501,o),
(349,501,cs),
(379,501,o),
(394,482,o),
(396,462,cs),
(397,454,o),
(405,450,o),
(414,450,cs),
(426,450,o),
(439,458,o),
(439,477,cs),
(439,520,o),
(396,549,o),
(332,549,cs),
(251,549,o),
(174,482,o),
(100,347,cs),
(69,290,o),
(26,186,o),
(26,108,cs),
(26,37,o),
(57,-12,o),
(137,-12,cs),
(290,-12,o),
(384,147,o),
(384,285,cs),
(384,337,o),
(353,374,o),
(309,374,cs),
(261,374,o),
(232,352,o),
(212,329,c)
);
}
);
width = 393;
}
);
note = six;
unicode = 54;
}
{
glyphname = nine;
layers = (
{
background = {
shapes = (
{
closed = 1;
nodes = (
(157,-19,o),
(188,-11,o),
(213,6,cs),
(256,35,o),
(307,90,o),
(341,148,cs),
(395,240,o),
(434,344,o),
(434,422,cs),
(434,493,o),
(403,542,o),
(323,542,cs),
(170,542,o),
(76,383,o),
(76,245,cs),
(76,193,o),
(107,156,o),
(151,156,cs),
(203,156,o),
(232,183,o),
(252,207,c),
(236,148,o),
(165,21,o),
(106,29,cs),
(76,33,o),
(67,49,o),
(64,68,cs),
(63,76,o),
(55,80,o),
(46,80,cs),
(34,80,o),
(21,72,o),
(21,53,cs),
(21,8,o),
(72,-19,o),
(127,-19,cs)
);
},
{
closed = 1;
nodes = (
(203,207,o),
(199,217,o),
(199,233,cs),
(199,282,o),
(235,384,o),
(240,396,cs),
(248,418,o),
(276,494,o),
(307,494,cs),
(319,494,o),
(324,483,o),
(324,463,cs),
(324,419,o),
(299,337,o),
(270,278,cs),
(251,238,o),
(229,207,o),
(212,207,cs)
);
}
);
};
layerId = "C623C401-2266-4A98-B253-3D45160C29C7";
shapes = (
{
closed = 1;
nodes = (
(251,203,l),
(233,142,o),
(168,29,o),
(112,29,cs),
(86,29,o),
(72,41,o),
(64,68,cs),
(62,76,o),
(55,80,o),
(46,80,cs),
(31,80,o),
(21,69,o),
(21,53,cs),
(21,12,o),
(63,-19,o),
(135,-19,cs),
(217,-19,o),
(295,70,o),
(341,148,cs),
(395,240,o),
(434,344,o),
(434,422,cs),
(434,493,o),
(403,542,o),
(323,542,cs),
(170,542,o),
(76,383,o),
(76,245,cs),
(76,193,o),
(107,156,o),
(151,156,cs),
(200,156,o),
(229,180,o),
(249,203,c)
);
},
{
closed = 1;
nodes = (
(203,207,o),
(199,217,o),
(199,233,cs),
(199,261,o),
(213,319,o),
(232,374,cs),
(256,444,o),
(282,494,o),
(307,494,cs),
(319,494,o),
(324,483,o),
(324,463,cs),
(324,435,o),
(315,395,o),
(301,354,cs),
(277,281,o),
(237,207,o),
(212,207,cs)
);
}
);
width = 403;
}
);
note = nine;
unicode = 57;
}
{
glyphname = colon;
layers = (
{
background = {
shapes = (
{
closed = 1;
nodes = (
(270,245,o),
(308,282,o),
(308,323,cs),
(308,346,o),
(294,362,o),
(273,362,cs),
(239,362,o),
(201,323,o),
(201,283,cs),
(201,260,o),
(215,245,o),
(237,245,cs)
);
},
{
closed = 1;
nodes = (
(185,-6,o),
(223,31,o),
(223,72,cs),
(223,95,o),
(209,111,o),
(188,111,cs),
(154,111,o),
(116,72,o),
(116,32,cs),
(116,9,o),
(130,-6,o),
(152,-6,cs)
);
}
);
};
layerId = "C623C401-2266-4A98-B253-3D45160C29C7";
shapes = (
{
pos = (85,251);
ref = period;
},
{
ref = period;
}
);
width = 307;
}
);
note = colon;
unicode = 58;
}
{
color = 4;
glyphname = semicolon;
layers = (
{
background = {
shapes = (
{
closed = 1;
nodes = (
(84,-108,o),
(86,-108,o),
(88,-107,cs),
(162,-73,o),
(206,-9,o),
(224,54,c),
(224,55,ls),
(225,61,o),
(226,66,o),
(226,71,cs),
(226,94,o),
(212,109,o),
(191,109,cs),
(157,109,o),
(120,70,o),
(120,30,cs),
(120,9,o),
(131,-6,o),
(150,-8,c),
(135,-39,o),
(105,-75,o),
(67,-92,cs),
(57,-96,o),
(71,-108,o),
(83,-108,cs)
);
},
{
closed = 1;
nodes = (
(270,245,o),
(308,282,o),
(308,323,cs),
(308,346,o),
(294,362,o),
(273,362,cs),
(239,362,o),
(201,323,o),
(201,283,cs),
(201,260,o),
(215,245,o),
(237,245,cs)
);
}
);
};
layerId = "C623C401-2266-4A98-B253-3D45160C29C7";
shapes = (
{
pos = (38,0);
ref = comma;
},
{
pos = (93,251);
ref = period;
}
);
width = 307;
}
);
note = semicolon;
unicode = 59;
}
{
color = 4;
glyphname = less;
layers = (
{
background = {
shapes = (
{
closed = 1;
nodes = (
(338,52,o),
(352,123,o),
(352,156,cs),
(352,165,o),
(351,172,o),
(349,173,cs),
(167,289,l),
(396,401,ls),
(405,406,o),
(420,475,o),
(420,505,cs),
(420,514,o),
(419,519,o),
(415,517,cs),
(114,330,l),
(102,319,o),
(88,291,o),
(88,270,cs),
(88,262,o),
(90,255,o),
(94,250,c),
(328,61,ls)
);
}
);
};
layerId = "C623C401-2266-4A98-B253-3D45160C29C7";
shapes = (
{
closed = 1;
nodes = (
(345,103,o),
(359,96,o),
(369,96,cs),
(383,96,o),
(384,143,o),
(384,153,cs),
(384,164,o),
(377,167,o),
(362,172,cs),
(113,261,l),
(384,337,ls),
(400,342,o),
(405,347,o),
(411,359,cs),
(420,379,o),
(427,396,o),
(427,414,cs),
(427,419,o),
(425,421,o),
(422,421,cs),
(419,421,o),
(409,417,o),
(387,410,cs),
(54,297,ls),
(39,292,o),
(27,284,o),
(18,270,cs),
(13,263,o),
(10,256,o),
(10,250,cs),
(10,242,o),
(15,239,o),
(31,232,cs),
(125,190,o),
(204,160,o),
(325,111,cs)
);
}
);
width = 449;
}
);
note = less;
unicode = 60;
}
{
color = 4;
glyphname = equal;
layers = (
{
background = {
shapes = (
{
closed = 1;
nodes = (
(344,172,ls),
(350,172,o),
(376,207,o),
(376,224,cs),
(376,229,o),
(373,232,o),
(367,232,cs),
(139,232,ls),
(126,232,o),
(87,172,o),
(105,172,cs)
);
},
{
closed = 1;
nodes = (
(387,302,ls),
(393,302,o),
(418,337,o),
(418,353,cs),
(418,359,o),
(415,362,o),
(409,362,cs),
(181,362,ls),
(168,362,o),
(130,302,o),
(147,302,cs)
);
}
);
};
layerId = "C623C401-2266-4A98-B253-3D45160C29C7";
shapes = (
{
closed = 1;
nodes = (
(207,302,o),
(326,302,o),
(385,302,cs),
(389,302,o),
(390,304,o),
(393,306,cs),
(400,312,o),
(419,343,o),
(419,351,cs),
(419,356,o),
(416,357,o),
(411,357,cs),
(356,357,o),
(242,357,o),
(187,357,cs),
(175,357,o),
(173,356,o),
(167,350,cs),
(158,340,o),
(142,314,o),
(142,306,cs),
(142,304,o),
(145,302,o),
(146,302,cs)
);
},
{
closed = 1;
nodes = (
(165,172,o),
(284,172,o),
(343,172,cs),
(347,172,o),
(348,174,o),
(351,176,cs),
(358,182,o),
(377,213,o),
(377,221,cs),
(377,226,o),
(374,227,o),
(369,227,cs),
(314,227,o),
(200,227,o),
(145,227,cs),
(133,227,o),
(131,226,o),
(125,220,cs),
(116,210,o),
(100,184,o),
(100,176,cs),
(100,174,o),
(103,172,o),
(104,172,cs)
);
}
);
width = 409;
}
);
note = equal;
unicode = 61;
}
{
color = 4;
glyphname = greater;
layers = (
{
background = {
shapes = (
{
closed = 1;
nodes = (
(420,243,l),
(432,254,o),
(446,282,o),
(446,303,cs),
(446,311,o),
(444,318,o),
(440,323,c),
(206,512,ls),
(196,521,o),
(182,450,o),
(182,417,cs),
(182,408,o),
(183,401,o),
(185,400,cs),
(367,284,l),
(138,172,ls),
(129,167,o),
(114,98,o),
(114,68,cs),
(114,59,o),
(115,54,o),
(119,56,cs)
);
}
);
};
layerId = "C623C401-2266-4A98-B253-3D45160C29C7";
shapes = (
{
closed = 1;
nodes = (
(140,413,o),
(126,421,o),
(116,421,cs),
(102,421,o),
(83,379,o),
(83,369,cs),
(83,358,o),
(90,355,o),
(105,350,cs),
(354,261,l),
(83,185,ls),
(67,180,o),
(62,175,o),
(56,163,cs),
(47,143,o),
(40,126,o),
(40,108,cs),
(40,103,o),
(42,101,o),
(45,101,cs),
(48,101,o),
(58,105,o),
(80,112,cs),
(413,222,ls),
(428,227,o),
(440,235,o),
(449,249,cs),
(454,256,o),
(457,263,o),
(457,269,cs),
(457,277,o),
(452,280,o),
(436,287,cs),
(342,329,o),
(278,356,o),
(157,406,cs)
);
}
);
width = 531;
}
);
note = greater;
unicode = 62;
}
{
color = 4;
glyphname = question;
layers = (
{
background = {
shapes = (
{
closed = 1;
nodes = (
(226,171,o),
(232,174,o),
(232,178,cs),
(232,179,o),
(231,181,o),
(230,182,cs),
(227,185,o),
(225,188,o),
(225,191,cs),
(225,192,o),
(226,193,o),
(226,194,cs),
(229,210,o),
(257,227,o),
(278,241,cs),
(370,303,o),
(537,364,o),
(552,502,cs),
(558,560,o),
(520,608,o),
(444,613,cs),
(400,616,o),
(348,613,o),
(290,582,cs),
(227,546,o),
(157,480,o),
(157,433,cs),
(157,413,o),
(181,416,o),
(190,413,c),
(234,478,o),
(323,579,o),
(397,579,cs),
(424,579,o),
(438,567,o),
(438,547,cs),
(438,435,o),
(176,295,o),
(176,219,cs),
(176,199,o),
(198,179,o),
(216,173,c)
);
},
{
closed = 1;
nodes = (
(209,-8,o),
(252,35,o),
(252,81,cs),
(252,106,o),
(235,124,o),
(211,124,cs),
(172,124,o),
(130,80,o),
(130,36,cs),
(130,10,o),
(147,-8,o),
(171,-8,cs)
);
}
);
};
layerId = "C623C401-2266-4A98-B253-3D45160C29C7";
shapes = (
{
closed = 1;
nodes = (
(228,172,o),
(232,175,o),
(232,178,cs),
(232,180,o),
(231,181,o),
(229,183,cs),
(227,185,o),
(225,188,o),
(225,191,cs),
(225,208,o),
(264,231,o),
(278,241,cs),
(360,299,o),
(553,370,o),
(553,513,cs),
(553,582,o),
(492,613,o),
(422,614,cs),
(373,614,o),
(332,606,o),
(282,580,cs),
(209,542,o),
(157,472,o),
(157,433,cs),
(157,419,o),
(167,413,o),
(190,413,c),
(257,513,o),
(341,579,o),
(400,579,cs),
(424,579,o),
(438,566,o),
(438,547,cs),
(438,435,o),
(176,295,o),
(176,219,cs),
(176,197,o),
(204,172,o),
(222,172,cs)
);
},
{
pos = (19,0);
ref = period;
}
);
width = 532;
}
);
note = question;
unicode = 63;
}
{
color = 4;
glyphname = at;
layers = (
{
background = {
shapes = (
{
closed = 1;
nodes = (
(400,-88,o),
(497,-53,o),
(556,43,cs),
(563,54,o),
(566,64,o),
(566,71,cs),
(566,77,o),
(564,80,o),
(560,80,cs),
(556,80,o),
(549,76,o),
(541,66,cs),
(493,10,o),
(409,-25,o),
(332,-25,cs),
(242,-25,o),
(161,24,o),
(161,148,cs),
(161,318,o),
(286,487,o),
(450,487,cs),
(577,487,o),
(629,417,o),
(629,337,cs),
(629,295,o),
(614,249,o),
(589,209,cs),
(556,157,o),
(504,117,o),
(471,117,cs),
(466,117,o),
(462,118,o),
(458,120,c),
(456,157,o),
(478,217,o),
(489,244,cs),
(511,296,o),
(531,334,o),
(538,343,cs),
(542,348,o),
(548,354,o),
(548,359,cs),
(548,364,o),
(542,368,o),
(521,370,cs),
(510,371,o),
(500,372,o),
(490,372,cs),
(473,372,o),
(457,371,o),
(438,370,cs),
(385,368,o),
(337,346,o),
(300,278,cs),
(287,253,o),
(260,194,o),
(260,149,cs),
(260,118,o),
(275,92,o),
(325,95,cs),
(357,99,o),
(378,146,o),
(393,170,c),
(392,162,o),
(391,154,o),
(391,148,cs),
(391,109,o),
(413,92,o),
(460,93,cs),
(585,93,o),
(698,234,o),
(698,357,cs),
(698,449,o),
(633,531,o),
(458,531,cs),
(254,531,o),
(62,365,o),
(62,145,cs),
(62,4,o),
(165,-88,o),
(310,-88,cs)
);
},
{
closed = 1;
nodes = (
(329,127,o),
(327,131,o),
(327,137,cs),
(327,175,o),
(405,328,o),
(432,350,cs),
(438,355,o),
(446,358,o),
(451,358,cs),
(453,358,o),
(455,357,o),
(455,355,cs),
(455,354,o),
(455,353,o),
(454,351,cs),
(393,203,ls),
(376,166,o),
(347,127,o),
(334,127,cs)
);
}
);
};
layerId = "C623C401-2266-4A98-B253-3D45160C29C7";
shapes = (
{
closed = 1;
nodes = (
(331,128,o),
(328,132,o),
(328,137,cs),
(328,157,o),
(350,209,o),
(373,254,cs),
(392,293,o),
(414,329,o),
(426,340,cs),
(433,347,o),
(441,352,o),
(447,352,cs),
(451,352,o),
(452,350,o),
(452,346,cs),
(452,338,o),
(414,252,o),
(401,222,cs),
(377,168,o),
(349,128,o),
(335,128,cs)
);
},
{
closed = 1;
nodes = (
(585,93,o),
(698,234,o),
(698,357,cs),
(698,449,o),
(633,531,o),
(458,531,cs),
(254,531,o),
(62,365,o),
(62,145,cs),
(62,4,o),
(165,-88,o),
(310,-88,cs),
(370,-88,o),
(434,-72,o),
(487,-33,cs),
(523,-6,o),
(566,44,o),
(566,71,cs),
(566,77,o),
(564,81,o),
(560,81,cs),
(556,81,o),
(551,78,o),
(541,66,cs),
(494,9,o),
(409,-25,o),
(332,-25,cs),
(242,-25,o),
(161,24,o),
(161,148,cs),
(161,318,o),
(286,487,o),
(450,487,cs),
(577,487,o),
(629,417,o),
(629,337,cs),
(629,295,o),
(614,249,o),
(589,209,cs),
(556,157,o),
(510,126,o),
(481,126,cs),
(468,126,o),
(462,135,o),
(462,151,cs),
(462,184,o),
(503,287,o),
(538,343,cs),
(542,350,o),
(546,354,o),
(546,358,cs),
(546,363,o),
(542,366,o),
(534,368,cs),
(522,371,o),
(501,372,o),
(473,372,cs),
(386,372,o),
(343,354,o),
(302,279,cs),
(289,254,o),
(256,191,o),
(256,145,cs),
(256,116,o),
(270,94,o),
(312,94,cs),
(350,94,o),
(370,130,o),
(392,165,c),
(395,165,l),
(394,160,o),
(393,154,o),
(393,149,cs),
(393,118,o),
(413,93,o),
(460,93,cs)
);
}
);
width = 683;
}
);
note = at;
unicode = 64;
}
{
color = 3;
glyphname = A;
kernLeft = _A;
kernRight = _A;
layers = (
{
anchors = (
{
name = bottom;
pos = (256,-6);
},
{
name = ogonek;
pos = (460,10);
},
{
name = top;
pos = (499,600);
}
);
background = {
anchors = (
{
name = bottom;
pos = (256,-6);
},
{
name = ogonek;
pos = (460,10);
},
{
name = top;
pos = (499,600);
}
);
shapes = (
{
closed = 1;
nodes = (
(448,-18,o),
(473,-13,o),
(473,2,c),
(469,5,o),
(457,12,o),
(457,32,cs),
(457,117,o),
(499,267,o),
(580,374,cs),
(583,379,o),
(584,383,o),
(584,388,cs),
(584,422,o),
(497,433,o),
(464,439,c),
(370,244,o),
(291,39,o),
(207,37,cs),
(181,37,o),
(171,58,o),
(171,91,cs),
(171,140,o),
(194,213,o),
(223,275,cs),
(268,363,o),
(375,540,o),
(488,540,cs),
(519,540,o),
(565,531,o),
(569,503,cs),
(570,499,o),
(572,497,o),
(576,497,cs),
(585,497,o),
(598,507,o),
(598,527,cs),
(598,533,o),
(597,540,o),
(594,547,cs),
(580,582,o),
(547,601,o),
(489,601,cs),
(247,601,o),
(109,363,o),
(58,184,cs),
(49,154,o),
(45,126,o),
(45,101,cs),
(45,33,o),
(79,-11,o),
(157,-11,cs),
(239,-11,o),
(317,55,o),
(368,168,c),
(363,148,o),
(353,108,o),
(353,71,cs),
(353,31,o),
(364,-6,o),
(402,-15,cs),
(408,-17,o),
(417,-18,o),
(427,-18,cs)
);
}
);
};
layerId = "C623C401-2266-4A98-B253-3D45160C29C7";
shapes = (
{
closed = 1;
nodes = (
(374,188,l),
(369,167,o),
(353,111,o),
(353,77,cs),
(353,16,o),
(377,-11,o),
(427,-11,cs),
(449,-11,o),
(467,-6,o),
(473,9,c),
(457,21,o),
(454,39,o),
(454,62,cs),
(454,107,o),
(478,177,o),
(490,207,cs),
(537,332,o),
(600,404,o),
(600,427,cs),
(600,450,o),
(569,463,o),
(480,478,c),
(386,283,o),
(291,45,o),
(207,43,cs),
(185,43,o),
(171,60,o),
(171,93,cs),
(171,176,o),
(218,292,o),
(299,407,cs),
(360,492,o),
(424,546,o),
(493,546,cs),
(526,546,o),
(549,536,o),
(564,522,cs),
(574,512,o),
(577,507,o),
(584,507,cs),
(592,507,o),
(597,519,o),
(597,534,cs),
(597,572,o),
(553,607,o),
(482,607,cs),
(395,607,o),
(320,574,o),
(252,516,cs),
(126,408,o),
(45,211,o),
(45,107,cs),
(45,32,o),
(85,-12,o),
(161,-12,cs),
(234,-12,o),
(317,55,o),
(373,188,c)
);
}
);
width = 540;
}
);
note = A;
unicode = 65;
}
{
color = 3;
glyphname = B;
layers = (
{
layerId = "C623C401-2266-4A98-B253-3D45160C29C7";
shapes = (
{
closed = 1;
nodes = (
(421,294,l),
(535,296,o),
(627,388,o),
(627,481,cs),
(627,559,o),
(555,616,o),
(429,616,cs),
(239,616,o),
(85,545,o),
(85,455,cs),
(85,422,o),
(112,412,o),
(147,407,c),
(168,503,o),
(303,584,o),
(422,584,cs),
(479,584,o),
(511,555,o),
(511,502,cs),
(511,408,o),
(430,304,o),
(358,292,cs),
(350,291,o),
(347,287,o),
(347,281,cs),
(347,276,o),
(349,273,o),
(356,268,cs),
(399,240,o),
(414,174,o),
(414,136,cs),
(414,51,o),
(358,13,o),
(293,13,cs),
(254,13,o),
(236,21,o),
(236,43,cs),
(236,74,o),
(280,181,o),
(332,288,cs),
(377,382,o),
(430,476,o),
(465,520,cs),
(468,524,o),
(471,527,o),
(471,529,cs),
(471,531,o),
(469,533,o),
(458,535,cs),
(447,537,o),
(429,538,o),
(415,538,cs),
(367,538,o),
(327,522,o),
(295,466,cs),
(269,420,o),
(240,366,o),
(214,311,cs),
(175,226,o),
(144,139,o),
(142,75,cs),
(141,51,o),
(145,30,o),
(161,19,cs),
(200,-7,o),
(259,-20,o),
(316,-20,cs),
(440,-20,o),
(545,40,o),
(545,157,cs),
(545,230,o),
(495,273,o),
(421,293,c)
);
}
);
width = 572;
}
);
note = B;
unicode = 66;
}
{
color = 3;
glyphname = C;
kernLeft = _C;
kernRight = _C;
layers = (
{
anchors = (
{
name = bottom;
pos = (162,-13);
},
{
name = top;
pos = (416,600);
}
);
background = {
anchors = (
{
name = bottom;
pos = (162,-13);
},
{
name = top;
pos = (426,587);
}
);
shapes = (
{
closed = 1;
nodes = (
(204,-19,o),
(230,-16,o),
(260,-8,cs),
(333,10,o),
(412,70,o),
(455,141,cs),
(475,175,o),
(482,195,o),
(482,208,cs),
(482,232,o),
(457,228,o),
(448,229,c),
(408,152,o),
(324,27,o),
(249,27,cs),
(213,27,o),
(200,54,o),
(200,94,cs),
(200,146,o),
(223,219,o),
(249,279,cs),
(266,316,o),
(309,398,o),
(357,462,cs),
(400,521,o),
(431,543,o),
(450,543,cs),
(462,543,o),
(469,533,o),
(469,515,cs),
(469,498,o),
(463,475,o),
(451,450,cs),
(426,395,o),
(374,330,o),
(358,315,cs),
(352,309,o),
(346,303,o),
(346,299,cs),
(346,297,o),
(348,295,o),
(353,295,cs),
(356,295,o),
(359,295,o),
(363,296,cs),
(450,313,o),
(525,418,o),
(525,497,cs),
(525,547,o),
(495,587,o),
(418,587,cs),
(375,587,o),
(325,569,o),
(285,534,cs),
(197,459,o),
(108,284,o),
(79,181,cs),
(70,150,o),
(66,121,o),
(66,96,cs),
(66,26,o),
(101,-19,o),
(181,-19,cs)
);
}
);
};
guides = (
{
pos = (137,602);
},
{
pos = (137,-20);
}
);
layerId = "C623C401-2266-4A98-B253-3D45160C29C7";
shapes = (
{
closed = 1;
nodes = (
(244,-20,o),
(300,6,o),
(346,40,cs),
(425,100,o),
(476,185,o),
(476,214,cs),
(476,228,o),
(463,239,o),
(438,239,c),
(368,101,o),
(292,25,o),
(237,25,cs),
(205,25,o),
(185,51,o),
(187,95,cs),
(190,192,o),
(251,347,o),
(347,476,cs),
(383,526,o),
(419,557,o),
(440,557,cs),
(453,557,o),
(459,546,o),
(459,529,cs),
(459,470,o),
(386,367,o),
(344,325,cs),
(339,320,o),
(336,316,o),
(336,313,cs),
(336,311,o),
(338,309,o),
(343,309,cs),
(413,309,o),
(515,414,o),
(515,511,cs),
(515,568,o),
(477,601,o),
(408,601,c),
(364,601,o),
(313,580,o),
(275,548,cs),
(170,457,o),
(60,252,o),
(60,108,cs),
(60,36,o),
(98,-20,o),
(183,-20,cs)
);
}
);
width = 465;
}
);
note = C;
unicode = 67;
}
{
color = 3;
glyphname = D;
kernLeft = _D;
layers = (
{
anchors = (
{
name = bottom;
pos = (277,-16);
},
{
name = center;
pos = (245,291);
},
{
name = top;
pos = (497,600);
}
);
background = {
anchors = (
{
name = bottom;
pos = (277,-16);
},
{
name = center;
pos = (245,291);
},
{
name = top;
pos = (497,600);
}
);
shapes = (
{
closed = 1;
nodes = (
(326,-24,o),
(421,49,o),
(490,142,cs),
(545,216,o),
(618,352,o),
(618,463,cs),
(618,540,o),
(576,600,o),
(462,601,cs),
(400,601,o),
(337,588,o),
(284,566,cs),
(171,518,o),
(110,455,o),
(102,445,cs),
(73,408,o),
(64,387,o),
(64,375,cs),
(64,354,o),
(89,358,o),
(97,357,c),
(139,424,o),
(240,499,o),
(328,540,cs),
(369,559,o),
(402,568,o),
(427,568,cs),
(481,568,o),
(501,528,o),
(501,472,cs),
(501,373,o),
(427,208,o),
(387,143,cs),
(348,78,o),
(282,8,o),
(223,8,cs),
(219,8,o),
(215,8,o),
(211,9,c),
(202,54,o),
(265,207,o),
(314,303,cs),
(346,365,o),
(395,456,o),
(438,505,cs),
(444,512,o),
(417,517,o),
(371,517,cs),
(329,517,o),
(296,503,o),
(270,465,cs),
(220,389,o),
(124,191,o),
(109,67,cs),
(103,17,o),
(125,20,o),
(158,4,c),
(170,0,l),
(192,-16,o),
(217,-24,o),
(244,-24,cs)
);
}
);
};
layerId = "C623C401-2266-4A98-B253-3D45160C29C7";
shapes = (
{
closed = 1;
nodes = (
(210,130,o),
(373,426,o),
(433,501,cs),
(436,505,o),
(437,507,o),
(437,509,cs),
(437,510,o),
(435,512,o),
(425,514,cs),
(414,516,o),
(397,517,o),
(384,517,cs),
(325,517,o),
(294,501,o),
(265,450,cs),
(197,332,o),
(110,142,o),
(110,49,cs),
(110,28,o),
(115,20,o),
(156,6,cs),
(170,-1,o),
(187,-8,o),
(196,-13,cs),
(212,-21,o),
(223,-24,o),
(237,-24,cs),
(326,-24,o),
(416,47,o),
(484,138,cs),
(537,210,o),
(615,356,o),
(615,465,cs),
(615,540,o),
(574,599,o),
(463,600,cs),
(402,600,o),
(347,591,o),
(261,553,cs),
(156,506,o),
(74,426,o),
(74,385,cs),
(74,373,o),
(87,366,o),
(105,366,c),
(164,440,o),
(247,500,o),
(332,540,cs),
(371,559,o),
(404,568,o),
(428,568,cs),
(482,568,o),
(501,529,o),
(501,473,cs),
(501,377,o),
(422,203,o),
(383,139,cs),
(345,75,o),
(280,7,o),
(223,7,cs),
(218,7,o),
(213,8,o),
(209,9,c)
);
}
);
width = 591;
}
);
note = D;
unicode = 68;
}
{
glyphname = E;
kernLeft = _E;
kernRight = _E;
layers = (
{
anchors = (
{
name = bottom;
pos = (146,-14);
},
{
name = ogonek;
pos = (340,60);
},
{
name = top;
pos = (370,594);
},
{
name = topleft;
pos = (31,594);
}
);
background = {
anchors = (
{
name = bottom;
pos = (146,-14);
},
{
name = ogonek;
pos = (340,60);
},
{
name = top;
pos = (370,594);
},
{
name = topleft;
pos = (31,594);
}
);
};
layerId = "C623C401-2266-4A98-B253-3D45160C29C7";
shapes = (
{
closed = 1;
nodes = (
(271,369,l),
(110,319,o),
(29,201,o),
(29,109,cs),
(29,28,o),
(78,-21,o),
(150,-21,cs),
(196,-21,o),
(254,-4,o),
(308,30,cs),
(384,78,o),
(463,166,o),
(463,220,cs),
(463,234,o),
(448,243,o),
(424,243,c),
(379,161,o),
(258,19,o),
(183,19,cs),
(154,19,o),
(139,42,o),
(139,81,cs),
(139,145,o),
(218,260,o),
(335,299,cs),
(350,304,o),
(354,313,o),
(354,322,cs),
(354,344,o),
(330,372,o),
(307,377,cs),
(270,386,o),
(255,409,o),
(255,428,cs),
(255,475,o),
(321,531,o),
(397,531,cs),
(404,531,o),
(412,530,o),
(417,529,c),
(406,504,o),
(399,456,o),
(399,423,cs),
(399,389,o),
(407,368,o),
(420,368,cs),
(422,368,o),
(424,368,o),
(427,369,c),
(434,445,o),
(492,531,o),
(547,573,cs),
(560,584,o),
(565,590,o),
(565,596,cs),
(565,611,o),
(545,623,o),
(519,623,cs),
(491,623,o),
(456,609,o),
(432,568,c),
(414,584,o),
(383,600,o),
(337,600,cs),
(239,599,o),
(142,550,o),
(142,474,cs),
(142,419,o),
(202,376,o),
(271,370,c)
);
}
);
width = 451;
}
);
note = E;
unicode = 69;
}
{
color = 3;
glyphname = F;
layers = (
{
layerId = "C623C401-2266-4A98-B253-3D45160C29C7";
shapes = (
{
closed = 1;
nodes = (
(331,-17,o),
(334,-16,o),
(334,-14,cs),
(334,-12,o),
(331,-9,o),
(327,-2,cs),
(324,3,o),
(321,15,o),
(321,26,cs),
(321,86,o),
(356,175,o),
(407,269,cs),
(462,371,o),
(524,453,o),
(548,486,cs),
(568,513,o),
(581,531,o),
(581,544,cs),
(581,577,o),
(555,628,o),
(520,628,cs),
(473,628,o),
(398,588,o),
(329,553,cs),
(274,524,o),
(223,499,o),
(195,499,cs),
(180,499,o),
(171,504,o),
(171,513,cs),
(171,520,o),
(177,528,o),
(177,533,cs),
(177,537,o),
(174,539,o),
(169,539,cs),
(162,539,o),
(153,533,o),
(136,507,cs),
(119,481,o),
(100,435,o),
(100,408,cs),
(100,382,o),
(112,373,o),
(146,373,cs),
(185,373,o),
(237,399,o),
(316,475,cs),
(361,518,o),
(402,554,o),
(419,554,cs),
(424,554,o),
(426,551,o),
(426,546,cs),
(426,523,o),
(398,471,o),
(368,418,cs),
(325,340,o),
(228,138,o),
(228,56,cs),
(228,5,o),
(259,-17,o),
(324,-17,cs)
);
},
{
closed = 1;
nodes = (
(440,233,o),
(485,262,o),
(506,306,c),
(505,307,l),
(493,302,o),
(478,300,o),
(463,300,cs),
(403,300,o),
(297,327,o),
(260,327,cs),
(229,327,o),
(213,313,o),
(195,272,cs),
(192,265,o),
(187,252,o),
(187,248,cs),
(187,244,o),
(191,242,o),
(202,240,cs),
(234,234,o),
(309,234,o),
(375,233,cs)
);
}
);
width = 466;
}
);
note = F;
unicode = 70;
}
{
color = 3;
glyphname = G;
kernLeft = _G;
kernRight = _G;
layers = (
{
anchors = (
{
name = bottom;
pos = (109,20);
},
{
name = top;
pos = (431,606);
}
);
background = {
anchors = (
{
name = bottom;
pos = (122,36);
},
{
name = top;
pos = (431,606);
}
);
shapes = (
{
closed = 1;
nodes = (
(277,-123,o),
(323,-93,o),
(363,-39,cs),
(385,-9,o),
(428,61,o),
(455,135,cs),
(498,249,o),
(538,307,o),
(551,313,c),
(557,317,o),
(560,321,o),
(560,324,cs),
(560,327,o),
(557,329,o),
(552,329,cs),
(443,329,ls),
(412,329,o),
(401,304,o),
(386,269,cs),
(354,195,ls),
(320,117,o),
(273,48,o),
(226,48,cs),
(192,48,o),
(180,74,o),
(180,112,cs),
(180,162,o),
(202,232,o),
(227,290,cs),
(242,326,o),
(290,422,o),
(337,486,cs),
(382,546,o),
(421,570,o),
(446,570,cs),
(466,570,o),
(478,555,o),
(478,532,cs),
(478,489,o),
(433,411,o),
(409,379,cs),
(406,375,o),
(404,372,o),
(404,370,cs),
(404,367,o),
(407,365,o),
(413,365,cs),
(418,365,ls),
(467,365,o),
(540,446,o),
(540,503,cs),
(540,558,o),
(497,611,o),
(399,611,cs),
(355,611,o),
(306,592,o),
(265,558,cs),
(226,524,o),
(162,442,o),
(117,338,cs),
(89,271,o),
(68,198,o),
(68,138,cs),
(68,62,o),
(100,6,o),
(188,6,cs),
(243,6,o),
(288,48,o),
(325,101,c),
(314,68,o),
(304,42,o),
(299,30,cs),
(274,-29,o),
(260,-87,o),
(210,-87,cs),
(199,-87,o),
(186,-84,o),
(170,-77,cs),
(167,-76,o),
(164,-75,o),
(161,-75,cs),
(153,-75,o),
(149,-80,o),
(149,-86,cs),
(149,-90,o),
(151,-95,o),
(156,-99,cs),
(179,-118,o),
(205,-123,o),
(229,-123,cs)
);
}
);
};
layerId = "C623C401-2266-4A98-B253-3D45160C29C7";
shapes = (
{
closed = 1;
nodes = (
(312,84,l),
(300,47,o),
(282,-3,o),
(260,-49,cs),
(241,-90,o),
(221,-103,o),
(198,-103,cs),
(173,-103,o),
(158,-91,o),
(147,-91,cs),
(141,-91,o),
(136,-95,o),
(136,-102,cs),
(136,-120,o),
(176,-139,o),
(213,-139,cs),
(262,-139,o),
(303,-117,o),
(350,-55,cs),
(382,-12,o),
(411,44,o),
(433,98,cs),
(489,236,o),
(508,266,o),
(532,292,cs),
(541,301,o),
(547,304,o),
(547,308,cs),
(547,311,o),
(545,313,o),
(538,313,cs),
(438,313,ls),
(403,313,o),
(395,305,o),
(373,253,cs),
(302,89,o),
(250,32,o),
(211,32,cs),
(185,32,o),
(167,51,o),
(167,96,cs),
(167,183,o),
(232,351,o),
(326,484,cs),
(370,546,o),
(412,569,o),
(437,569,cs),
(457,569,o),
(474,554,o),
(474,531,cs),
(474,499,o),
(439,421,o),
(406,379,cs),
(403,375,o),
(400,372,o),
(400,369,cs),
(400,366,o),
(403,364,o),
(409,364,cs),
(459,364,o),
(542,447,o),
(542,505,cs),
(542,571,o),
(486,610,o),
(399,610,cs),
(354,610,o),
(292,586,o),
(255,553,cs),
(159,470,o),
(55,253,o),
(55,122,cs),
(55,35,o),
(97,-10,o),
(175,-10,cs),
(230,-10,o),
(274,31,o),
(311,84,c)
);
}
);
width = 507;
}
);
note = G;
unicode = 71;
}
{
color = 3;
glyphname = H;
kernLeft = _H;
kernRight = _H;
layers = (
{
anchors = (
{
name = bottom;
pos = (245,1);
},
{
name = center;
pos = (234,301);
},
{
name = top;
pos = (522,621);
},
{
name = topleft;
pos = (12,600);
}
);
background = {
anchors = (
{
name = bottom;
pos = (245,1);
},
{
name = center;
pos = (245,301);
},
{
name = top;
pos = (513,601);
},
{
name = topleft;
pos = (15,601);
}
);
shapes = (
{
closed = 1;
nodes = (
(153,-27,o),
(157,-24,o),
(157,-20,cs),
(157,-18,o),
(156,-16,o),
(155,-14,c),
(151,-10,o),
(149,-2,o),
(149,8,cs),
(149,36,o),
(164,85,o),
(187,142,c),
(231,111,o),
(282,62,o),
(316,31,c),
(323,19,o),
(333,9,o),
(348,4,cs),
(352,2,o),
(353,2,o),
(354,3,c),
(368,-1,o),
(386,-3,o),
(396,-8,cs),
(403,-12,o),
(407,-9,o),
(407,-5,cs),
(407,-3,o),
(406,-1,o),
(405,1,cs),
(401,6,o),
(399,13,o),
(399,23,cs),
(399,131,o),
(608,526,o),
(674,574,cs),
(678,577,o),
(679,579,o),
(679,581,cs),
(679,591,o),
(647,598,o),
(611,598,cs),
(542,598,o),
(512,571,o),
(474,508,cs),
(455,477,o),
(394,370,o),
(351,262,c),
(242,264,l),
(310,403,o),
(396,546,o),
(435,574,cs),
(439,577,o),
(440,579,o),
(440,581,cs),
(440,592,o),
(408,599,o),
(370,599,cs),
(299,599,o),
(267,570,o),
(228,506,cs),
(209,475,o),
(152,373,o),
(109,268,c),
(90,268,l),
(85,269,o),
(79,270,o),
(74,270,cs),
(70,270,o),
(67,269,o),
(63,269,cs),
(35,266,o),
(13,244,o),
(13,225,cs),
(13,214,o),
(20,205,o),
(38,201,cs),
(53,198,o),
(66,195,o),
(80,190,c),
(65,145,o),
(56,102,o),
(56,67,cs),
(56,28,o),
(68,0,o),
(98,-11,cs),
(112,-15,o),
(134,-18,o),
(146,-23,cs)
);
},
{
closed = 1;
nodes = (
(286,107,o),
(251,155,o),
(210,196,c),
(228,236,l),
(265,234,o),
(303,233,o),
(340,233,c),
(319,175,o),
(304,118,o),
(306,76,c)
);
}
);
};
guides = (
{
pos = (160,-26);
}
);
layerId = "C623C401-2266-4A98-B253-3D45160C29C7";
shapes = (
{
closed = 1;
nodes = (
(65,35,o),
(74,15,o),
(94,3,cs),
(113,-8,o),
(153,-19,o),
(165,-19,cs),
(169,-19,o),
(171,-18,o),
(171,-15,cs),
(171,-12,o),
(168,-9,o),
(166,-4,cs),
(163,2,o),
(161,10,o),
(161,24,cs),
(161,76,o),
(206,227,o),
(261,343,cs),
(319,465,o),
(379,550,o),
(415,587,cs),
(425,597,o),
(430,601,o),
(430,606,cs),
(430,613,o),
(409,618,o),
(376,618,cs),
(302,618,o),
(278,591,o),
(235,530,cs),
(201,481,o),
(167,410,o),
(143,355,cs),
(90,236,o),
(63,128,o),
(64,68,cs)
);
},
{
closed = 1;
nodes = (
(404,184,o),
(553,476,o),
(661,587,cs),
(671,597,o),
(676,601,o),
(676,606,cs),
(676,613,o),
(653,618,o),
(616,618,cs),
(554,618,o),
(524,591,o),
(481,530,cs),
(408,424,o),
(286,199,o),
(317,66,c),
(332,67,l),
(216,262,o),
(127,281,o),
(76,281,cs),
(42,281,o),
(20,256,o),
(20,234,cs),
(20,222,o),
(29,213,o),
(45,210,cs),
(186,186,o),
(270,42,o),
(346,-1,cs),
(376,-18,o),
(399,-19,o),
(408,-19,cs),
(416,-19,o),
(420,-17,o),
(420,-13,cs),
(420,-10,o),
(418,-8,o),
(416,-4,cs),
(411,6,o),
(404,30,o),
(404,45,cs)
);
},
{
closed = 1;
nodes = (
(205,233,l),
(251,229,o),
(301,228,o),
(353,228,c),
(365,262,l),
(316,260,o),
(267,261,o),
(216,263,c)
);
}
);
width = 496;
}
);
note = H;
unicode = 72;
}
{
color = 3;
glyphname = I;
kernLeft = _I;
kernRight = _I;
layers = (
{
anchors = (
{
name = bottom;
pos = (105,-21);
},
{
name = ogonek;
pos = (130,2);
},
{
name = top;
pos = (401,610);
},
{
name = topleft;
pos = (4,610);
}
);
background = {
anchors = (
{
name = bottom;
pos = (105,-21);
},
{
name = ogonek;
pos = (130,2);
},
{
name = top;
pos = (401,610);
},
{
name = topleft;
pos = (4,610);
}
);
};
layerId = "C623C401-2266-4A98-B253-3D45160C29C7";
shapes = (
{
closed = 1;
nodes = (
(214,207,o),
(119,68,cs),
(96,34,o),
(69,21,o),
(52,21,cs),
(21,21,o),
(11,42,o),
(1,42,cs),
(-5,42,o),
(-10,37,o),
(-10,30,cs),
(-10,5,o),
(30,-21,o),
(83,-21,cs),
(134,-21,o),
(187,-4,o),
(232,51,cs),
(340,183,o),
(444,531,o),
(444,573,cs),
(444,600,o),
(432,614,o),
(401,614,cs),
(302,614,o),
(173,514,o),
(130,431,cs),
(113,398,o),
(107,378,o),
(107,365,cs),
(107,351,o),
(116,345,o),
(126,344,cs),
(136,343,o),
(144,348,o),
(149,358,cs),
(175,411,o),
(239,529,o),
(306,554,c),
(282,435,o)
);
}
);
width = 354;
}
);
note = I;
unicode = 73;
}
{
color = 3;
glyphname = J;
kernLeft = _J;
kernRight = _J;
layers = (
{
anchors = (
{
name = bottom;
pos = (216,10);
},
{
name = top;
pos = (452,610);
}
);
background = {
anchors = (
{
name = bottom;
pos = (223,20);
},
{
name = top;
pos = (452,610);
}
);
shapes = (
{
closed = 1;
nodes = (
(278,-17,o),
(351,122,o),
(403,245,cs),
(435,321,o),
(483,465,o),
(504,545,c),
(542,545,o),
(572,542,o),
(576,534,cs),
(578,531,o),
(582,531,o),
(582,537,cs),
(581,544,o),
(583,554,o),
(583,562,cs),
(583,600,o),
(504,610,o),
(424,610,cs),
(352,610,o),
(280,602,o),
(262,598,cs),
(228,591,o),
(222,585,o),
(211,552,cs),
(208,542,o),
(206,532,o),
(206,525,cs),
(206,516,o),
(209,510,o),
(212,511,cs),
(222,514,o),
(243,519,o),
(270,524,cs),
(297,529,o),
(329,532,o),
(362,537,cs),
(369,538,l),
(344,418,o),
(273,217,o),
(213,106,cs),
(178,42,o),
(147,17,o),
(125,17,cs),
(106,17,o),
(95,35,o),
(95,63,cs),
(95,75,o),
(97,88,o),
(101,102,cs),
(132,211,o),
(194,291,o),
(250,317,cs),
(255,319,o),
(258,322,o),
(258,325,cs),
(258,331,o),
(246,337,o),
(228,337,cs),
(221,337,o),
(213,336,o),
(204,334,cs),
(98,306,o),
(22,177,o),
(22,82,cs),
(22,24,o),
(51,-17,o),
(119,-17,cs)
);
}
);
};
layerId = "C623C401-2266-4A98-B253-3D45160C29C7";
shapes = (
{
closed = 1;
nodes = (
(211,509,o),
(217,512,cs),
(258,530,o),
(409,544,o),
(456,544,cs),
(471,544,o),
(508,547,o),
(539,542,cs),
(568,537,o),
(575,531,o),
(579,531,cs),
(582,531,o),
(584,534,o),
(584,555,cs),
(584,569,o),
(583,577,o),
(568,587,cs),
(540,606,o),
(476,610,o),
(420,610,cs),
(378,610,o),
(290,605,o),
(263,598,cs),
(232,591,o),
(226,587,o),
(218,568,cs),
(213,557,o),
(207,535,o),
(207,523,cs),
(207,513,o)
);
},
{
closed = 1;
nodes = (
(372,550,l),
(350,432,o),
(268,211,o),
(206,96,cs),
(176,41,o),
(144,7,o),
(117,7,cs),
(98,7,o),
(88,25,o),
(88,53,cs),
(88,84,o),
(102,133,o),
(127,180,cs),
(155,233,o),
(197,284,o),
(241,306,cs),
(247,309,o),
(251,311,o),
(251,315,cs),
(251,322,o),
(240,326,o),
(222,326,cs),
(165,326,o),
(106,284,o),
(66,225,cs),
(35,180,o),
(15,125,o),
(15,72,cs),
(15,14,o),
(44,-27,o),
(112,-27,cs),
(229,-27,o),
(318,54,o),
(387,214,cs),
(430,315,o),
(489,479,o),
(508,555,c)
);
}
);
width = 434;
}
);
note = J;
unicode = 74;
}
{
color = 3;
glyphname = K;
kernLeft = _K;
kernRight = _K;
layers = (
{
anchors = (
{
name = bottom;
pos = (426,22);
},
{
name = top;
pos = (358,602);
}
);
background = {
anchors = (
{
name = bottom;
pos = (436,2);
},
{
name = top;
pos = (358,602);
}
);
shapes = (
{
closed = 1;
nodes = (
(627,-13,o),
(679,60,o),
(668,58,cs),
(616,48,o),
(525,290,o),
(522,308,c),
(599,348,o),
(770,453,o),
(770,556,cs),
(770,587,o),
(750,600,o),
(730,600,cs),
(719,600,o),
(707,597,o),
(698,590,cs),
(627,543,o),
(563,337,o),
(408,307,c),
(458,402,o),
(513,493,o),
(539,531,cs),
(549,544,o),
(556,556,o),
(556,569,cs),
(556,574,o),
(555,579,o),
(553,584,cs),
(544,603,o),
(528,625,o),
(510,629,cs),
(437,643,o),
(244,501,o),
(173,501,cs),
(162,501,o),
(151,504,o),
(151,513,cs),
(151,516,o),
(153,520,o),
(155,525,cs),
(157,528,o),
(158,531,o),
(158,533,cs),
(158,538,o),
(155,540,o),
(150,540,cs),
(144,540,o),
(134,536,o),
(127,525,cs),
(100,486,o),
(80,440,o),
(80,410,cs),
(80,395,o),
(85,384,o),
(97,380,cs),
(107,376,o),
(118,374,o),
(128,374,cs),
(224,374,o),
(328,524,o),
(383,548,cs),
(391,552,o),
(394,549,o),
(394,544,cs),
(394,526,o),
(363,476,o),
(358,466,cs),
(322,400,o),
(211,198,o),
(211,83,cs),
(211,44,o),
(224,16,o),
(255,5,cs),
(269,0,o),
(291,-2,o),
(303,-7,cs),
(310,-11,o),
(314,-8,o),
(314,-4,cs),
(314,-2,o),
(313,0,o),
(312,2,c),
(306,9,o),
(303,19,o),
(303,33,cs),
(303,85,o),
(344,181,o),
(393,277,c),
(399,277,ls),
(408,277,o),
(420,277,o),
(435,280,c),
(436,277,l),
(443,228,o),
(466,-13,o),
(574,-13,cs)
);
}
);
};
layerId = "C623C401-2266-4A98-B253-3D45160C29C7";
shapes = (
{
closed = 1;
nodes = (
(385,277,l),
(475,270,o),
(598,344,o),
(666,401,cs),
(725,449,o),
(770,505,o),
(770,556,cs),
(770,583,o),
(755,600,o),
(730,600,cs),
(703,600,o),
(679,579,o),
(635,517,cs),
(590,453,o),
(527,328,o),
(398,305,c)
);
},
{
closed = 1;
nodes = (
(311,-5,o),
(314,-4,o),
(314,-2,cs),
(314,0,o),
(310,3,o),
(307,10,cs),
(304,16,o),
(303,23,o),
(303,34,cs),
(303,95,o),
(366,228,o),
(416,321,cs),
(471,423,o),
(498,469,o),
(537,528,cs),
(552,551,o),
(556,557,o),
(556,571,cs),
(556,589,o),
(530,630,o),
(500,630,cs),
(453,630,o),
(378,590,o),
(309,555,cs),
(254,526,o),
(203,501,o),
(175,501,cs),
(160,501,o),
(151,506,o),
(151,515,cs),
(151,522,o),
(157,530,o),
(157,535,cs),
(157,539,o),
(154,541,o),
(149,541,cs),
(142,541,o),
(133,535,o),
(116,509,cs),
(99,483,o),
(80,437,o),
(80,410,cs),
(80,384,o),
(94,374,o),
(128,374,cs),
(167,374,o),
(217,398,o),
(296,475,cs),
(341,519,o),
(377,550,o),
(389,550,cs),
(393,550,o),
(394,548,o),
(394,544,cs),
(394,526,o),
(366,481,o),
(338,429,cs),
(294,347,o),
(211,182,o),
(211,80,cs),
(211,29,o),
(239,-5,o),
(304,-5,cs)
);
},
{
closed = 1;
nodes = (
(432,299,l),
(444,228,o),
(464,-13,o),
(574,-13,cs),
(621,-13,o),
(671,45,o),
(671,58,cs),
(671,60,o),
(670,62,o),
(667,62,cs),
(665,62,o),
(663,61,o),
(659,61,cs),
(614,61,o),
(522,290,o),
(517,327,c)
);
}
);
width = 680;
}
);
note = K;
unicode = 75;
}
{
color = 3;
glyphname = L;
kernLeft = _L;
kernRight = _L;
layers = (
{
anchors = (
{
name = bottom;
pos = (235,-10);
},
{
name = center;
pos = (211,303);
},
{
name = top;
pos = (408,587);
},
{
name = topright;
pos = (484,610);
}
);
background = {
anchors = (
{
name = bottom;
pos = (211,3);
},
{
name = center;
pos = (211,303);
},
{
name = top;
pos = (394,603);
},
{
name = topright;
pos = (480,603);
}
);
shapes = (
{
closed = 1;
nodes = (
(166,0,o),
(191,10,o),
(232,15,cs),
(271,19,o),
(310,22,o),
(343,22,cs),
(387,22,o),
(419,-5,o),
(419,6,cs),
(419,8,ls),
(419,16,o),
(421,30,o),
(421,39,cs),
(421,86,o),
(347,98,o),
(271,98,cs),
(227,98,o),
(183,94,o),
(151,90,c),
(164,129,o),
(186,184,o),
(210,236,c),
(335,297,o),
(453,430,o),
(453,526,cs),
(453,558,o),
(420,581,o),
(385,592,cs),
(368,597,o),
(351,600,o),
(336,600,cs),
(271,598,o),
(256,589,o),
(219,526,cs),
(197,489,o),
(119,352,o),
(76,228,c),
(66,229,o),
(57,231,o),
(47,235,cs),
(34,240,o),
(22,230,o),
(22,222,cs),
(22,218,o),
(25,215,o),
(30,213,cs),
(42,208,o),
(55,205,o),
(68,204,c),
(54,161,o),
(45,120,o),
(45,87,cs),
(45,50,o),
(56,23,o),
(83,12,cs),
(104,3,o),
(121,0,o),
(137,0,cs)
);
},
{
closed = 1;
nodes = (
(238,297,ls),
(270,361,o),
(357,550,o),
(387,550,cs),
(395,550,o),
(399,541,o),
(399,527,cs),
(399,509,o),
(392,483,o),
(377,454,cs),
(349,402,o),
(295,331,o),
(231,283,c)
);
}
);
};
layerId = "C623C401-2266-4A98-B253-3D45160C29C7";
shapes = (
{
closed = 1;
nodes = (
(231,85,o),
(187,81,o),
(155,77,c),
(168,116,o),
(192,185,o),
(216,237,c),
(341,298,o),
(457,437,o),
(457,533,cs),
(457,582,o),
(387,607,o),
(334,607,cs),
(281,607,o),
(256,592,o),
(223,533,cs),
(202,496,o),
(136,369,o),
(94,256,c),
(75,257,o),
(62,261,o),
(54,261,cs),
(44,261,o),
(35,254,o),
(35,245,cs),
(35,239,o),
(39,233,o),
(48,230,cs),
(61,225,o),
(76,224,o),
(82,223,c),
(67,176,o),
(49,117,o),
(49,74,cs),
(49,37,o),
(60,10,o),
(87,-1,cs),
(108,-10,o),
(125,-13,o),
(141,-13,cs),
(166,-13,o),
(193,-5,o),
(226,0,cs),
(268,6,o),
(302,9,o),
(328,9,cs),
(343,9,o),
(359,9,o),
(380,6,cs),
(409,2,o),
(416,-5,o),
(420,-5,cs),
(423,-5,o),
(425,-2,o),
(425,19,cs),
(425,39,o),
(421,50,o),
(406,60,cs),
(378,79,o),
(331,85,o),
(275,85,cs)
);
},
{
closed = 1;
nodes = (
(258,339,o),
(317,463,o),
(356,521,cs),
(370,543,o),
(383,557,o),
(391,557,cs),
(399,557,o),
(403,548,o),
(403,534,cs),
(403,504,o),
(386,466,o),
(371,437,cs),
(343,385,o),
(295,330,o),
(231,282,c)
);
}
);
width = 417;
}
);
note = L;
unicode = 76;
}
{
color = 3;
glyphname = M;
kernLeft = _N;
layers = (
{
layerId = "C623C401-2266-4A98-B253-3D45160C29C7";
shapes = (
{
closed = 1;
nodes = (
(633,326,l),
(666,376,o),
(744,493,o),
(744,531,cs),
(744,549,o),
(738,563,o),
(717,575,cs),
(710,580,o),
(690,585,o),
(678,585,cs),
(663,585,o),
(645,580,o),
(631,571,cs),
(603,554,o),
(475,405,o),
(415,324,c),
(413,326,l),
(446,388,o),
(518,478,o),
(537,504,cs),
(557,531,o),
(573,552,o),
(573,565,cs),
(573,577,o),
(550,628,o),
(515,628,cs),
(468,628,o),
(393,588,o),
(324,553,cs),
(269,524,o),
(218,499,o),
(190,499,cs),
(175,499,o),
(166,504,o),
(166,513,cs),
(166,520,o),
(172,528,o),
(172,533,cs),
(172,537,o),
(169,539,o),
(164,539,cs),
(157,539,o),
(148,533,o),
(131,507,cs),
(114,481,o),
(95,435,o),
(95,408,cs),
(95,382,o),
(107,373,o),
(141,373,cs),
(180,373,o),
(232,399,o),
(311,475,cs),
(356,518,o),
(397,554,o),
(414,554,cs),
(418,554,o),
(420,552,o),
(420,548,cs),
(420,530,o),
(375,471,o),
(345,418,cs),
(302,340,o),
(221,149,o),
(221,67,cs),
(221,16,o),
(254,-7,o),
(319,-7,cs),
(326,-7,o),
(329,-6,o),
(329,-4,cs),
(329,-2,o),
(326,1,o),
(322,8,cs),
(319,13,o),
(316,25,o),
(316,36,cs),
(316,95,o),
(345,164,o),
(387,234,cs),
(455,345,o),
(555,454,o),
(622,514,c),
(567,427,o),
(471,234,o),
(471,108,cs),
(471,45,o),
(499,10,o),
(549,10,cs),
(563,10,o),
(577,14,o),
(581,21,c),
(575,29,o),
(570,41,o),
(570,60,cs),
(570,85,o),
(581,151,o),
(611,220,cs),
(669,352,o),
(819,494,o),
(861,531,c),
(811,448,o),
(687,188,o),
(687,30,cs),
(687,-44,o),
(717,-91,o),
(765,-91,cs),
(777,-91,o),
(790,-87,o),
(798,-79,c),
(791,-69,o),
(789,-54,o),
(789,-36,cs),
(789,88,o),
(923,371,o),
(955,429,cs),
(972,461,o),
(996,506,o),
(996,546,cs),
(996,572,o),
(987,592,o),
(956,610,cs),
(935,622,o),
(920,629,o),
(911,629,cs),
(901,629,o),
(892,625,o),
(882,617,cs),
(855,594,o),
(708,421,o),
(635,324,c)
);
}
);
width = 891;
}
);
note = M;
unicode = 77;
}
{
color = 3;
glyphname = N;
kernLeft = _N;
kernRight = _N;
layers = (
{
anchors = (
{
name = bottom;
pos = (399,0);
},
{
name = top;
pos = (646,590);
}
);
background = {
anchors = (
{
name = bottom;
pos = (409,-10);
},
{
name = top;
pos = (706,590);
}
);
shapes = (
{
closed = 1;
nodes = (
(326,-17,o),
(329,-16,o),
(329,-14,cs),
(329,-13,o),
(328,-12,o),
(327,-10,c),
(320,-2,o),
(316,11,o),
(316,26,cs),
(316,196,o),
(512,408,o),
(620,505,c),
(615,489,o),
(600,454,o),
(582,414,cs),
(549,343,o),
(476,198,o),
(476,96,cs),
(476,44,o),
(504,-11,o),
(559,-11,cs),
(574,-11,o),
(590,-7,o),
(594,1,c),
(587,10,o),
(583,30,o),
(583,55,cs),
(583,87,o),
(590,128,o),
(604,169,cs),
(634,254,o),
(687,346,o),
(750,470,cs),
(760,490,o),
(767,513,o),
(767,534,cs),
(767,560,o),
(757,584,o),
(729,599,cs),
(711,609,o),
(699,616,o),
(686,616,cs),
(678,616,o),
(669,613,o),
(659,605,cs),
(622,577,o),
(485,416,o),
(414,313,cs),
(409,306,o),
(408,320,o),
(416,333,cs),
(436,363,o),
(478,419,o),
(504,452,cs),
(520,474,o),
(579,541,o),
(573,558,cs),
(567,578,o),
(548,612,o),
(525,617,cs),
(452,631,o),
(259,489,o),
(188,489,cs),
(177,489,o),
(166,492,o),
(166,501,cs),
(166,504,o),
(168,508,o),
(170,513,cs),
(172,516,o),
(173,519,o),
(173,521,cs),
(173,526,o),
(170,528,o),
(165,528,cs),
(159,528,o),
(149,524,o),
(142,513,cs),
(115,474,o),
(95,428,o),
(95,398,cs),
(95,383,o),
(100,372,o),
(112,368,cs),
(122,364,o),
(132,363,o),
(142,363,cs),
(239,363,o),
(351,522,o),
(408,543,cs),
(416,546,o),
(420,544,o),
(420,539,cs),
(420,520,o),
(375,459,o),
(369,449,cs),
(288,316,o),
(231,145,o),
(223,79,cs),
(222,71,o),
(221,64,o),
(221,58,cs),
(221,5,o),
(253,-17,o),
(319,-17,cs)
);
}
);
};
layerId = "C623C401-2266-4A98-B253-3D45160C29C7";
shapes = (
{
closed = 1;
nodes = (
(431,357,o),
(510,463,o),
(535,495,cs),
(556,521,o),
(573,542,o),
(573,555,cs),
(573,567,o),
(550,618,o),
(515,618,cs),
(468,618,o),
(393,578,o),
(324,543,cs),
(269,514,o),
(218,489,o),
(190,489,cs),
(175,489,o),
(166,494,o),
(166,503,cs),
(166,510,o),
(172,518,o),
(172,523,cs),
(172,527,o),
(169,529,o),
(164,529,cs),
(157,529,o),
(148,523,o),
(131,497,cs),
(114,471,o),
(95,425,o),
(95,398,cs),
(95,372,o),
(107,363,o),
(141,363,cs),
(180,363,o),
(232,389,o),
(311,465,cs),
(356,508,o),
(397,544,o),
(414,544,cs),
(418,544,o),
(420,542,o),
(420,538,cs),
(420,520,o),
(375,461,o),
(345,408,cs),
(302,330,o),
(221,139,o),
(221,57,cs),
(221,6,o),
(254,-17,o),
(319,-17,cs),
(326,-17,o),
(329,-16,o),
(329,-14,cs),
(329,-12,o),
(326,-9,o),
(322,-2,cs),
(319,3,o),
(316,15,o),
(316,26,cs),
(316,196,o),
(512,408,o),
(620,505,c),
(615,489,o),
(600,454,o),
(582,414,cs),
(549,343,o),
(476,198,o),
(476,96,cs),
(476,44,o),
(504,-11,o),
(559,-11,cs),
(574,-11,o),
(590,-7,o),
(594,1,c),
(587,10,o),
(583,30,o),
(583,55,cs),
(583,87,o),
(590,128,o),
(604,169,cs),
(634,254,o),
(687,346,o),
(750,470,cs),
(760,490,o),
(767,513,o),
(767,534,cs),
(767,560,o),
(759,581,o),
(729,599,cs),
(711,610,o),
(699,616,o),
(686,616,cs),
(678,616,o),
(669,613,o),
(659,605,cs),
(624,578,o),
(525,465,o),
(412,311,c),
(408,313,l)
);
}
);
width = 667;
}
);
note = N;
unicode = 78;
}
{
color = 3;
glyphname = O;
kernLeft = _O;
kernRight = _O;
layers = (
{
anchors = (
{
name = bottom;
pos = (170,0);
},
{
name = center;
pos = (255,300);
},
{
name = ogonek;
pos = (199,10);
},
{
name = top;
pos = (445,600);
},
{
name = topleft;
pos = (40,600);
},
{
name = topright;
pos = (470,600);
}
);
background = {
anchors = (
{
name = bottom;
pos = (170,0);
},
{
name = center;
pos = (255,300);
},
{
name = ogonek;
pos = (199,10);
},
{
name = top;
pos = (445,600);
},
{
name = topleft;
pos = (40,600);
},
{
name = topright;
pos = (470,600);
}
);
};
layerId = "C623C401-2266-4A98-B253-3D45160C29C7";
shapes = (
{
closed = 1;
nodes = (
(260,-10,o),
(314,9,o),
(351,38,cs),
(451,115,o),
(543,291,o),
(543,417,cs),
(543,480,o),
(519,527,o),
(475,546,cs),
(467,550,o),
(459,551,o),
(455,551,cs),
(448,551,o),
(443,548,o),
(443,544,cs),
(443,542,o),
(444,540,o),
(448,535,cs),
(461,520,o),
(468,492,o),
(468,455,cs),
(468,404,o),
(454,338,o),
(423,272,cs),
(352,121,o),
(273,27,o),
(218,27,cs),
(195,27,o),
(184,45,o),
(184,78,cs),
(184,131,o),
(213,226,o),
(256,320,cs),
(277,366,o),
(314,447,o),
(360,501,cs),
(391,538,o),
(437,583,o),
(475,583,cs),
(487,583,o),
(499,578,o),
(510,569,cs),
(513,566,o),
(517,564,o),
(520,564,cs),
(526,564,o),
(530,571,o),
(530,581,cs),
(530,587,o),
(529,591,o),
(525,596,cs),
(512,610,o),
(478,621,o),
(433,621,cs),
(355,621,o),
(292,594,o),
(234,542,cs),
(129,447,o),
(60,283,o),
(60,144,cs),
(60,55,o),
(109,-10,o),
(211,-10,cs)
);
}
);
width = 503;
}
);
note = O;
unicode = 79;
}
{
color = 3;
glyphname = P;
kernLeft = _R;
layers = (
{
layerId = "C623C401-2266-4A98-B253-3D45160C29C7";
shapes = (
{
closed = 1;
nodes = (
(133,45,o),
(142,19,o),
(157,8,cs),
(178,-9,o),
(213,-15,o),
(225,-15,cs),
(228,-15,o),
(230,-14,o),
(230,-11,cs),
(230,-9,o),
(228,-7,o),
(226,-4,cs),
(222,2,o),
(220,10,o),
(220,19,cs),
(220,60,o),
(247,142,o),
(283,229,c),
(291,225,o),
(309,220,o),
(327,220,cs),
(466,220,o),
(616,361,o),
(616,488,cs),
(616,566,o),
(553,624,o),
(419,624,cs),
(211,624,o),
(75,555,o),
(75,462,cs),
(75,438,o),
(105,419,o),
(140,414,c),
(159,518,o),
(294,593,o),
(413,593,cs),
(470,593,o),
(501,559,o),
(501,506,cs),
(501,452,o),
(465,361,o),
(415,303,cs),
(387,270,o),
(359,249,o),
(327,249,cs),
(313,249,o),
(301,253,o),
(295,257,c),
(330,354,o),
(374,449,o),
(436,531,cs),
(439,535,o),
(440,537,o),
(440,539,cs),
(440,541,o),
(438,543,o),
(427,545,cs),
(416,547,o),
(399,548,o),
(385,548,cs),
(337,548,o),
(299,532,o),
(270,479,cs),
(203,359,o),
(133,172,o),
(133,77,cs)
);
}
);
width = 531;
}
);
note = P;
unicode = 80;
}
{
color = 5;
glyphname = Q;
kernLeft = _O;
layers = (
{
anchors = (
{
name = bottom;
pos = (165,-2);
},
{
name = center;
pos = (250,298);
},
{
name = ogonek;
pos = (194,8);
},
{
name = top;
pos = (440,598);
},
{
name = topleft;
pos = (35,598);
},
{
name = topright;
pos = (465,598);
}
);
background = {
shapes = (
{
closed = 1;
nodes = (
(256,1,o),
(305,18,o),
(343,48,cs),
(404,96,o),
(458,177,o),
(492,252,cs),
(511,294,o),
(531,361,o),
(531,422,cs),
(531,477,o),
(514,528,o),
(463,550,cs),
(456,553,o),
(450,554,o),
(445,554,cs),
(438,554,o),
(434,552,o),
(434,547,cs),
(434,545,o),
(436,542,o),
(439,538,cs),
(452,524,o),
(458,496,o),
(458,460,cs),
(458,410,o),
(445,345,o),
(414,279,cs),
(341,122,o),
(268,38,o),
(215,38,cs),
(191,38,o),
(182,58,o),
(182,88,cs),
(182,153,o),
(224,264,o),
(252,327,cs),
(282,394,o),
(320,465,o),
(357,509,cs),
(389,546,o),
(429,585,o),
(466,585,cs),
(478,585,o),
(489,581,o),
(500,572,cs),
(504,568,o),
(507,567,o),
(510,567,cs),
(516,567,o),
(519,575,o),
(519,583,cs),
(519,589,o),
(517,596,o),
(514,599,cs),
(499,615,o),
(462,623,o),
(425,623,cs),
(345,623,o),
(287,596,o),
(230,545,cs),
(121,447,o),
(54,268,o),
(62,135,cs),
(67,42,o),
(135,1,o),
(209,1,cs)
);
},
{
closed = 1;
nodes = (
(395,-208,o),
(425,-163,o),
(425,-123,cs),
(425,-110,o),
(422,-97,o),
(415,-87,c),
(403,-104,o),
(387,-113,o),
(370,-113,cs),
(363,-113,o),
(356,-111,o),
(349,-108,cs),
(277,-71,o),
(216,-5,o),
(132,-5,cs),
(92,-5,o),
(64,-23,o),
(60,-53,cs),
(60,-56,o),
(61,-60,o),
(66,-56,cs),
(73,-50,o),
(81,-48,o),
(90,-48,cs),
(114,-48,o),
(142,-64,o),
(152,-71,cs),
(176,-89,o),
(231,-157,o),
(284,-189,cs),
(306,-203,o),
(327,-208,o),
(345,-208,cs)
);
}
);
};
layerId = "C623C401-2266-4A98-B253-3D45160C29C7";
shapes = (
{
closed = 1;
nodes = (
(388,-221,o),
(425,-184,o),
(425,-136,cs),
(425,-123,o),
(422,-110,o),
(415,-100,c),
(415,-100,o),
(414,-100,o),
(414,-100,c),
(402,-116,o),
(387,-126,o),
(371,-126,cs),
(341,-126,o),
(299,-89,o),
(257,-63,cs),
(212,-35,o),
(176,-18,o),
(132,-18,cs),
(92,-18,o),
(60,-39,o),
(60,-64,cs),
(60,-68,o),
(61,-70,o),
(63,-70,cs),
(65,-70,o),
(68,-68,o),
(74,-65,cs),
(78,-63,o),
(84,-61,o),
(91,-61,cs),
(128,-61,o),
(177,-108,o),
(201,-132,cs),
(266,-198,o),
(304,-221,o),
(345,-221,cs)
);
},
{
closed = 1;
nodes = (
(256,-12,o),
(307,7,o),
(344,36,cs),
(444,113,o),
(531,284,o),
(531,410,cs),
(531,473,o),
(510,516,o),
(466,535,cs),
(458,539,o),
(450,540,o),
(446,540,cs),
(439,540,o),
(434,537,o),
(434,533,cs),
(434,531,o),
(435,529,o),
(439,524,cs),
(452,509,o),
(459,481,o),
(459,444,cs),
(459,298,o),
(306,25,o),
(214,25,cs),
(193,25,o),
(182,41,o),
(182,77,cs),
(182,180,o),
(287,410,o),
(353,491,cs),
(384,529,o),
(428,572,o),
(466,572,cs),
(477,572,o),
(486,569,o),
(494,564,cs),
(502,559,o),
(505,554,o),
(510,554,cs),
(515,554,o),
(519,561,o),
(519,571,cs),
(519,577,o),
(518,581,o),
(514,586,cs),
(501,600,o),
(469,610,o),
(424,610,cs),
(346,610,o),
(288,584,o),
(230,532,cs),
(126,438,o),
(61,277,o),
(61,139,cs),
(61,46,o),
(117,-12,o),
(207,-12,cs)
);
}
);
width = 491;
}
);
metricLeft = O;
metricRight = O;
note = Q;
unicode = 81;
}
{
color = 3;
glyphname = R;
kernLeft = _R;
kernRight = _R;
layers = (
{
anchors = (
{
name = bottom;
pos = (310,0);
},
{
name = top;
pos = (493,600);
}
);
background = {
anchors = (
{
name = bottom;
pos = (310,0);
},
{
name = top;
pos = (493,600);
}
);
shapes = (
{
closed = 1;
nodes = (
(563,-86,o),
(599,-10,o),
(587,-13,cs),
(538,-26,o),
(425,174,o),
(401,223,c),
(523,261,o),
(616,382,o),
(616,478,cs),
(616,556,o),
(553,614,o),
(419,614,cs),
(222,614,o),
(75,553,o),
(75,452,cs),
(75,417,o),
(132,405,o),
(140,404,c),
(163,526,o),
(321,583,o),
(409,583,cs),
(476,583,o),
(501,546,o),
(501,496,cs),
(501,394,o),
(399,241,o),
(337,241,cs),
(326,241,o),
(319,243,o),
(315,247,c),
(350,344,o),
(402,453,o),
(460,526,cs),
(466,533,o),
(449,538,o),
(403,538,cs),
(361,538,o),
(324,523,o),
(299,484,cs),
(279,451,o),
(153,205,o),
(153,70,cs),
(153,31,o),
(164,1,o),
(190,-12,cs),
(203,-18,o),
(226,-19,o),
(237,-24,cs),
(245,-27,o),
(248,-25,o),
(248,-21,cs),
(248,-19,o),
(248,-17,o),
(246,-15,cs),
(242,-10,o),
(240,-2,o),
(240,9,cs),
(240,50,o),
(267,132,o),
(303,219,c),
(306,215,o),
(310,212,o),
(315,209,c),
(325,144,o),
(376,-88,o),
(491,-87,cs)
);
}
);
};
layerId = "C623C401-2266-4A98-B253-3D45160C29C7";
shapes = (
{
closed = 1;
nodes = (
(312,225,l),
(325,144,o),
(373,-99,o),
(493,-97,cs),
(553,-96,o),
(590,-38,o),
(590,-25,cs),
(590,-23,o),
(589,-21,o),
(586,-21,cs),
(584,-21,o),
(582,-22,o),
(578,-22,cs),
(528,-22,o),
(411,197,o),
(397,229,c)
);
},
{
closed = 1;
nodes = (
(153,35,o),
(162,9,o),
(177,-2,cs),
(198,-19,o),
(233,-25,o),
(245,-25,cs),
(248,-25,o),
(250,-24,o),
(250,-21,cs),
(250,-19,o),
(248,-17,o),
(246,-14,cs),
(242,-8,o),
(240,0,o),
(240,9,cs),
(240,50,o),
(267,132,o),
(303,219,c),
(312,214,o),
(327,212,o),
(342,212,cs),
(462,212,o),
(616,347,o),
(616,478,cs),
(616,556,o),
(553,614,o),
(419,614,cs),
(211,614,o),
(75,535,o),
(75,458,cs),
(75,428,o),
(105,409,o),
(140,404,c),
(159,508,o),
(294,583,o),
(413,583,cs),
(470,583,o),
(501,549,o),
(501,496,cs),
(501,398,o),
(403,241,o),
(337,241,cs),
(326,241,o),
(319,243,o),
(315,247,c),
(350,344,o),
(394,439,o),
(456,521,cs),
(459,525,o),
(460,527,o),
(460,529,cs),
(460,531,o),
(458,533,o),
(447,535,cs),
(436,537,o),
(419,538,o),
(405,538,cs),
(357,538,o),
(319,522,o),
(290,469,cs),
(223,349,o),
(153,162,o),
(153,67,cs)
);
}
);
width = 566;
}
);
note = R;
unicode = 82;
}
{
color = 5;
glyphname = S;
kernLeft = _S;
kernRight = _S;
layers = (
{
anchors = (
{
name = bottom;
pos = (214,-12);
},
{
name = top;
pos = (415,600);
}
);
background = {
anchors = (
{
name = bottom;
pos = (243,0);
},
{
name = top;
pos = (243,633);
}
);
shapes = (
{
closed = 1;
nodes = (
(370,-24,o),
(446,29,o),
(446,115,cs),
(446,147,o),
(435,184,o),
(411,225,cs),
(371,290,o),
(315,357,o),
(315,426,cs),
(315,444,o),
(319,463,o),
(328,481,cs),
(353,531,o),
(381,545,o),
(404,545,cs),
(421,545,o),
(435,538,o),
(443,530,c),
(430,495,o),
(421,446,o),
(421,409,cs),
(421,377,o),
(427,354,o),
(442,354,cs),
(444,354,o),
(447,355,o),
(450,356,c),
(454,412,o),
(485,470,o),
(514,513,cs),
(529,535,o),
(548,557,o),
(575,583,cs),
(582,589,o),
(585,595,o),
(585,601,cs),
(585,613,o),
(571,621,o),
(551,621,cs),
(525,621,o),
(489,607,o),
(462,568,c),
(447,574,ls),
(414,587,o),
(373,590,o),
(343,590,cs),
(243,590,o),
(164,529,o),
(164,422,cs),
(164,377,o),
(185,333,o),
(212,292,cs),
(263,216,o),
(338,141,o),
(338,64,cs),
(338,23,o),
(318,6,o),
(289,6,cs),
(242,6,o),
(173,54,o),
(146,134,cs),
(131,179,o),
(120,233,o),
(120,270,cs),
(120,284,o),
(122,296,o),
(125,304,c),
(64,293,o),
(42,232,o),
(42,171,cs),
(42,135,o),
(49,100,o),
(61,75,cs),
(96,4,o),
(176,-24,o),
(254,-24,cs)
);
},
{
closed = 1;
nodes = (
(343,209,o),
(371,237,o),
(371,271,cs),
(371,305,o),
(343,333,o),
(309,333,cs),
(275,333,o),
(247,305,o),
(247,271,cs),
(247,237,o),
(275,209,o),
(309,209,cs)
);
}
);
};
layerId = "C623C401-2266-4A98-B253-3D45160C29C7";
shapes = (
{
closed = 1;
nodes = (
(377,-24,o),
(451,39,o),
(451,124,cs),
(451,178,o),
(418,222,o),
(385,272,cs),
(352,321,o),
(325,373,o),
(325,426,cs),
(325,484,o),
(371,545,o),
(414,545,cs),
(431,545,o),
(445,538,o),
(453,530,c),
(435,487,o),
(429,446,o),
(429,419,cs),
(429,369,o),
(440,354,o),
(452,354,cs),
(455,354,o),
(458,355,o),
(460,356,c),
(466,430,o),
(514,518,o),
(585,583,cs),
(593,591,o),
(595,595,o),
(595,601,cs),
(595,613,o),
(581,621,o),
(561,621,cs),
(535,621,o),
(498,607,o),
(471,568,c),
(447,581,o),
(400,590,o),
(361,590,cs),
(246,590,o),
(174,525,o),
(174,422,cs),
(174,358,o),
(215,299,o),
(257,242,cs),
(302,183,o),
(341,128,o),
(341,66,cs),
(341,30,o),
(322,8,o),
(289,8,cs),
(235,8,o),
(193,48,o),
(164,103,cs),
(140,149,o),
(126,203,o),
(126,254,cs),
(126,271,o),
(129,288,o),
(132,304,c),
(80,295,o),
(40,233,o),
(40,160,cs),
(40,40,o),
(129,-24,o),
(259,-24,cs)
);
}
);
width = 465;
}
);
note = S;
unicode = 83;
}
{
color = 3;
glyphname = T;
kernLeft = _T;
kernRight = _T;
layers = (
{
anchors = (
{
name = bottom;
pos = (204,8);
},
{
name = center;
pos = (290,340);
},
{
name = top;
pos = (412,604);
}
);
background = {
anchors = (
{
name = bottom;
pos = (194,4);
},
{
name = center;
pos = (292,350);
},
{
name = top;
pos = (412,604);
}
);
shapes = (
{
closed = 1;
nodes = (
(244,-23,o),
(247,-21,o),
(247,-17,cs),
(247,-15,o),
(247,-13,o),
(245,-11,cs),
(241,-6,o),
(239,3,o),
(239,15,cs),
(239,74,o),
(288,205,o),
(344,321,cs),
(386,407,o),
(431,483,o),
(463,533,c),
(544,535,o),
(617,528,o),
(627,512,cs),
(630,507,o),
(635,508,o),
(635,514,cs),
(635,516,ls),
(635,524,o),
(637,539,o),
(637,549,cs),
(637,604,o),
(521,619,o),
(412,619,cs),
(329,619,o),
(250,611,o),
(226,606,cs),
(129,587,o),
(95,531,o),
(95,480,cs),
(95,427,o),
(130,379,o),
(167,379,cs),
(170,379,o),
(173,379,o),
(176,380,cs),
(180,381,o),
(185,385,o),
(185,391,cs),
(185,395,o),
(183,399,o),
(177,404,cs),
(159,418,o),
(152,431,o),
(152,443,cs),
(152,485,o),
(249,509,o),
(316,520,c),
(278,455,o),
(146,205,o),
(146,72,cs),
(146,32,o),
(159,2,o),
(189,-8,cs),
(203,-12,o),
(225,-15,o),
(236,-20,cs)
);
}
);
};
layerId = "C623C401-2266-4A98-B253-3D45160C29C7";
shapes = (
{
closed = 1;
nodes = (
(504,533,o),
(528,530,cs),
(554,527,o),
(579,521,o),
(595,509,cs),
(599,506,o),
(600,505,o),
(602,505,cs),
(605,505,o),
(607,508,o),
(607,514,cs),
(607,520,o),
(607,540,o),
(607,549,cs),
(607,604,o),
(521,619,o),
(412,619,cs),
(329,619,o),
(250,611,o),
(226,606,cs),
(129,587,o),
(95,531,o),
(95,480,cs),
(95,427,o),
(130,379,o),
(167,379,cs),
(178,379,o),
(185,384,o),
(185,391,cs),
(185,395,o),
(183,399,o),
(177,404,cs),
(159,418,o),
(152,431,o),
(152,443,cs),
(152,478,o),
(215,507,o),
(316,520,c),
(297,488,o),
(256,412,o),
(219,322,cs),
(190,252,o),
(146,143,o),
(146,69,cs),
(146,48,o),
(151,14,o),
(171,0,cs),
(192,-15,o),
(231,-23,o),
(243,-23,cs),
(246,-23,o),
(248,-22,o),
(248,-19,cs),
(248,-17,o),
(246,-15,o),
(244,-12,cs),
(240,-6,o),
(238,2,o),
(238,11,cs),
(238,63,o),
(278,169,o),
(322,269,cs),
(369,376,o),
(426,477,o),
(463,533,c),
(480,533,o)
);
}
);
width = 442;
}
);
note = T;
unicode = 84;
}
{
color = 5;
glyphname = U;
kernLeft = _U;
kernRight = _U;
layers = (
{
anchors = (
{
name = bottom;
pos = (370,0);
},
{
name = ogonek;
pos = (566,10);
},
{
name = top;
pos = (645,600);
},
{
name = topright;
pos = (766,589);
}
);
background = {
anchors = (
{
name = bottom;
pos = (351,0);
},
{
name = ogonek;
pos = (585,10);
},
{
name = top;
pos = (351,633);
},
{
name = topright;
pos = (624,633);
}
);
shapes = (
{
closed = 1;
nodes = (
(548,-23,o),
(565,-20,o),
(585,-13,c),
(580,-7,o),
(578,4,o),
(578,20,cs),
(578,80,o),
(612,204,o),
(664,314,cs),
(703,396,o),
(754,505,o),
(807,578,cs),
(815,589,o),
(795,598,o),
(749,597,cs),
(684,594,o),
(669,586,o),
(632,523,cs),
(624,510,o),
(609,479,o),
(587,440,cs),
(539,355,o),
(448,202,o),
(419,161,cs),
(394,127,o),
(352,83,o),
(332,83,cs),
(326,83,o),
(322,88,o),
(322,100,cs),
(322,105,o),
(323,113,o),
(325,122,cs),
(355,254,o),
(446,384,o),
(529,491,cs),
(550,517,o),
(566,544,o),
(566,565,cs),
(566,569,o),
(565,573,o),
(564,576,cs),
(558,596,o),
(542,622,o),
(519,627,cs),
(447,641,o),
(250,499,o),
(185,499,cs),
(171,499,o),
(161,503,o),
(161,513,cs),
(161,516,o),
(162,519,o),
(164,523,cs),
(166,527,o),
(167,531,o),
(167,533,cs),
(167,537,o),
(165,539,o),
(161,539,cs),
(154,539,o),
(143,533,o),
(136,523,cs),
(110,483,o),
(90,438,o),
(90,408,cs),
(90,393,o),
(94,382,o),
(106,378,cs),
(116,374,o),
(126,373,o),
(136,373,cs),
(233,373,o),
(345,532,o),
(402,553,cs),
(408,555,o),
(411,552,o),
(411,547,cs),
(411,527,o),
(379,470,o),
(373,460,cs),
(289,327,o),
(217,199,o),
(200,125,cs),
(197,110,o),
(195,96,o),
(195,84,cs),
(195,35,o),
(220,5,o),
(261,-9,cs),
(270,-12,o),
(278,-14,o),
(287,-14,cs),
(328,-14,o),
(366,20,o),
(394,64,cs),
(411,91,o),
(454,161,o),
(496,232,c),
(485,201,o),
(476,170,o),
(469,140,cs),
(463,115,o),
(460,91,o),
(460,71,cs),
(460,15,o),
(482,-23,o),
(533,-23,cs)
);
},
{
closed = 1;
nodes = (
(659,317,o),
(687,345,o),
(687,379,cs),
(687,413,o),
(659,441,o),
(625,441,cs),
(591,441,o),
(563,413,o),
(563,379,cs),
(563,345,o),
(591,317,o),
(625,317,cs)
);
}
);
};
layerId = "C623C401-2266-4A98-B253-3D45160C29C7";
shapes = (
{
closed = 1;
nodes = (
(493,223,l),
(479,183,o),
(460,119,o),
(460,71,cs),
(460,15,o),
(482,-23,o),
(533,-23,cs),
(549,-23,o),
(563,-20,o),
(585,-13,c),
(581,-3,o),
(578,7,o),
(578,24,cs),
(578,80,o),
(612,204,o),
(664,314,cs),
(698,386,o),
(741,477,o),
(787,549,cs),
(799,567,o),
(808,578,o),
(808,583,cs),
(808,589,o),
(796,597,o),
(751,597,cs),
(687,597,o),
(665,580,o),
(632,523,cs),
(573,421,o),
(470,224,o),
(392,131,cs),
(370,104,o),
(347,83,o),
(333,83,cs),
(326,83,o),
(322,88,o),
(322,98,cs),
(322,135,o),
(353,221,o),
(395,295,cs),
(441,376,o),
(499,453,o),
(529,491,cs),
(550,517,o),
(566,544,o),
(566,565,cs),
(566,588,o),
(540,628,o),
(510,628,cs),
(463,628,o),
(388,588,o),
(319,553,cs),
(264,524,o),
(213,499,o),
(185,499,cs),
(170,499,o),
(161,504,o),
(161,513,cs),
(161,520,o),
(167,528,o),
(167,533,cs),
(167,537,o),
(164,539,o),
(159,539,cs),
(152,539,o),
(143,533,o),
(126,507,cs),
(109,481,o),
(90,435,o),
(90,408,cs),
(90,382,o),
(102,373,o),
(136,373,cs),
(175,373,o),
(227,399,o),
(306,475,cs),
(351,518,o),
(390,553,o),
(405,553,cs),
(409,553,o),
(411,550,o),
(411,546,cs),
(411,532,o),
(396,498,o),
(373,460,cs),
(316,368,o),
(289,322,o),
(266,278,cs),
(215,185,o),
(195,131,o),
(195,80,cs),
(195,24,o),
(240,-14,o),
(287,-14,cs),
(374,-14,o),
(451,155,o),
(491,224,c)
);
}
);
width = 674;
}
);
note = U;
unicode = 85;
}
{
color = 5;
glyphname = V;
kernLeft = _W;
layers = (
{
background = {
shapes = (
{
closed = 1;
nodes = (
(426,-14,o),
(595,246,o),
(636,363,cs),
(647,393,o),
(660,428,o),
(660,460,cs),
(660,490,o),
(648,518,o),
(614,539,cs),
(581,559,o),
(540,569,o),
(522,569,cs),
(515,569,o),
(510,566,o),
(510,562,cs),
(510,560,o),
(513,558,o),
(519,558,cs),
(533,557,o),
(545,513,o),
(545,481,cs),
(545,398,o),
(394,31,o),
(312,31,cs),
(298,31,o),
(293,45,o),
(293,66,cs),
(293,180,o),
(409,381,o),
(449,498,cs),
(452,507,o),
(454,516,o),
(454,525,cs),
(454,573,o),
(406,611,o),
(325,611,cs),
(292,611,o),
(233,583,o),
(191,541,cs),
(137,486,o),
(97,401,o),
(97,336,cs),
(97,304,o),
(106,278,o),
(128,261,cs),
(137,254,o),
(145,251,o),
(150,251,cs),
(156,251,o),
(159,254,o),
(159,259,cs),
(159,262,o),
(159,265,o),
(157,268,cs),
(153,276,o),
(151,286,o),
(151,297,cs),
(151,346,o),
(184,423,o),
(244,507,cs),
(272,547,o),
(306,570,o),
(322,570,cs),
(334,570,o),
(340,562,o),
(340,548,cs),
(340,538,o),
(337,526,o),
(331,512,cs),
(289,412,o),
(178,247,o),
(178,90,cs),
(178,24,o),
(213,-14,o),
(280,-14,cs)
);
}
);
};
layerId = "C623C401-2266-4A98-B253-3D45160C29C7";
shapes = (
{
closed = 1;
nodes = (
(452,576,o),
(401,611,o),
(333,611,cs),
(267,611,o),
(212,588,o),
(169,541,cs),
(119,485,o),
(85,418,o),
(85,350,cs),
(85,292,o),
(122,251,o),
(148,251,cs),
(154,251,o),
(157,254,o),
(157,259,cs),
(157,267,o),
(149,275,o),
(149,299,cs),
(149,351,o),
(185,415,o),
(204,449,cs),
(243,517,o),
(292,576,o),
(320,576,cs),
(332,576,o),
(338,568,o),
(338,554,cs),
(338,518,o),
(283,426,o),
(235,313,cs),
(205,243,o),
(177,152,o),
(177,105,cs),
(177,27,o),
(218,-14,o),
(298,-14,cs),
(434,-14,o),
(576,193,o),
(641,329,cs),
(665,379,o),
(679,435,o),
(679,467,cs),
(679,498,o),
(665,534,o),
(619,563,cs),
(595,578,o),
(559,589,o),
(531,589,cs),
(524,589,o),
(520,586,o),
(520,583,cs),
(520,580,o),
(522,578,o),
(527,577,cs),
(534,575,o),
(538,572,o),
(543,563,cs),
(550,551,o),
(555,529,o),
(555,506,cs),
(555,437,o),
(500,294,o),
(451,203,cs),
(382,76,o),
(340,31,o),
(312,31,cs),
(297,31,o),
(291,49,o),
(291,71,cs),
(291,115,o),
(313,187,o),
(348,269,cs),
(392,371,o),
(452,486,o),
(452,523,cs)
);
}
);
width = 619;
}
);
note = V;
unicode = 86;
}
{
color = 5;
glyphname = W;
kernLeft = _W;
kernRight = _W;
layers = (
{
anchors = (
{
name = bottom;
pos = (437,-11);
},
{
name = top;
pos = (674,562);
}
);
background = {
anchors = (
{
name = bottom;
pos = (437,0);
},
{
name = top;
pos = (437,633);
}
);
shapes = (
{
closed = 1;
nodes = (
(332,-14,o),
(386,41,o),
(431,115,c),
(432,33,o),
(475,-13,o),
(551,-13,cs),
(687,-13,o),
(829,211,o),
(891,373,cs),
(907,414,o),
(921,466,o),
(921,510,cs),
(921,563,o),
(900,606,o),
(838,606,cs),
(827,606,o),
(816,605,o),
(803,602,cs),
(794,601,o),
(788,594,o),
(788,590,cs),
(788,586,o),
(791,584,o),
(796,584,cs),
(808,584,o),
(813,571,o),
(813,550,cs),
(813,473,o),
(745,286,o),
(721,236,cs),
(669,127,o),
(606,28,o),
(558,28,cs),
(544,28,o),
(538,44,o),
(538,70,cs),
(538,163,o),
(619,393,o),
(713,517,cs),
(720,525,o),
(695,532,o),
(659,530,cs),
(607,529,o),
(591,538,o),
(556,486,cs),
(538,459,o),
(505,383,o),
(470,286,c),
(404,146,o),
(342,31,o),
(300,31,cs),
(286,31,o),
(281,45,o),
(281,66,cs),
(281,180,o),
(397,381,o),
(437,498,cs),
(440,507,o),
(442,517,o),
(442,525,cs),
(442,573,o),
(395,611,o),
(313,611,cs),
(280,611,o),
(221,583,o),
(179,541,cs),
(125,486,o),
(85,401,o),
(85,336,cs),
(85,304,o),
(94,278,o),
(116,261,cs),
(125,254,o),
(133,251,o),
(138,251,cs),
(144,251,o),
(147,254,o),
(147,259,cs),
(147,262,o),
(147,265,o),
(145,268,cs),
(141,276,o),
(139,286,o),
(139,297,cs),
(139,346,o),
(172,423,o),
(232,507,cs),
(260,547,o),
(295,570,o),
(311,570,cs),
(322,570,o),
(328,562,o),
(328,549,cs),
(328,539,o),
(325,526,o),
(319,512,cs),
(277,412,o),
(166,247,o),
(166,90,cs),
(166,24,o),
(201,-14,o),
(268,-14,cs)
);
}
);
};
layerId = "C623C401-2266-4A98-B253-3D45160C29C7";
shapes = (
{
closed = 1;
nodes = (
(342,31,o),
(301,31,cs),
(286,31,o),
(281,43,o),
(281,66,cs),
(281,113,o),
(303,187,o),
(338,269,cs),
(382,371,o),
(442,487,o),
(442,523,cs),
(442,577,o),
(386,611,o),
(323,611,cs),
(272,611,o),
(212,578,o),
(169,531,cs),
(119,475,o),
(85,396,o),
(85,338,cs),
(85,280,o),
(115,251,o),
(138,251,cs),
(144,251,o),
(147,254,o),
(147,259,cs),
(147,267,o),
(139,275,o),
(139,299,cs),
(139,351,o),
(175,415,o),
(194,449,cs),
(233,517,o),
(282,570,o),
(310,570,cs),
(322,570,o),
(328,562,o),
(328,548,cs),
(328,510,o),
(266,415,o),
(218,302,cs),
(188,232,o),
(166,159,o),
(166,92,cs),
(166,18,o),
(205,-14,o),
(269,-14,cs),
(330,-14,o),
(382,36,o),
(431,115,c),
(432,33,o),
(475,-13,o),
(551,-13,cs),
(687,-13,o),
(829,211,o),
(891,373,cs),
(907,414,o),
(921,466,o),
(921,510,cs),
(921,575,o),
(890,606,o),
(838,606,cs),
(801,606,o),
(788,598,o),
(788,590,cs),
(788,586,o),
(791,584,o),
(796,584,cs),
(809,584,o),
(813,575,o),
(813,550,cs),
(813,473,o),
(745,286,o),
(721,236,cs),
(669,127,o),
(606,28,o),
(561,28,cs),
(544,28,o),
(538,44,o),
(538,70,cs),
(538,126,o),
(568,231,o),
(610,332,cs),
(637,396,o),
(668,456,o),
(704,505,cs),
(710,513,o),
(714,517,o),
(714,520,cs),
(714,527,o),
(691,532,o),
(659,532,cs),
(595,532,o),
(582,526,o),
(556,486,cs),
(530,444,o),
(495,340,o),
(470,287,cs),
(404,146,o)
);
}
);
width = 851;
}
);
note = W;
unicode = 87;
}
{
color = 5;
glyphname = X;
layers = (
{
background = {
shapes = (
{
closed = 1;
nodes = (
(21,-10,o),
(28,-10,o),
(34,-8,cs),
(61,0,o),
(155,113,o),
(212,192,c),
(223,80,o),
(255,-3,o),
(324,-3,cs),
(372,-3,o),
(412,41,o),
(444,85,cs),
(462,110,o),
(468,126,o),
(468,134,cs),
(468,138,o),
(466,140,o),
(463,140,cs),
(458,140,o),
(451,135,o),
(445,127,cs),
(426,102,o),
(410,92,o),
(396,92,cs),
(378,92,o),
(365,109,o),
(355,132,cs),
(342,164,o),
(336,220,o),
(335,280,c),
(442,393,o),
(536,501,o),
(558,560,cs),
(560,566,o),
(561,572,o),
(561,578,cs),
(561,604,o),
(540,623,o),
(526,623,cs),
(521,623,o),
(517,621,o),
(515,616,cs),
(479,526,o),
(400,411,o),
(335,333,c),
(336,400,o),
(341,463,o),
(345,494,cs),
(346,505,o),
(350,522,o),
(350,538,cs),
(350,558,o),
(345,576,o),
(323,576,cs),
(303,576,o),
(271,558,o),
(222,514,c),
(201,454,o),
(165,339,o),
(63,264,cs),
(58,261,o),
(56,257,o),
(56,253,cs),
(56,245,o),
(63,239,o),
(72,239,cs),
(76,239,o),
(80,240,o),
(84,243,cs),
(140,280,o),
(180,319,o),
(209,360,c),
(208,332,o),
(208,305,o),
(208,279,cs),
(208,247,l),
(133,149,o),
(18,43,o),
(-19,20,cs),
(-27,15,o),
(-30,11,o),
(-30,7,cs),
(-30,-4,o),
(-7,-10,o),
(14,-10,cs)
);
}
);
};
layerId = "C623C401-2266-4A98-B253-3D45160C29C7";
shapes = (
{
closed = 1;
nodes = (
(21,-20,o),
(29,-19,o),
(35,-17,cs),
(41,-15,o),
(51,-8,o),
(64,4,cs),
(104,42,o),
(169,122,o),
(212,182,c),
(223,70,o),
(255,-13,o),
(324,-13,cs),
(372,-13,o),
(412,31,o),
(444,75,cs),
(462,100,o),
(468,116,o),
(468,124,cs),
(468,129,o),
(466,133,o),
(462,133,cs),
(458,133,o),
(455,129,o),
(449,122,cs),
(426,95,o),
(410,85,o),
(396,85,cs),
(378,85,o),
(365,99,o),
(355,122,cs),
(342,154,o),
(336,210,o),
(335,270,c),
(442,383,o),
(536,491,o),
(558,550,cs),
(560,556,o),
(561,562,o),
(561,568,cs),
(561,594,o),
(539,614,o),
(525,614,cs),
(520,614,o),
(517,611,o),
(515,606,cs),
(478,514,o),
(400,401,o),
(335,323,c),
(336,390,o),
(340,450,o),
(344,481,cs),
(345,492,o),
(350,526,o),
(350,541,cs),
(350,564,o),
(341,576,o),
(323,576,cs),
(303,576,o),
(271,558,o),
(222,514,c),
(201,454,o),
(165,339,o),
(63,264,cs),
(58,261,o),
(56,257,o),
(56,253,cs),
(56,245,o),
(62,239,o),
(72,239,cs),
(84,239,o),
(107,258,o),
(135,281,cs),
(165,306,o),
(193,335,o),
(209,360,c),
(208,332,o),
(208,305,o),
(208,269,cs),
(208,237,l),
(149,160,o),
(63,74,o),
(-4,21,cs),
(-19,9,o),
(-30,4,o),
(-30,-3,cs),
(-30,-14,o),
(-7,-20,o),
(14,-20,cs)
);
}
);
width = 466;
}
);
note = X;
unicode = 88;
}
{
color = 5;
glyphname = Y;
kernLeft = _Y;
kernRight = _Y;
layers = (
{
anchors = (
{
name = bottom;
pos = (655,-20);
},
{
name = top;
pos = (645,580);
},
{
name = topleft;
pos = (67,580);
}
);
background = {
anchors = (
{
name = bottom;
pos = (350,0);
},
{
name = top;
pos = (350,633);
},
{
name = topleft;
pos = (67,633);
}
);
shapes = (
{
closed = 1;
nodes = (
(454,-206,o),
(531,-50,o),
(583,68,cs),
(610,130,o),
(774,559,o),
(817,581,cs),
(823,584,o),
(826,588,o),
(826,591,cs),
(826,594,o),
(823,596,o),
(818,596,cs),
(709,596,ls),
(670,596,o),
(661,560,o),
(640,506,cs),
(607,418,o),
(431,127,o),
(385,93,cs),
(374,85,o),
(362,78,o),
(353,78,cs),
(345,78,o),
(339,83,o),
(339,97,cs),
(339,107,o),
(342,121,o),
(349,141,cs),
(364,184,o),
(391,243,o),
(418,302,cs),
(437,346,o),
(497,450,o),
(530,504,cs),
(545,530,o),
(555,548,o),
(555,566,cs),
(555,576,o),
(552,587,o),
(544,599,cs),
(535,612,o),
(523,624,o),
(510,627,cs),
(437,641,o),
(244,499,o),
(173,499,cs),
(162,499,o),
(151,502,o),
(151,511,cs),
(151,514,o),
(153,518,o),
(155,523,cs),
(157,526,o),
(158,529,o),
(158,531,cs),
(158,536,o),
(155,538,o),
(150,538,cs),
(144,538,o),
(134,534,o),
(127,523,cs),
(100,484,o),
(80,438,o),
(80,408,cs),
(80,393,o),
(85,382,o),
(97,378,cs),
(107,374,o),
(117,373,o),
(127,373,cs),
(224,373,o),
(336,532,o),
(393,553,cs),
(398,555,o),
(400,552,o),
(400,547,cs),
(400,507,o),
(291,303,o),
(245,201,cs),
(225,155,o),
(214,115,o),
(214,82,cs),
(214,30,o),
(241,-2,o),
(293,-12,cs),
(297,-13,o),
(301,-13,o),
(306,-13,cs),
(358,-13,o),
(405,48,o),
(446,119,cs),
(459,143,o),
(500,203,o),
(540,262,c),
(525,229,o),
(510,196,o),
(494,163,cs),
(456,79,o),
(385,-168,o),
(270,-168,cs),
(258,-168,o),
(246,-165,o),
(234,-160,cs),
(231,-159,o),
(228,-158,o),
(225,-158,cs),
(217,-158,o),
(213,-163,o),
(213,-169,cs),
(213,-173,o),
(215,-178,o),
(220,-182,cs),
(246,-203,o),
(274,-206,o),
(300,-206,cs)
);
}
);
};
layerId = "C623C401-2266-4A98-B253-3D45160C29C7";
shapes = (
{
closed = 1;
nodes = (
(534,229,l),
(505,165,o),
(424,-55,o),
(368,-126,cs),
(336,-166,o),
(306,-188,o),
(270,-188,cs),
(245,-188,o),
(235,-178,o),
(224,-178,cs),
(218,-178,o),
(213,-182,o),
(213,-189,cs),
(213,-207,o),
(253,-226,o),
(296,-226,cs),
(404,-226,o),
(487,-158,o),
(560,-2,cs),
(616,118,o),
(700,344,o),
(757,463,cs),
(779,507,o),
(799,546,o),
(815,560,cs),
(822,566,o),
(826,568,o),
(826,571,cs),
(826,574,o),
(824,576,o),
(817,576,cs),
(717,576,ls),
(682,576,o),
(672,569,o),
(652,517,cs),
(607,398,o),
(477,182,o),
(409,99,cs),
(387,72,o),
(367,58,o),
(353,58,cs),
(346,58,o),
(339,64,o),
(339,74,cs),
(339,144,o),
(477,398,o),
(512,456,cs),
(529,485,o),
(556,524,o),
(556,545,cs),
(556,568,o),
(530,608,o),
(500,608,cs),
(453,608,o),
(378,568,o),
(309,533,cs),
(254,504,o),
(203,479,o),
(175,479,cs),
(160,479,o),
(151,484,o),
(151,493,cs),
(151,500,o),
(157,508,o),
(157,513,cs),
(157,517,o),
(154,519,o),
(149,519,cs),
(142,519,o),
(133,513,o),
(116,487,cs),
(99,461,o),
(80,415,o),
(80,388,cs),
(80,362,o),
(92,353,o),
(126,353,cs),
(165,353,o),
(217,379,o),
(296,455,cs),
(341,498,o),
(380,533,o),
(395,533,cs),
(399,533,o),
(401,530,o),
(401,526,cs),
(401,496,o),
(337,369,o),
(295,287,cs),
(246,192,o),
(213,112,o),
(213,61,cs),
(213,5,o),
(258,-33,o),
(305,-33,cs),
(388,-33,o),
(441,91,o),
(533,230,c)
);
}
);
width = 691;
}
);
note = Y;
unicode = 89;
}
{
color = 3;
glyphname = Z;
kernLeft = _Z;
kernRight = _Z;
layers = (
{
anchors = (
{
name = bottom;
pos = (190,17);
},
{
name = center;
pos = (270,358);
},
{
name = top;
pos = (364,587);
}
);
background = {
anchors = (
{
name = bottom;
pos = (190,17);
},
{
name = center;
pos = (270,358);
},
{
name = top;
pos = (364,587);
}
);
};
layerId = "C623C401-2266-4A98-B253-3D45160C29C7";
shapes = (
{
closed = 1;
nodes = (
(271,-136,o),
(400,48,o),
(400,173,cs),
(400,253,o),
(353,279,o),
(295,279,cs),
(276,279,o),
(255,276,o),
(234,271,c),
(285,336,o),
(449,449,o),
(495,524,cs),
(508,545,o),
(515,575,o),
(515,605,cs),
(515,615,o),
(510,618,o),
(505,618,cs),
(499,618,o),
(497,615,o),
(493,607,cs),
(477,576,o),
(436,570,o),
(403,570,cs),
(349,571,o),
(290,599,o),
(259,599,cs),
(229,599,o),
(196,567,o),
(174,537,cs),
(154,509,o),
(117,461,o),
(117,435,cs),
(117,429,o),
(120,425,o),
(125,425,cs),
(129,425,o),
(132,427,o),
(136,431,cs),
(170,465,o),
(210,487,o),
(242,487,cs),
(270,488,o),
(320,474,o),
(347,461,c),
(303,401,o),
(162,253,o),
(161,238,cs),
(160,225,o),
(184,208,o),
(200,208,cs),
(214,208,o),
(241,245,o),
(262,245,cs),
(273,245,o),
(278,233,o),
(278,216,cs),
(278,120,o),
(138,-90,o),
(35,-90,cs),
(17,-90,o),
(7,-83,o),
(7,-68,cs),
(7,-30,o),
(69,42,o),
(147,91,cs),
(162,100,o),
(170,107,o),
(170,113,cs),
(170,117,o),
(167,120,o),
(161,120,cs),
(133,120,o),
(58,80,o),
(8,36,cs),
(-17,14,o),
(-40,-22,o),
(-40,-50,cs),
(-40,-100,o),
(22,-136,o),
(81,-136,cs)
);
}
);
width = 410;
}
);
note = Z;
unicode = 90;
}
{
color = 4;
glyphname = bracketleft;
layers = (
{
background = {
shapes = (
{
closed = 1;
nodes = (
(262,-28,ls),
(269,-28,o),
(295,39,o),
(288,39,cs),
(128,39,l),
(182,202,o),
(291,414,o),
(381,564,c),
(410,564,o),
(473,562,o),
(510,562,cs),
(517,562,o),
(549,623,o),
(542,623,cs),
(293,623,l),
(250,563,o),
(52,168,o),
(21,56,cs),
(15,35,o),
(12,19,o),
(12,6,cs),
(12,-20,o),
(29,-28,o),
(76,-28,cs)
);
}
);
};
layerId = "C623C401-2266-4A98-B253-3D45160C29C7";
shapes = (
{
closed = 1;
nodes = (
(411,551,o),
(477,552,o),
(500,554,cs),
(506,555,o),
(508,556,o),
(511,559,cs),
(520,568,o),
(533,598,o),
(533,610,cs),
(533,616,o),
(530,618,o),
(523,619,cs),
(503,622,o),
(447,624,o),
(409,624,cs),
(375,624,o),
(344,626,o),
(312,621,cs),
(288,617,o),
(277,600,o),
(264,576,cs),
(220,494,o),
(91,240,o),
(47,128,cs),
(31,87,o),
(11,27,o),
(11,12,cs),
(11,-16,o),
(29,-25,o),
(60,-28,cs),
(91,-31,o),
(119,-31,o),
(153,-31,cs),
(191,-31,o),
(231,-30,o),
(254,-28,cs),
(260,-27,o),
(262,-26,o),
(265,-23,cs),
(274,-14,o),
(287,16,o),
(287,28,cs),
(287,34,o),
(284,36,o),
(277,37,cs),
(257,40,o),
(220,42,o),
(182,42,cs),
(163,42,o),
(139,42,o),
(128,41,c),
(175,192,o),
(323,470,o),
(373,551,c)
);
}
);
width = 426;
}
);
note = bracketleft;
unicode = 91;
}
{
glyphname = backslash;
layers = (
{
background = {
shapes = (
{
closed = 1;
nodes = (
(412,0,l),
(118,632,l),
(39,632,l),
(332,0,l)
);
}
);
};
guides = (
{
pos = (12,691);
}
);
layerId = "C623C401-2266-4A98-B253-3D45160C29C7";
shapes = (
{
closed = 1;
nodes = (
(410,-56,o),
(434,-51,o),
(434,-42,cs),
(434,-39,o),
(428,-28,o),
(419,-9,cs),
(363,109,o),
(142,590,o),
(100,664,cs),
(89,683,o),
(78,691,o),
(51,691,cs),
(27,691,o),
(21,687,o),
(21,679,cs),
(21,674,o),
(22,668,o),
(29,654,cs),
(118,463,o),
(240,201,o),
(353,-41,cs),
(358,-51,o),
(368,-56,o),
(385,-56,cs)
);
}
);
width = 372;
}
);
note = backslash;
unicode = 92;
}
{
color = 4;
glyphname = bracketright;
layers = (
{
background = {
shapes = (
{
closed = 1;
nodes = (
(259,-28,l),
(302,32,o),
(500,427,o),
(531,539,cs),
(537,560,o),
(540,576,o),
(540,589,cs),
(540,615,o),
(523,623,o),
(476,623,cs),
(290,623,ls),
(283,623,o),
(257,556,o),
(264,556,cs),
(424,556,l),
(370,393,o),
(261,181,o),
(171,31,c),
(142,31,o),
(79,33,o),
(42,33,cs),
(35,33,o),
(3,-28,o),
(10,-28,cs)
);
}
);
};
layerId = "C623C401-2266-4A98-B253-3D45160C29C7";
shapes = (
{
closed = 1;
nodes = (
(331,98,o),
(459,353,o),
(503,465,cs),
(519,506,o),
(539,566,o),
(539,581,cs),
(539,609,o),
(521,618,o),
(490,621,cs),
(459,624,o),
(431,624,o),
(397,624,cs),
(359,624,o),
(319,623,o),
(296,621,cs),
(290,620,o),
(288,619,o),
(285,616,cs),
(276,607,o),
(263,577,o),
(263,565,cs),
(263,559,o),
(266,557,o),
(273,556,cs),
(293,553,o),
(330,551,o),
(368,551,cs),
(387,551,o),
(411,551,o),
(422,552,c),
(375,401,o),
(238,137,o),
(177,42,c),
(139,42,o),
(73,41,o),
(50,39,cs),
(44,38,o),
(42,37,o),
(39,34,cs),
(30,25,o),
(17,-5,o),
(17,-17,cs),
(17,-23,o),
(20,-25,o),
(27,-26,cs),
(47,-29,o),
(103,-31,o),
(141,-31,cs),
(175,-31,o),
(206,-33,o),
(238,-28,cs),
(262,-24,o),
(273,-7,o),
(286,17,cs)
);
}
);
width = 497;
}
);
note = bracketright;
unicode = 93;
}
{
glyphname = asciicircum;
layers = (
{
background = {
shapes = (
{
closed = 1;
nodes = (
(207,491,o),
(223,493,o),
(225,496,cs),
(327,617,l),
(366,497,ls),
(367,493,o),
(388,491,o),
(406,491,cs),
(422,491,o),
(437,493,o),
(435,497,cs),
(362,655,l),
(358,660,o),
(351,661,o),
(344,661,cs),
(332,661,o),
(319,657,o),
(312,653,c),
(154,498,ls),
(150,494,o),
(170,491,o),
(190,491,cs)
);
}
);
};
layerId = "C623C401-2266-4A98-B253-3D45160C29C7";
shapes = (
{
closed = 1;
nodes = (
(198,490,o),
(203,490,o),
(213,491,cs),
(220,492,o),
(224,495,o),
(231,502,cs),
(323,600,l),
(364,503,ls),
(367,496,o),
(370,494,o),
(376,492,cs),
(380,491,o),
(393,489,o),
(405,489,cs),
(420,490,o),
(434,491,o),
(434,496,cs),
(434,498,o),
(431,504,o),
(427,512,cs),
(361,632,ls),
(355,642,o),
(352,644,o),
(340,644,cs),
(328,644,o),
(313,640,o),
(305,633,cs),
(159,502,ls),
(157,500,o),
(155,498,o),
(155,496,cs),
(155,494,o),
(157,493,o),
(162,492,cs),
(166,491,o),
(178,490,o),
(190,490,cs)
);
}
);
width = 445;
}
);
note = asciicircum;
unicode = 94;
}
{
color = 4;
glyphname = underscore;
layers = (
{
background = {
shapes = (
{
closed = 1;
nodes = (
(494,-139,ls),
(500,-139,o),
(519,-115,o),
(519,-102,cs),
(519,-97,o),
(517,-94,o),
(510,-94,cs),
(1,-94,ls),
(-12,-94,o),
(-43,-139,o),
(-26,-139,cs)
);
}
);
};
layerId = "C623C401-2266-4A98-B253-3D45160C29C7";
shapes = (
{
closed = 1;
nodes = (
(32,-139,o),
(433,-139,o),
(491,-139,cs),
(496,-139,o),
(498,-138,o),
(501,-135,cs),
(510,-126,o),
(520,-108,o),
(520,-101,cs),
(520,-97,o),
(518,-94,o),
(511,-94,cs),
(458,-94,o),
(60,-94,o),
(6,-94,cs),
(-3,-94,o),
(-6,-96,o),
(-13,-103,cs),
(-24,-114,o),
(-31,-127,o),
(-31,-134,cs),
(-31,-137,o),
(-30,-139,o),
(-25,-139,cs)
);
}
);
width = 510;
}
);
note = underscore;
unicode = 95;
}
{
color = 3;
glyphname = a;
kernLeft = _o;
kernRight = _a;
layers = (
{
anchors = (
{
name = bottom;
pos = (212,0);
},
{
name = ogonek;
pos = (353,10);
},
{
name = top;
pos = (345,425);
}
);
background = {
anchors = (
{
name = bottom;
pos = (212,0);
},
{
name = ogonek;
pos = (353,10);
},
{
name = top;
pos = (345,425);
}
);
};
layerId = "C623C401-2266-4A98-B253-3D45160C29C7";
shapes = (
{
closed = 1;
nodes = (
(142,45,o),
(139,52,o),
(139,61,cs),
(139,120,o),
(259,357,o),
(303,394,cs),
(312,402,o),
(324,408,o),
(332,408,cs),
(336,408,o),
(338,406,o),
(338,402,cs),
(338,384,o),
(282,263,o),
(256,199,cs),
(216,99,o),
(167,45,o),
(150,45,cs)
);
},
{
closed = 1;
nodes = (
(219,428,o),
(152,383,o),
(97,282,cs),
(76,244,o),
(25,145,o),
(25,73,cs),
(25,28,o),
(47,-6,o),
(113,-6,cs),
(135,-6,o),
(151,-1,o),
(167,13,cs),
(194,37,o),
(212,70,o),
(239,119,c),
(237,108,o),
(236,97,o),
(236,86,cs),
(236,35,o),
(262,-6,o),
(321,-6,cs),
(362,-6,o),
(394,14,o),
(426,55,cs),
(462,102,o),
(495,165,o),
(513,201,cs),
(515,205,o),
(516,208,o),
(516,211,cs),
(516,217,o),
(509,227,o),
(502,227,cs),
(498,227,o),
(495,224,o),
(493,220,cs),
(483,201,o),
(454,144,o),
(425,101,cs),
(403,69,o),
(377,40,o),
(360,40,cs),
(350,40,o),
(344,48,o),
(344,65,cs),
(344,94,o),
(364,162,o),
(392,229,cs),
(430,319,o),
(469,398,o),
(501,414,cs),
(505,416,o),
(507,418,o),
(507,421,cs),
(507,425,o),
(504,427,o),
(497,427,cs),
(485,427,o),
(460,422,o),
(412,422,cs),
(382,422,o),
(345,428,o),
(310,428,cs)
);
}
);
width = 426;
}
);
metricRight = n;
note = a;
unicode = 97;
}
{
glyphname = b;
kernLeft = _o;
kernRight = _o;
layers = (
{
background = {
shapes = (
{
closed = 1;
nodes = (
(239,-9,o),
(285,31,o),
(320,86,c),
(327,67,o),
(343,53,o),
(363,53,cs),
(374,53,o),
(386,58,o),
(398,68,cs),
(436,99,o),
(468,170,o),
(486,204,cs),
(491,214,o),
(482,222,o),
(473,222,cs),
(469,222,o),
(464,220,o),
(462,215,cs),
(452,196,o),
(425,138,o),
(398,104,cs),
(386,88,o),
(374,78,o),
(364,78,cs),
(348,78,o),
(341,94,o),
(341,111,cs),
(341,118,o),
(342,124,o),
(344,130,c),
(362,166,ls),
(396,234,o),
(426,320,o),
(426,371,cs),
(426,389,o),
(422,403,o),
(412,410,cs),
(398,419,o),
(378,425,o),
(360,425,cs),
(349,425,o),
(339,422,o),
(332,417,cs),
(282,379,o),
(240,318,o),
(182,237,c),
(225,338,o),
(317,475,o),
(365,524,cs),
(373,532,o),
(385,539,o),
(390,539,cs),
(396,539,o),
(400,542,o),
(400,545,cs),
(400,550,o),
(393,557,o),
(377,563,cs),
(363,568,o),
(350,570,o),
(338,570,cs),
(265,570,o),
(211,500,o),
(172,444,cs),
(145,405,o),
(30,207,o),
(30,89,cs),
(30,69,o),
(33,51,o),
(41,37,cs),
(61,0,o),
(109,-9,o),
(155,-9,cs)
);
},
{
closed = 1;
nodes = (
(129,32,o),
(125,38,o),
(125,48,cs),
(125,100,o),
(224,261,o),
(232,271,cs),
(255,303,o),
(278,331,o),
(295,350,c),
(303,275,o),
(185,32,o),
(138,32,cs)
);
},
{
closed = 1;
nodes = (
(359,173,o),
(385,199,o),
(385,230,cs),
(385,261,o),
(359,287,o),
(328,287,cs),
(297,287,o),
(271,261,o),
(271,230,cs),
(271,199,o),
(297,173,o),
(328,173,cs)
);
}
);
};
layerId = "C623C401-2266-4A98-B253-3D45160C29C7";
shapes = (
{
closed = 1;
nodes = (
(129,32,o),
(125,38,o),
(125,48,cs),
(125,100,o),
(224,261,o),
(232,271,cs),
(255,303,o),
(278,331,o),
(295,350,c),
(303,275,o),
(185,32,o),
(138,32,cs)
);
},
{
closed = 1;
nodes = (
(185,244,l),
(229,345,o),
(318,476,o),
(365,524,cs),
(373,532,o),
(382,539,o),
(391,539,cs),
(397,539,o),
(400,541,o),
(400,545,cs),
(400,550,o),
(393,557,o),
(377,563,cs),
(363,568,o),
(350,570,o),
(338,570,cs),
(265,570,o),
(211,500,o),
(172,444,cs),
(145,405,o),
(30,207,o),
(30,89,cs),
(30,17,o),
(74,-9,o),
(155,-9,cs),
(237,-9,o),
(284,29,o),
(319,84,c),
(326,64,o),
(344,53,o),
(364,53,cs),
(394,53,o),
(419,80,o),
(441,119,cs),
(459,150,o),
(474,180,o),
(485,201,cs),
(487,205,o),
(488,208,o),
(488,211,cs),
(488,217,o),
(481,227,o),
(474,227,cs),
(470,227,o),
(467,224,o),
(465,220,cs),
(455,201,o),
(427,144,o),
(402,108,cs),
(388,88,o),
(377,80,o),
(365,80,cs),
(353,80,o),
(343,92,o),
(343,109,cs),
(343,122,o),
(346,133,o),
(359,159,cs),
(395,231,o),
(426,320,o),
(426,371,cs),
(426,389,o),
(422,403,o),
(412,410,cs),
(398,419,o),
(378,425,o),
(360,425,cs),
(349,425,o),
(339,422,o),
(332,417,cs),
(283,380,o),
(242,321,o),
(186,243,c)
);
}
);
width = 398;
}
);
metricLeft = o;
metricRight = n;
note = b;
unicode = 98;
}
{
color = 3;
glyphname = c;
kernLeft = _o;
kernRight = _e;
layers = (
{
anchors = (
{
name = bottom;
pos = (165,0);
},
{
name = top;
pos = (315,425);
}
);
background = {
anchors = (
{
name = bottom;
pos = (165,0);
},
{
name = top;
pos = (315,425);
}
);
};
layerId = "C623C401-2266-4A98-B253-3D45160C29C7";
shapes = (
{
closed = 1;
nodes = (
(251,-16,o),
(305,21,o),
(348,76,cs),
(376,112,o),
(400,155,o),
(423,201,cs),
(425,205,o),
(426,208,o),
(426,211,cs),
(426,217,o),
(419,227,o),
(412,227,cs),
(408,227,o),
(405,224,o),
(403,220,cs),
(373,159,o),
(341,107,o),
(307,72,cs),
(277,42,o),
(246,24,o),
(213,24,cs),
(169,24,o),
(155,52,o),
(155,88,cs),
(155,167,o),
(228,325,o),
(281,384,cs),
(290,395,o),
(300,401,o),
(307,401,cs),
(317,401,o),
(322,392,o),
(322,383,cs),
(322,351,o),
(276,265,o),
(259,238,c),
(265,233,o),
(275,228,o),
(289,228,cs),
(343,228,o),
(395,311,o),
(395,365,cs),
(395,410,o),
(357,434,o),
(292,433,cs),
(245,432,o),
(209,413,o),
(175,384,cs),
(101,319,o),
(40,195,o),
(40,103,cs),
(40,23,o),
(99,-16,o),
(173,-16,cs)
);
}
);
width = 336;
}
);
metricRight = o;
note = c;
unicode = 99;
}
{
color = 3;
glyphname = d;
kernLeft = _o;
kernRight = _d;
layers = (
{
anchors = (
{
name = bottom;
pos = (211,0);
},
{
name = center;
pos = (421,478);
},
{
name = top;
pos = (211,545);
},
{
name = topright;
pos = (557,530);
}
);
background = {
anchors = (
{
name = bottom;
pos = (211,0);
},
{
name = center;
pos = (421,478);
},
{
name = top;
pos = (211,545);
},
{
name = topright;
pos = (557,530);
}
);
};
layerId = "C623C401-2266-4A98-B253-3D45160C29C7";
shapes = (
{
closed = 1;
nodes = (
(143,43,o),
(139,49,o),
(139,66,cs),
(139,113,o),
(162,186,o),
(193,252,cs),
(221,314,o),
(255,364,o),
(281,388,cs),
(292,398,o),
(306,402,o),
(313,402,cs),
(321,402,o),
(326,400,o),
(326,393,cs),
(326,388,o),
(323,382,o),
(317,367,cs),
(288,294,o),
(222,144,o),
(213,125,cs),
(193,83,o),
(163,43,o),
(149,43,cs)
);
},
{
closed = 1;
nodes = (
(486,553,o),
(468,549,o),
(451,540,cs),
(420,524,o),
(383,478,o),
(351,420,c),
(334,425,o),
(303,432,o),
(279,432,cs),
(211,432,o),
(147,395,o),
(85,278,cs),
(53,215,o),
(30,159,o),
(30,99,cs),
(30,32,o),
(58,-6,o),
(109,-6,cs),
(166,-6,o),
(210,67,o),
(230,108,c),
(225,49,o),
(253,-7,o),
(314,-7,cs),
(355,-7,o),
(392,21,o),
(416,53,cs),
(453,100,o),
(485,165,o),
(503,201,cs),
(505,205,o),
(506,208,o),
(506,211,cs),
(506,217,o),
(499,227,o),
(492,227,cs),
(488,227,o),
(485,224,o),
(483,220,cs),
(473,201,o),
(444,144,o),
(415,101,cs),
(392,68,o),
(372,40,o),
(354,40,cs),
(342,40,o),
(337,54,o),
(337,75,cs),
(337,155,o),
(446,408,o),
(525,495,cs),
(541,513,o),
(556,524,o),
(569,524,cs),
(575,524,o),
(578,526,o),
(578,530,cs),
(578,541,o),
(551,553,o),
(512,553,cs)
);
}
);
width = 416;
}
);
metricLeft = o;
note = d;
unicode = 100;
}
{
color = 3;
glyphname = e;
kernLeft = _o;
kernRight = _e;
layers = (
{
anchors = (
{
name = bottom;
pos = (167,0);
},
{
name = ogonek;
pos = (264,10);
},
{
name = top;
pos = (300,425);
}
);
background = {
anchors = (
{
name = bottom;
pos = (167,0);
},
{
name = ogonek;
pos = (264,10);
},
{
name = top;
pos = (300,425);
}
);
};
layerId = "C623C401-2266-4A98-B253-3D45160C29C7";
shapes = (
{
closed = 1;
nodes = (
(204,251,o),
(245,344,o),
(278,382,cs),
(286,392,o),
(293,396,o),
(299,396,cs),
(306,396,o),
(311,389,o),
(311,376,cs),
(311,327,o),
(262,230,o),
(183,201,c)
);
},
{
closed = 1;
nodes = (
(242,-15,o),
(288,11,o),
(324,50,cs),
(363,91,o),
(392,147,o),
(419,201,cs),
(421,205,o),
(422,208,o),
(422,211,cs),
(422,217,o),
(415,227,o),
(408,227,cs),
(404,227,o),
(401,224,o),
(399,220,cs),
(371,167,o),
(343,108,o),
(303,68,cs),
(276,42,o),
(244,24,o),
(203,24,cs),
(173,24,o),
(151,42,o),
(151,86,cs),
(151,114,o),
(158,139,o),
(170,172,c),
(259,179,o),
(335,229,o),
(373,301,cs),
(387,327,o),
(394,348,o),
(394,366,cs),
(394,406,o),
(360,429,o),
(294,432,cs),
(290,432,o),
(282,432,o),
(278,432,cs),
(160,432,o),
(40,234,o),
(40,105,cs),
(40,26,o),
(89,-15,o),
(178,-15,cs)
);
}
);
width = 332;
}
);
metricRight = o;
note = e;
unicode = 101;
}
{
glyphname = f;
kernLeft = _f;
kernRight = _f;
layers = (
{
background = {
shapes = (
{
closed = 1;
nodes = (
(94,-112,o),
(103,-111,o),
(114,-109,cs),
(198,-94,o),
(245,49,o),
(245,164,cs),
(245,213,o),
(236,258,o),
(218,285,c),
(242,331,l),
(344,331,ls),
(349,331,o),
(356,345,o),
(356,351,cs),
(356,353,o),
(356,354,o),
(354,354,cs),
(254,354,l),
(289,417,o),
(322,467,o),
(339,486,cs),
(356,506,o),
(386,522,o),
(386,533,cs),
(386,542,o),
(368,547,o),
(311,547,cs),
(249,547,o),
(222,524,o),
(189,472,cs),
(170,443,o),
(147,401,o),
(123,354,c),
(106,354,ls),
(96,354,o),
(88,343,o),
(88,337,cs),
(88,333,o),
(90,331,o),
(94,331,cs),
(113,331,l),
(58,217,o),
(6,76,o),
(5,-9,cs),
(5,-64,o),
(22,-112,o),
(85,-112,cs)
);
},
{
closed = 1;
nodes = (
(109,-75,o),
(103,-67,o),
(103,-46,cs),
(103,34,o),
(171,185,o),
(203,253,c),
(209,232,o),
(212,209,o),
(212,185,cs),
(212,146,o),
(205,107,o),
(199,80,cs),
(189,43,o),
(168,-21,o),
(140,-59,cs),
(133,-69,o),
(124,-75,o),
(117,-75,cs)
);
}
);
};
layerId = "C623C401-2266-4A98-B253-3D45160C29C7";
shapes = (
{
closed = 1;
nodes = (
(201,-112,o),
(245,59,o),
(245,156,cs),
(245,213,o),
(236,258,o),
(218,285,c),
(242,331,l),
(339,331,ls),
(342,331,o),
(344,332,o),
(347,336,cs),
(351,342,o),
(353,347,o),
(353,350,cs),
(353,353,o),
(352,354,o),
(349,354,cs),
(254,354,l),
(265,373,o),
(280,400,o),
(297,426,cs),
(320,462,o),
(346,498,o),
(369,516,cs),
(380,524,o),
(386,527,o),
(386,533,cs),
(386,542,o),
(368,547,o),
(311,547,cs),
(249,547,o),
(222,524,o),
(189,472,cs),
(170,443,o),
(147,401,o),
(123,354,c),
(91,354,ls),
(81,354,o),
(73,343,o),
(73,337,cs),
(73,333,o),
(75,331,o),
(79,331,cs),
(113,331,l),
(58,217,o),
(5,76,o),
(5,-9,cs),
(5,-81,o),
(33,-112,o),
(92,-112,cs)
);
},
{
closed = 1;
nodes = (
(109,-75,o),
(103,-67,o),
(103,-46,cs),
(103,34,o),
(171,185,o),
(203,253,c),
(207,237,o),
(212,210,o),
(212,185,cs),
(212,81,o),
(153,-75,o),
(117,-75,cs)
);
}
);
width = 276;
}
);
note = f;
unicode = 102;
}
{
glyphname = g;
kernLeft = _g_ss02;
kernRight = _n;
layers = (
{
anchors = (
{
name = bottom;
pos = (67,-186);
},
{
name = top;
pos = (343,425);
}
);
background = {
anchors = (
{
name = bottom;
pos = (203,-237);
},
{
name = top;
pos = (203,454);
}
);
shapes = (
{
closed = 1;
nodes = (
(198,-197,o),
(257,-111,o),
(298,-13,c),
(309,-8,o),
(319,-2,o),
(330,5,cs),
(355,21,o),
(381,43,o),
(406,70,cs),
(437,105,o),
(466,149,o),
(494,204,cs),
(500,215,o),
(492,224,o),
(483,224,cs),
(478,224,o),
(473,221,o),
(470,215,cs),
(452,178,o),
(430,142,o),
(406,113,cs),
(377,77,o),
(346,47,o),
(312,25,c),
(336,89,o),
(354,155,o),
(372,204,cs),
(389,248,o),
(448,393,o),
(486,411,cs),
(494,415,o),
(497,419,o),
(497,422,cs),
(497,425,o),
(493,427,o),
(485,427,cs),
(482,427,o),
(479,427,o),
(476,426,c),
(449,422,o),
(424,420,o),
(400,420,cs),
(356,420,o),
(318,425,o),
(283,425,cs),
(210,425,o),
(152,405,o),
(93,282,cs),
(74,243,o),
(31,153,o),
(31,84,cs),
(31,34,o),
(54,-5,o),
(126,-5,cs),
(176,-5,o),
(207,54,o),
(218,78,c),
(184,-21,l),
(110,-40,o),
(-10,-73,o),
(-10,-142,cs),
(-10,-182,o),
(29,-201,o),
(94,-199,cs)
);
},
{
closed = 1;
nodes = (
(39,-158,o),
(32,-148,o),
(32,-135,cs),
(32,-95,o),
(114,-68,o),
(173,-52,c),
(148,-113,o),
(105,-158,o),
(64,-158,cs)
);
},
{
closed = 1;
nodes = (
(136,22,o),
(133,29,o),
(133,39,cs),
(133,102,o),
(257,360,o),
(299,394,cs),
(308,401,o),
(320,408,o),
(328,408,cs),
(334,408,o),
(336,404,o),
(333,395,cs),
(306,324,o),
(223,132,o),
(213,112,cs),
(189,61,o),
(164,22,o),
(144,22,cs)
);
}
);
};
layerId = "C623C401-2266-4A98-B253-3D45160C29C7";
shapes = (
{
closed = 1;
nodes = (
(39,-158,o),
(32,-148,o),
(32,-135,cs),
(32,-95,o),
(114,-68,o),
(173,-52,c),
(148,-113,o),
(105,-158,o),
(64,-158,cs)
);
},
{
closed = 1;
nodes = (
(399,28,o),
(450,113,o),
(494,201,cs),
(496,205,o),
(497,208,o),
(497,211,cs),
(497,217,o),
(490,227,o),
(483,227,cs),
(479,227,o),
(476,224,o),
(474,220,cs),
(429,128,o),
(373,54,o),
(312,25,c),
(336,89,o),
(352,146,o),
(372,199,cs),
(404,284,o),
(454,400,o),
(491,414,cs),
(495,416,o),
(497,418,o),
(497,421,cs),
(497,425,o),
(494,427,o),
(487,427,cs),
(475,427,o),
(448,420,o),
(400,420,cs),
(356,420,o),
(318,425,o),
(283,425,cs),
(210,425,o),
(152,405,o),
(93,282,cs),
(74,243,o),
(31,153,o),
(31,84,cs),
(31,34,o),
(54,-5,o),
(126,-5,cs),
(170,-5,o),
(200,40,o),
(213,68,c),
(214,67,l),
(184,-21,l),
(110,-40,o),
(-10,-73,o),
(-10,-142,cs),
(-10,-180,o),
(24,-199,o),
(86,-199,cs),
(200,-199,o),
(257,-111,o),
(298,-13,c)
);
},
{
closed = 1;
nodes = (
(138,32,o),
(135,39,o),
(135,49,cs),
(135,82,o),
(165,156,o),
(202,233,cs),
(236,305,o),
(274,370,o),
(292,388,cs),
(307,403,o),
(319,408,o),
(326,408,cs),
(330,408,o),
(333,406,o),
(333,401,cs),
(333,393,o),
(314,348,o),
(292,296,cs),
(259,217,o),
(237,170,o),
(224,141,cs),
(197,80,o),
(166,32,o),
(146,32,cs)
);
}
);
width = 407;
}
);
metricRight = n;
note = g;
unicode = 103;
}
{
color = 3;
glyphname = h;
kernLeft = _o;
kernRight = _n;
layers = (
{
anchors = (
{
name = bottom;
pos = (191,0);
},
{
name = center;
pos = (251,478);
},
{
name = top;
pos = (335,520);
}
);
background = {
anchors = (
{
name = bottom;
pos = (191,0);
},
{
name = center;
pos = (230,465);
},
{
name = top;
pos = (337,550);
}
);
};
layerId = "C623C401-2266-4A98-B253-3D45160C29C7";
shapes = (
{
closed = 1;
nodes = (
(211,34,o),
(230,-4,o),
(286,-4,cs),
(325,-4,o),
(360,25,o),
(389,61,cs),
(422,101,o),
(456,165,o),
(474,201,cs),
(476,205,o),
(477,208,o),
(477,211,cs),
(477,217,o),
(470,227,o),
(463,227,cs),
(459,227,o),
(456,224,o),
(454,220,cs),
(447,206,o),
(419,148,o),
(388,105,cs),
(364,72,o),
(337,45,o),
(323,45,cs),
(315,45,o),
(310,52,o),
(310,65,cs),
(310,97,o),
(324,138,o),
(365,223,cs),
(383,263,o),
(424,334,o),
(424,374,cs),
(424,411,o),
(397,434,o),
(359,434,cs),
(348,434,o),
(338,432,o),
(333,428,cs),
(321,418,o),
(231,313,o),
(195,262,c),
(194,263,l),
(223,320,o),
(258,380,o),
(287,424,cs),
(319,469,o),
(352,508,o),
(374,526,cs),
(379,530,o),
(380,532,o),
(380,534,cs),
(380,538,o),
(376,541,o),
(365,544,cs),
(353,547,o),
(336,550,o),
(320,550,cs),
(301,550,o),
(282,547,o),
(267,539,cs),
(168,488,o),
(30,222,o),
(30,82,cs),
(30,51,o),
(41,26,o),
(58,14,cs),
(76,1,o),
(101,-6,o),
(128,-6,cs),
(139,-6,o),
(147,-2,o),
(147,2,cs),
(147,6,o),
(142,9,o),
(138,17,cs),
(135,22,o),
(133,29,o),
(133,40,cs),
(133,136,o),
(225,279,o),
(282,323,c),
(283,322,l),
(257,279,o),
(211,161,o),
(211,90,cs)
);
}
);
width = 387;
}
);
metricRight = n;
note = h;
unicode = 104;
}
{
glyphname = k;
kernLeft = _o;
kernRight = _n;
layers = (
{
anchors = (
{
name = bottom;
pos = (197,19);
},
{
name = top;
pos = (214,545);
}
);
background = {
anchors = (
{
name = bottom;
pos = (214,0);
},
{
name = top;
pos = (214,763);
}
);
shapes = (
{
closed = 1;
nodes = (
(135,-6,o),
(140,-5,o),
(143,-3,cs),
(147,0,o),
(147,3,o),
(143,8,cs),
(135,16,o),
(132,32,o),
(132,51,cs),
(132,112,o),
(167,210,o),
(210,236,c),
(207,225,o),
(204,180,o),
(204,143,cs),
(204,132,o),
(205,122,o),
(205,114,cs),
(208,82,o),
(213,48,o),
(229,21,cs),
(239,3,o),
(254,-5,o),
(272,-5,cs),
(302,-5,o),
(341,16,o),
(383,51,cs),
(386,53,o),
(388,57,o),
(388,61,cs),
(388,64,o),
(386,65,o),
(384,63,c),
(378,60,o),
(373,58,o),
(368,58,cs),
(335,58,o),
(319,119,o),
(312,153,cs),
(302,197,o),
(292,283,o),
(292,319,c),
(341,354,o),
(409,388,o),
(464,403,cs),
(478,407,o),
(483,413,o),
(483,420,cs),
(483,435,o),
(458,452,o),
(431,452,cs),
(389,452,o),
(332,408,o),
(290,368,cs),
(249,328,o),
(200,269,o),
(182,238,c),
(199,272,ls),
(202,279,o),
(208,291,o),
(219,310,cs),
(230,330,o),
(254,369,o),
(266,386,cs),
(289,418,o),
(310,437,o),
(322,445,cs),
(327,448,o),
(329,451,o),
(329,453,cs),
(329,456,o),
(326,459,o),
(319,461,cs),
(304,466,o),
(287,469,o),
(267,469,cs),
(247,469,o),
(230,465,o),
(215,458,cs),
(131,415,o),
(122,371,o),
(74,264,cs),
(48,207,o),
(30,142,o),
(30,91,cs),
(30,50,o),
(42,18,o),
(71,6,cs),
(94,-4,o),
(108,-6,o),
(128,-6,cs)
);
}
);
};
layerId = "C623C401-2266-4A98-B253-3D45160C29C7";
shapes = (
{
closed = 1;
nodes = (
(142,-6,o),
(146,-2,o),
(146,2,cs),
(146,4,o),
(145,6,o),
(141,11,cs),
(135,19,o),
(132,28,o),
(132,51,cs),
(132,211,o),
(306,360,o),
(464,403,cs),
(478,407,o),
(483,413,o),
(483,420,cs),
(483,435,o),
(458,452,o),
(431,452,cs),
(356,452,o),
(235,315,o),
(195,258,c),
(193,260,l),
(221,322,o),
(317,478,o),
(359,515,cs),
(373,527,o),
(379,529,o),
(379,534,cs),
(379,538,o),
(376,540,o),
(367,543,cs),
(355,547,o),
(337,550,o),
(313,550,cs),
(241,550,o),
(167,468,o),
(81,280,cs),
(38,187,o),
(30,139,o),
(30,88,cs),
(30,26,o),
(63,-6,o),
(127,-6,cs)
);
},
{
closed = 1;
nodes = (
(350,-5,o),
(435,115,o),
(477,201,cs),
(479,205,o),
(480,208,o),
(480,211,cs),
(480,217,o),
(473,227,o),
(466,227,cs),
(462,227,o),
(459,224,o),
(457,220,cs),
(451,209,o),
(432,168,o),
(409,135,cs),
(378,90,o),
(359,73,o),
(344,73,cs),
(329,73,o),
(315,103,o),
(306,152,cs),
(297,199,o),
(292,263,o),
(292,337,c),
(213,250,l),
(207,226,o),
(204,180,o),
(204,144,cs),
(204,44,o),
(231,-5,o),
(273,-5,cs)
);
}
);
width = 390;
}
);
metricLeft = h;
note = k;
unicode = 107;
}
{
color = 3;
glyphname = l;
kernLeft = _l_ss02;
kernRight = _l;
layers = (
{
anchors = (
{
name = bottom;
pos = (128,0);
},
{
name = center;
pos = (128,273);
},
{
name = top;
pos = (336,545);
},
{
name = topright;
pos = (405,545);
}
);
background = {
anchors = (
{
name = bottom;
pos = (128,0);
},
{
name = center;
pos = (128,273);
},
{
name = top;
pos = (336,545);
},
{
name = topright;
pos = (405,545);
}
);
};
layerId = "C623C401-2266-4A98-B253-3D45160C29C7";
shapes = (
{
closed = 1;
nodes = (
(152,172,o),
(246,383,o),
(343,491,cs),
(361,512,o),
(374,520,o),
(386,520,cs),
(391,520,o),
(395,523,o),
(395,527,cs),
(395,532,o),
(390,538,o),
(374,544,cs),
(360,549,o),
(337,552,o),
(325,552,cs),
(266,552,o),
(224,519,o),
(173,440,cs),
(122,361,o),
(40,192,o),
(40,94,cs),
(40,30,o),
(79,-9,o),
(141,-7,cs),
(174,-7,o),
(206,9,o),
(233,43,cs),
(271,92,o),
(305,165,o),
(325,204,cs),
(330,214,o),
(321,224,o),
(313,224,cs),
(308,224,o),
(304,220,o),
(302,216,cs),
(281,174,o),
(237,93,o),
(209,63,cs),
(196,48,o),
(184,40,o),
(174,40,cs),
(161,40,o),
(152,52,o),
(152,77,cs)
);
},
{
closed = 0;
nodes = (
(995,3416,l)
);
}
);
width = 237;
}
);
note = l;
unicode = 108;
}
{
color = 3;
glyphname = n;
kernLeft = _n;
kernRight = _n;
layers = (
{
anchors = (
{
name = bottom;
pos = (197,30);
},
{
name = top;
pos = (309,415);
}
);
background = {
anchors = (
{
name = bottom;
pos = (207,0);
},
{
name = top;
pos = (359,425);
}
);
};
layerId = "C623C401-2266-4A98-B253-3D45160C29C7";
shapes = (
{
closed = 1;
nodes = (
(193,244,l),
(211,275,o),
(242,318,o),
(242,349,cs),
(242,372,o),
(230,391,o),
(212,404,cs),
(195,417,o),
(170,423,o),
(153,423,cs),
(140,423,o),
(134,418,o),
(134,412,cs),
(134,409,o),
(135,407,o),
(136,405,cs),
(137,403,o),
(137,401,o),
(137,399,cs),
(137,380,o),
(107,315,o),
(98,293,cs),
(69,223,o),
(18,126,o),
(18,72,cs),
(18,23,o),
(43,9,o),
(76,2,cs),
(90,-1,o),
(107,-4,o),
(118,-4,cs),
(123,-4,o),
(125,-3,o),
(125,-1,cs),
(125,1,o),
(123,3,o),
(121,5,cs),
(116,10,o),
(114,17,o),
(114,28,cs),
(114,117,o),
(274,311,o),
(291,328,c),
(293,327,l),
(250,244,o),
(222,156,o),
(222,85,cs),
(222,24,o),
(251,-8,o),
(308,-8,cs),
(344,-8,o),
(370,20,o),
(397,55,cs),
(434,102,o),
(466,165,o),
(484,201,cs),
(486,205,o),
(487,208,o),
(487,211,cs),
(487,217,o),
(480,227,o),
(473,227,cs),
(469,227,o),
(466,224,o),
(464,220,cs),
(454,201,o),
(425,144,o),
(396,101,cs),
(373,67,o),
(352,40,o),
(336,40,cs),
(326,40,o),
(321,49,o),
(321,63,cs),
(321,94,o),
(347,183,o),
(404,293,cs),
(420,324,o),
(431,350,o),
(431,376,cs),
(431,410,o),
(405,434,o),
(370,434,cs),
(357,434,o),
(347,432,o),
(340,428,cs),
(329,421,o),
(252,325,o),
(195,242,c)
);
}
);
width = 397;
}
);
note = n;
unicode = 110;
}
{
glyphname = o;
kernLeft = _o;
kernRight = _o;
layers = (
{
anchors = (
{
name = bottom;
pos = (136,0);
},
{
name = center;
pos = (193,213);
},
{
name = ogonek;
pos = (160,10);
},
{
name = top;
pos = (316,425);
},
{
name = topright;
pos = (368,419);
}
);
background = {
anchors = (
{
name = bottom;
pos = (193,0);
},
{
name = center;
pos = (193,227);
},
{
name = ogonek;
pos = (355,10);
},
{
name = top;
pos = (193,454);
},
{
name = topright;
pos = (375,454);
}
);
shapes = (
{
closed = 1;
nodes = (
(140,24,o),
(137,31,o),
(137,43,cs),
(137,80,o),
(167,166,o),
(192,223,cs),
(224,298,o),
(284,406,o),
(307,406,cs),
(314,406,o),
(317,400,o),
(317,389,cs),
(317,348,o),
(272,242,o),
(261,220,cs),
(219,125,o),
(169,24,o),
(147,24,cs)
);
},
{
closed = 1;
nodes = (
(390,53,o),
(415,80,o),
(437,119,cs),
(455,150,o),
(470,180,o),
(481,201,cs),
(483,205,o),
(484,208,o),
(484,211,cs),
(484,217,o),
(477,227,o),
(470,227,cs),
(466,227,o),
(463,224,o),
(461,220,cs),
(451,201,o),
(423,144,o),
(398,108,cs),
(384,88,o),
(372,81,o),
(362,81,cs),
(350,81,o),
(342,94,o),
(342,109,cs),
(342,122,o),
(346,133,o),
(360,159,cs),
(399,231,o),
(421,305,o),
(421,351,cs),
(421,406,o),
(390,433,o),
(314,433,cs),
(311,433,o),
(307,433,o),
(304,433,cs),
(151,433,o),
(30,236,o),
(30,95,cs),
(30,18,o),
(77,-5,o),
(156,-7,cs),
(159,-7,o),
(163,-7,o),
(166,-7,cs),
(221,-7,o),
(274,35,o),
(316,90,c),
(322,66,o),
(340,53,o),
(360,53,cs)
);
}
);
};
layerId = "C623C401-2266-4A98-B253-3D45160C29C7";
shapes = (
{
closed = 1;
nodes = (
(140,24,o),
(137,29,o),
(137,43,cs),
(137,80,o),
(167,166,o),
(192,223,cs),
(224,298,o),
(284,406,o),
(307,406,cs),
(314,406,o),
(317,401,o),
(317,389,cs),
(317,348,o),
(272,242,o),
(261,220,cs),
(219,125,o),
(169,24,o),
(147,24,cs)
);
},
{
closed = 1;
nodes = (
(30,28,o),
(71,-7,o),
(148,-7,cs),
(159,-7,ls),
(212,-7,o),
(264,20,o),
(316,90,c),
(321,66,o),
(340,53,o),
(360,53,cs),
(390,53,o),
(418,80,o),
(440,119,cs),
(458,150,o),
(473,180,o),
(484,201,cs),
(486,205,o),
(487,208,o),
(487,211,cs),
(487,217,o),
(480,227,o),
(473,227,cs),
(469,227,o),
(466,224,o),
(464,220,cs),
(454,201,o),
(426,144,o),
(401,108,cs),
(387,88,o),
(372,81,o),
(362,81,cs),
(350,81,o),
(343,93,o),
(343,109,cs),
(343,122,o),
(346,133,o),
(360,159,cs),
(399,231,o),
(421,305,o),
(421,351,cs),
(421,406,o),
(390,433,o),
(314,433,cs),
(301,433,ls),
(168,433,o),
(30,259,o),
(30,91,cs)
);
}
);
width = 397;
}
);
note = o;
unicode = 111;
}
{
color = 3;
glyphname = p;
kernLeft = _p_ss02;
kernRight = _n;
layers = (
{
background = {
shapes = (
{
closed = 1;
nodes = (
(44,-171,o),
(50,-171,o),
(57,-170,cs),
(65,-170,o),
(70,-166,o),
(70,-163,cs),
(70,-162,o),
(70,-161,o),
(69,-160,cs),
(63,-156,o),
(61,-147,o),
(61,-136,cs),
(61,-129,o),
(62,-122,o),
(63,-115,cs),
(70,-65,o),
(88,-4,o),
(112,56,c),
(127,12,o),
(153,-7,o),
(191,-7,cs),
(218,-7,o),
(240,3,o),
(260,18,cs),
(270,26,o),
(280,37,o),
(290,50,c),
(302,49,o),
(312,48,o),
(323,48,cs),
(345,48,o),
(366,52,o),
(388,69,cs),
(425,97,o),
(456,163,o),
(476,204,cs),
(481,215,o),
(472,226,o),
(463,226,cs),
(460,226,o),
(456,224,o),
(454,220,cs),
(437,185,o),
(414,136,o),
(388,107,cs),
(366,84,o),
(338,76,o),
(309,77,c),
(366,163,o),
(421,301,o),
(421,365,cs),
(421,390,o),
(414,409,o),
(396,416,cs),
(377,423,o),
(361,428,o),
(347,428,cs),
(338,428,o),
(330,426,o),
(323,420,cs),
(307,407,o),
(243,309,o),
(208,254,c),
(236,313,ls),
(241,324,o),
(244,336,o),
(244,347,cs),
(244,374,o),
(229,400,o),
(201,413,cs),
(185,420,o),
(175,422,o),
(158,422,cs),
(144,422,o),
(139,419,o),
(139,410,cs),
(139,405,l),
(143,382,o),
(77,235,o),
(55,189,cs),
(8,94,o),
(-40,-30,o),
(-40,-103,cs),
(-40,-110,o),
(-40,-116,o),
(-39,-122,cs),
(-35,-153,o),
(-5,-171,o),
(38,-171,cs)
);
},
{
closed = 1;
nodes = (
(152,48,o),
(147,52,o),
(142,60,cs),
(137,69,o),
(132,80,o),
(130,91,c),
(139,106,l),
(157,95,o),
(175,85,o),
(195,76,c),
(182,59,o),
(170,48,o),
(158,48,cs)
);
},
{
closed = 1;
nodes = (
(208,100,o),
(206,101,o),
(205,102,c),
(151,125,l),
(194,197,o),
(259,294,o),
(293,339,c),
(292,328,o),
(288,312,o),
(283,294,cs),
(277,275,o),
(246,166,o),
(210,100,c)
);
}
);
};
layerId = "C623C401-2266-4A98-B253-3D45160C29C7";
shapes = (
{
closed = 1;
nodes = (
(145,46,o),
(132,77,o),
(130,91,c),
(139,106,l),
(153,95,o),
(180,82,o),
(200,74,c),
(187,57,o),
(172,46,o),
(160,46,cs)
);
},
{
closed = 1;
nodes = (
(193,104,o),
(164,116,o),
(151,125,c),
(194,197,o),
(269,294,o),
(303,339,c),
(302,328,o),
(298,312,o),
(293,294,cs),
(287,275,o),
(251,164,o),
(214,97,c)
);
},
{
closed = 1;
nodes = (
(242,387,o),
(209,422,o),
(153,422,cs),
(141,422,o),
(137,419,o),
(137,407,cs),
(137,388,o),
(134,367,o),
(105,302,cs),
(84,255,o),
(42,176,o),
(3,72,cs),
(-21,8,o),
(-40,-57,o),
(-40,-108,cs),
(-40,-153,o),
(-8,-171,o),
(43,-171,cs),
(62,-171,o),
(70,-168,o),
(70,-163,cs),
(70,-161,o),
(68,-160,o),
(66,-157,cs),
(62,-152,o),
(61,-145,o),
(61,-136,cs),
(61,-93,o),
(91,4,o),
(112,56,c),
(127,12,o),
(159,-7,o),
(197,-7,cs),
(224,-7,o),
(248,3,o),
(268,18,cs),
(278,26,o),
(290,37,o),
(300,50,c),
(306,48,o),
(319,46,o),
(329,46,cs),
(357,46,o),
(380,55,o),
(398,69,cs),
(435,97,o),
(467,165,o),
(485,201,cs),
(487,205,o),
(488,208,o),
(488,211,cs),
(488,217,o),
(481,227,o),
(474,227,cs),
(470,227,o),
(467,224,o),
(465,220,cs),
(455,201,o),
(430,146,o),
(394,102,cs),
(380,84,o),
(358,73,o),
(336,73,cs),
(330,73,o),
(324,73,o),
(318,75,c),
(375,160,o),
(431,301,o),
(431,365,cs),
(431,390,o),
(427,407,o),
(407,416,cs),
(387,425,o),
(371,428,o),
(357,428,cs),
(348,428,o),
(340,426,o),
(333,420,cs),
(317,407,o),
(235,297,o),
(200,242,c),
(198,244,l),
(216,275,o),
(242,316,o),
(242,347,cs)
);
}
);
width = 398;
}
);
metricRight = n;
note = p;
unicode = 112;
}
{
color = 3;
glyphname = q;
kernLeft = _o;
layers = (
{
background = {
shapes = (
{
closed = 1;
nodes = (
(264,-161,o),
(277,-160,o),
(291,-158,cs),
(295,-157,o),
(301,-151,o),
(301,-148,cs),
(301,-147,o),
(301,-146,o),
(300,-146,c),
(286,-137,o),
(280,-115,o),
(280,-87,cs),
(280,-54,o),
(289,-11,o),
(301,30,cs),
(307,51,o),
(314,73,o),
(322,94,c),
(328,68,o),
(344,50,o),
(374,50,cs),
(392,50,o),
(411,59,o),
(426,71,cs),
(467,104,o),
(496,168,o),
(514,204,cs),
(515,207,o),
(516,209,o),
(516,212,cs),
(516,221,o),
(509,229,o),
(502,229,cs),
(499,229,o),
(496,227,o),
(494,223,cs),
(473,182,o),
(450,138,o),
(426,112,cs),
(412,97,o),
(397,84,o),
(381,84,cs),
(361,84,o),
(353,100,o),
(353,123,cs),
(353,162,o),
(375,222,o),
(393,261,cs),
(430,340,o),
(462,404,o),
(496,418,cs),
(500,420,o),
(503,423,o),
(503,426,cs),
(503,429,o),
(500,431,o),
(494,431,cs),
(489,431,l),
(459,427,o),
(431,425,o),
(404,425,cs),
(366,425,o),
(331,428,o),
(298,428,cs),
(217,428,o),
(153,410,o),
(92,282,cs),
(73,243,o),
(30,153,o),
(30,84,cs),
(30,34,o),
(53,-5,o),
(125,-5,cs),
(169,-5,o),
(199,44,o),
(218,77,c),
(198,38,o),
(183,-3,o),
(174,-61,cs),
(172,-72,o),
(171,-82,o),
(171,-91,cs),
(171,-143,o),
(201,-161,o),
(252,-161,cs)
);
},
{
closed = 1;
nodes = (
(135,22,o),
(132,29,o),
(132,39,cs),
(132,102,o),
(255,360,o),
(298,394,cs),
(307,401,o),
(319,408,o),
(327,408,cs),
(333,408,o),
(335,404,o),
(332,395,cs),
(304,324,o),
(221,132,o),
(212,112,cs),
(187,61,o),
(162,22,o),
(143,22,cs)
);
}
);
};
layerId = "C623C401-2266-4A98-B253-3D45160C29C7";
shapes = (
{
closed = 1;
nodes = (
(138,32,o),
(135,39,o),
(135,49,cs),
(135,82,o),
(165,156,o),
(202,233,cs),
(236,305,o),
(274,370,o),
(292,388,cs),
(307,403,o),
(319,408,o),
(326,408,cs),
(330,408,o),
(333,406,o),
(333,401,cs),
(333,393,o),
(314,348,o),
(292,296,cs),
(259,217,o),
(237,170,o),
(224,141,cs),
(197,80,o),
(166,32,o),
(146,32,cs)
);
},
{
closed = 1;
nodes = (
(211,64,l),
(181,-13,o),
(171,-53,o),
(171,-93,cs),
(171,-141,o),
(202,-161,o),
(266,-161,cs),
(283,-161,o),
(301,-157,o),
(301,-149,cs),
(301,-144,o),
(294,-144,o),
(288,-133,cs),
(282,-122,o),
(280,-104,o),
(280,-87,cs),
(280,-35,o),
(305,49,o),
(322,94,c),
(328,68,o),
(346,50,o),
(373,50,cs),
(431,50,o),
(484,165,o),
(502,201,cs),
(504,205,o),
(505,208,o),
(505,211,cs),
(505,217,o),
(498,227,o),
(491,227,cs),
(487,227,o),
(484,224,o),
(482,220,cs),
(470,195,o),
(414,82,o),
(376,82,cs),
(357,82,o),
(350,103,o),
(350,126,cs),
(350,195,o),
(442,394,o),
(496,419,cs),
(500,421,o),
(502,423,o),
(502,426,cs),
(502,430,o),
(499,432,o),
(492,432,cs),
(480,432,o),
(452,425,o),
(404,425,cs),
(360,425,o),
(324,428,o),
(289,428,cs),
(216,428,o),
(151,405,o),
(92,282,cs),
(73,243,o),
(30,153,o),
(30,84,cs),
(30,34,o),
(52,-5,o),
(123,-5,cs),
(154,-5,o),
(184,18,o),
(210,65,c)
);
}
);
width = 415;
}
);
metricRight = n;
note = q;
unicode = 113;
}
{
color = 3;
glyphname = r;
kernLeft = _n;
kernRight = _n;
layers = (
{
anchors = (
{
name = bottom;
pos = (72,86);
},
{
name = top;
pos = (303,456);
}
);
background = {
anchors = (
{
name = bottom;
pos = (72,86);
},
{
name = top;
pos = (303,456);
}
);
shapes = (
{
closed = 1;
nodes = (
(253,-8,o),
(286,19,o),
(314,55,cs),
(352,104,o),
(384,168,o),
(402,204,cs),
(407,215,o),
(397,225,o),
(389,225,cs),
(385,225,o),
(382,223,o),
(380,219,cs),
(370,200,o),
(343,144,o),
(314,101,cs),
(291,68,o),
(267,40,o),
(248,40,cs),
(241,40,o),
(235,47,o),
(235,61,cs),
(235,68,o),
(236,76,o),
(239,86,cs),
(258,150,o),
(302,237,o),
(340,306,cs),
(358,338,o),
(366,363,o),
(366,382,cs),
(366,405,o),
(354,420,o),
(338,428,cs),
(325,434,o),
(311,438,o),
(298,438,cs),
(285,438,o),
(274,434,o),
(268,426,cs),
(261,415,o),
(241,410,o),
(222,410,cs),
(204,410,o),
(188,415,o),
(185,424,c),
(195,441,o),
(199,453,o),
(199,468,cs),
(199,490,o),
(184,501,o),
(169,501,cs),
(143,501,o),
(132,473,o),
(132,451,cs),
(132,433,o),
(137,419,o),
(145,409,c),
(143,404,o),
(141,394,o),
(140,392,cs),
(110,312,o),
(72,229,o),
(45,178,cs),
(42,173,o),
(41,167,o),
(41,163,cs),
(41,156,o),
(44,151,o),
(49,151,cs),
(55,151,o),
(63,158,o),
(72,174,cs),
(98,221,o),
(135,299,o),
(164,377,cs),
(165,379,o),
(168,385,o),
(170,391,c),
(182,386,o),
(196,384,o),
(210,384,cs),
(223,384,o),
(237,386,o),
(251,389,c),
(208,310,o),
(122,175,o),
(122,86,cs),
(122,37,o),
(146,-8,o),
(213,-8,cs)
);
}
);
};
layerId = "C623C401-2266-4A98-B253-3D45160C29C7";
shapes = (
{
closed = 1;
nodes = (
(57,153,o),
(66,160,o),
(74,176,cs),
(110,244,o),
(161,361,o),
(177,413,c),
(156,434,l),
(131,361,o),
(87,256,o),
(46,179,cs),
(43,174,o),
(40,166,o),
(40,162,cs),
(40,155,o),
(45,151,o),
(50,152,cs)
);
},
{
ref = _r;
}
);
width = 314;
}
);
note = r;
unicode = 114;
}
{
glyphname = s;
kernLeft = _s;
kernRight = _n;
layers = (
{
anchors = (
{
name = bottom;
pos = (113,1);
},
{
name = top;
pos = (294,440);
}
);
background = {
anchors = (
{
name = bottom;
pos = (154,0);
},
{
name = top;
pos = (154,454);
}
);
shapes = (
{
closed = 1;
nodes = (
(282,-7,o),
(344,102,o),
(392,199,cs),
(393,202,o),
(394,204,o),
(394,207,cs),
(394,216,o),
(387,226,o),
(381,226,cs),
(378,226,o),
(376,225,o),
(374,221,cs),
(362,196,o),
(335,143,o),
(306,102,cs),
(285,73,o),
(232,26,o),
(192,27,c),
(232,42,o),
(268,110,o),
(280,159,cs),
(297,221,o),
(305,323,o),
(308,416,cs),
(310,442,o),
(332,447,o),
(338,447,cs),
(346,447,o),
(343,457,o),
(340,458,c),
(332,459,o),
(314,461,o),
(299,461,cs),
(293,461,o),
(287,461,o),
(282,460,cs),
(216,454,o),
(165,370,o),
(134,319,cs),
(115,287,o),
(96,256,o),
(80,226,c),
(77,230,o),
(72,233,o),
(64,233,cs),
(28,233,o),
(14,173,o),
(14,129,cs),
(14,43,o),
(74,-7,o),
(155,-7,cs)
);
},
{
closed = 1;
nodes = (
(72,56,o),
(54,69,o),
(47,91,cs),
(45,98,o),
(45,106,o),
(45,112,cs),
(45,123,l),
(64,148,o),
(97,170,o),
(96,201,c),
(116,240,o),
(172,334,o),
(203,371,c),
(194,331,o),
(170,174,o),
(130,85,cs),
(121,65,o),
(105,56,o),
(90,56,cs)
);
}
);
};
layerId = "C623C401-2266-4A98-B253-3D45160C29C7";
shapes = (
{
closed = 1;
nodes = (
(65,56,o),
(45,78,o),
(45,122,c),
(58,134,o),
(97,171,o),
(97,202,c),
(116,240,o),
(172,334,o),
(203,371,c),
(194,331,o),
(170,173,o),
(130,85,cs),
(121,66,o),
(108,56,o),
(90,56,cs)
);
},
{
closed = 1;
nodes = (
(213,-7,o),
(264,23,o),
(301,62,cs),
(342,104,o),
(371,158,o),
(393,201,cs),
(395,205,o),
(396,208,o),
(396,211,cs),
(396,217,o),
(389,227,o),
(382,227,cs),
(378,227,o),
(375,224,o),
(373,220,cs),
(353,179,o),
(324,125,o),
(284,83,cs),
(255,53,o),
(221,31,o),
(198,29,c),
(198,31,l),
(237,47,o),
(267,89,o),
(282,137,cs),
(302,199,o),
(308,349,o),
(308,411,cs),
(308,436,o),
(325,447,o),
(338,447,cs),
(342,447,o),
(344,449,o),
(344,452,cs),
(344,456,o),
(340,458,o),
(331,459,cs),
(324,460,o),
(310,461,o),
(299,461,cs),
(280,461,o),
(264,458,o),
(249,450,cs),
(200,426,o),
(164,368,o),
(134,319,cs),
(115,287,o),
(96,255,o),
(80,227,c),
(76,231,o),
(71,233,o),
(64,233,cs),
(28,233,o),
(14,166,o),
(14,129,cs),
(14,37,o),
(74,-7,o),
(155,-7,cs)
);
},
{
closed = 0;
nodes = (
(228,-15,l)
);
},
{
closed = 0;
nodes = (
(262,648,l)
);
}
);
width = 306;
}
);
metricRight = n;
note = s;
unicode = 115;
}
{
color = 3;
glyphname = t;
kernLeft = _t_ss02;
kernRight = _t;
layers = (
{
anchors = (
{
name = bottom;
pos = (111,0);
},
{
name = center;
pos = (159,299);
},
{
name = top;
pos = (127,425);
},
{
name = topright;
pos = (385,572);
}
);
background = {
anchors = (
{
name = bottom;
pos = (111,0);
},
{
name = center;
pos = (159,299);
},
{
name = top;
pos = (127,425);
},
{
name = topright;
pos = (385,572);
}
);
};
layerId = "C623C401-2266-4A98-B253-3D45160C29C7";
shapes = (
{
closed = 1;
nodes = (
(352,372,ls),
(355,372,o),
(357,373,o),
(360,377,cs),
(364,383,o),
(366,388,o),
(366,391,cs),
(366,394,o),
(365,395,o),
(362,395,cs),
(282,395,l),
(304,432,o),
(337,487,o),
(354,504,cs),
(358,508,o),
(362,509,o),
(362,513,cs),
(362,519,o),
(349,525,o),
(332,525,cs),
(319,525,o),
(304,522,o),
(292,511,cs),
(252,476,o),
(168,417,o),
(102,394,cs),
(93,391,o),
(85,382,o),
(85,377,cs),
(85,374,o),
(87,372,o),
(91,372,cs),
(136,372,l),
(81,284,o),
(35,151,o),
(35,79,cs),
(35,25,o),
(72,-8,o),
(127,-8,cs),
(181,-8,o),
(222,19,o),
(255,60,cs),
(292,107,o),
(323,165,o),
(341,201,cs),
(343,205,o),
(344,208,o),
(344,211,cs),
(344,217,o),
(337,227,o),
(330,227,cs),
(326,227,o),
(323,224,o),
(321,220,cs),
(305,188,o),
(282,144,o),
(254,105,cs),
(218,55,o),
(183,28,o),
(152,28,cs),
(138,28,o),
(130,37,o),
(130,53,cs),
(130,115,o),
(216,279,o),
(269,372,c)
);
}
);
width = 254;
}
);
note = t;
unicode = 116;
}
{
glyphname = u;
kernLeft = _u_ss02;
kernRight = _n;
layers = (
{
anchors = (
{
name = bottom;
pos = (163,0);
},
{
name = ogonek;
pos = (331,10);
},
{
name = top;
pos = (333,412);
},
{
name = topright;
pos = (408,422);
}
);
background = {
anchors = (
{
name = bottom;
pos = (201,0);
},
{
name = ogonek;
pos = (362,10);
},
{
name = top;
pos = (201,454);
},
{
name = topright;
pos = (382,454);
}
);
shapes = (
{
closed = 1;
nodes = (
(338,-6,o),
(372,12,o),
(402,51,cs),
(436,96,o),
(465,156,o),
(491,206,cs),
(496,216,o),
(487,231,o),
(479,231,cs),
(476,231,o),
(473,229,o),
(471,225,cs),
(461,206,o),
(429,139,o),
(402,98,cs),
(380,66,o),
(357,40,o),
(336,40,cs),
(329,40,o),
(323,47,o),
(323,65,cs),
(323,71,o),
(323,79,o),
(325,88,cs),
(339,168,o),
(378,250,o),
(416,319,cs),
(440,363,o),
(463,400,o),
(477,402,cs),
(485,403,o),
(492,409,o),
(492,415,cs),
(492,419,o),
(488,424,o),
(475,425,cs),
(467,426,o),
(447,428,o),
(425,428,cs),
(415,428,o),
(405,428,o),
(395,426,cs),
(362,421,o),
(331,394,o),
(302,336,cs),
(281,294,o),
(264,251,o),
(242,205,cs),
(234,188,o),
(180,56,o),
(146,56,cs),
(138,56,o),
(133,60,o),
(133,73,cs),
(133,78,o),
(134,83,o),
(135,90,cs),
(153,177,o),
(234,327,o),
(272,391,cs),
(274,395,o),
(275,397,o),
(275,400,cs),
(275,408,o),
(265,410,o),
(248,414,cs),
(238,416,o),
(227,418,o),
(216,418,cs),
(181,418,o),
(147,403,o),
(120,355,cs),
(103,325,o),
(63,234,o),
(38,159,cs),
(29,132,o),
(20,99,o),
(20,69,cs),
(20,30,o),
(36,-2,o),
(90,-2,cs),
(134,-2,o),
(177,19,o),
(219,97,c),
(217,42,o),
(241,-6,o),
(300,-6,cs)
);
}
);
};
layerId = "C623C401-2266-4A98-B253-3D45160C29C7";
shapes = (
{
closed = 1;
nodes = (
(492,419,o),
(488,423,o),
(475,425,cs),
(461,427,o),
(447,428,o),
(425,428,cs),
(402,428,o),
(383,426,o),
(364,414,cs),
(310,380,o),
(268,259,o),
(242,205,cs),
(234,188,o),
(180,56,o),
(146,56,cs),
(138,56,o),
(133,60,o),
(133,73,cs),
(133,102,o),
(157,164,o),
(186,227,cs),
(215,290,o),
(250,355,o),
(272,391,cs),
(274,395,o),
(275,398,o),
(275,401,cs),
(275,407,o),
(266,410,o),
(248,414,cs),
(235,417,o),
(222,418,o),
(216,418,cs),
(180,418,o),
(146,402,o),
(119,352,cs),
(89,297,o),
(20,140,o),
(20,69,cs),
(20,30,o),
(36,-2,o),
(90,-2,cs),
(134,-2,o),
(177,19,o),
(219,97,c),
(217,42,o),
(241,-6,o),
(300,-6,cs),
(338,-6,o),
(371,10,o),
(401,48,cs),
(431,86,o),
(472,165,o),
(490,201,cs),
(492,205,o),
(493,208,o),
(493,211,cs),
(493,217,o),
(486,227,o),
(479,227,cs),
(475,227,o),
(472,224,o),
(470,220,cs),
(461,203,o),
(433,147,o),
(405,105,cs),
(379,66,o),
(355,41,o),
(338,41,cs),
(329,41,o),
(323,48,o),
(323,65,cs),
(323,132,o),
(379,252,o),
(415,319,cs),
(438,362,o),
(461,400,o),
(477,402,cs),
(486,403,o),
(492,408,o),
(492,413,cs)
);
}
);
width = 403;
}
);
metricRight = n;
note = u;
unicode = 117;
}
{
glyphname = v;
kernLeft = _v;
kernRight = _v;
layers = (
{
background = {
shapes = (
{
closed = 1;
nodes = (
(164,-5,o),
(232,55,o),
(289,127,c),
(288,122,o),
(288,116,o),
(288,111,cs),
(288,82,o),
(302,55,o),
(332,55,cs),
(347,55,o),
(361,61,o),
(374,71,cs),
(414,101,o),
(443,169,o),
(461,203,cs),
(466,214,o),
(457,222,o),
(449,222,cs),
(445,222,o),
(440,220,o),
(438,215,cs),
(424,186,o),
(395,133,o),
(372,106,cs),
(361,92,o),
(348,84,o),
(338,84,cs),
(326,84,o),
(317,95,o),
(317,122,cs),
(317,147,o),
(325,173,o),
(348,212,cs),
(381,267,o),
(404,320,o),
(413,355,cs),
(414,359,o),
(415,364,o),
(415,368,cs),
(415,400,o),
(384,427,o),
(313,427,cs),
(307,427,o),
(300,426,o),
(293,426,cs),
(285,425,o),
(281,425,o),
(281,423,cs),
(281,422,o),
(283,421,o),
(285,419,cs),
(298,407,o),
(304,388,o),
(304,365,cs),
(304,322,o),
(284,263,o),
(254,206,cs),
(213,127,o),
(181,85,o),
(161,66,cs),
(155,61,o),
(149,57,o),
(144,57,cs),
(139,57,o),
(136,61,o),
(136,69,cs),
(136,72,o),
(137,75,o),
(138,80,cs),
(154,143,o),
(222,299,o),
(228,329,cs),
(229,334,o),
(229,339,o),
(229,344,cs),
(229,373,o),
(212,407,o),
(159,424,cs),
(148,428,o),
(137,429,o),
(126,431,cs),
(119,432,o),
(118,429,o),
(121,424,cs),
(123,421,o),
(124,416,o),
(124,409,cs),
(124,364,o),
(78,251,o),
(67,222,cs),
(50,176,o),
(37,126,o),
(37,82,cs),
(37,65,o),
(39,49,o),
(43,35,cs),
(50,11,o),
(69,-5,o),
(101,-5,cs)
);
}
);
};
layerId = "C623C401-2266-4A98-B253-3D45160C29C7";
shapes = (
{
closed = 1;
nodes = (
(395,134,o),
(372,106,cs),
(359,90,o),
(346,84,o),
(338,84,cs),
(326,84,o),
(317,95,o),
(317,122,cs),
(317,147,o),
(325,173,o),
(348,212,cs),
(380,267,o),
(415,336,o),
(415,369,cs),
(415,400,o),
(384,427,o),
(311,427,cs),
(304,427,o),
(301,427,o),
(290,426,cs),
(282,425,o),
(281,424,o),
(281,423,cs),
(281,422,o),
(283,421,o),
(285,419,cs),
(298,407,o),
(304,388,o),
(304,365,cs),
(304,322,o),
(284,263,o),
(254,206,cs),
(213,127,o),
(181,85,o),
(161,66,cs),
(155,61,o),
(149,57,o),
(144,57,cs),
(139,57,o),
(136,61,o),
(136,69,cs),
(136,100,o),
(160,155,o),
(184,209,cs),
(207,261,o),
(229,313,o),
(229,343,cs),
(229,371,o),
(214,393,o),
(194,407,cs),
(168,425,o),
(139,432,o),
(124,432,cs),
(121,432,o),
(119,431,o),
(119,429,cs),
(119,428,o),
(120,427,o),
(121,425,cs),
(123,421,o),
(124,416,o),
(124,409,cs),
(124,364,o),
(78,251,o),
(67,222,cs),
(50,176,o),
(37,126,o),
(37,82,cs),
(37,20,o),
(58,-5,o),
(101,-5,cs),
(164,-5,o),
(232,55,o),
(289,127,c),
(288,122,o),
(287,115,o),
(287,109,cs),
(287,78,o),
(305,55,o),
(332,55,cs),
(360,55,o),
(388,75,o),
(417,121,cs),
(434,149,o),
(450,180,o),
(461,201,cs),
(463,205,o),
(464,208,o),
(464,211,cs),
(464,217,o),
(457,227,o),
(450,227,cs),
(446,227,o),
(443,224,o),
(441,220,cs),
(418,173,o)
);
}
);
width = 374;
}
);
metricRight = n;
note = v;
unicode = 118;
}
{
color = 3;
glyphname = w;
kernLeft = _w_ss02;
kernRight = _v;
layers = (
{
anchors = (
{
name = bottom;
pos = (285,0);
},
{
name = top;
pos = (372,405);
}
);
background = {
anchors = (
{
name = bottom;
pos = (285,0);
},
{
name = top;
pos = (383,425);
}
);
};
layerId = "C623C401-2266-4A98-B253-3D45160C29C7";
shapes = (
{
closed = 1;
nodes = (
(232,95,o),
(231,86,o),
(231,70,cs),
(231,24,o),
(257,-5,o),
(298,-5,cs),
(361,-5,o),
(429,55,o),
(486,127,c),
(485,122,o),
(484,115,o),
(484,109,cs),
(484,78,o),
(502,55,o),
(529,55,cs),
(557,55,o),
(585,75,o),
(614,121,cs),
(631,149,o),
(647,180,o),
(658,201,cs),
(660,205,o),
(661,208,o),
(661,211,cs),
(661,217,o),
(654,227,o),
(647,227,cs),
(643,227,o),
(640,224,o),
(638,220,cs),
(615,173,o),
(592,134,o),
(569,106,cs),
(556,90,o),
(543,84,o),
(535,84,cs),
(523,84,o),
(514,95,o),
(514,122,cs),
(514,147,o),
(522,173,o),
(545,212,cs),
(577,267,o),
(612,336,o),
(612,369,cs),
(612,400,o),
(581,427,o),
(508,427,cs),
(501,427,o),
(498,427,o),
(487,426,cs),
(479,425,o),
(478,424,o),
(478,423,cs),
(478,422,o),
(480,421,o),
(482,419,cs),
(495,407,o),
(501,388,o),
(501,365,cs),
(501,322,o),
(481,263,o),
(451,206,cs),
(410,127,o),
(378,85,o),
(358,66,cs),
(352,61,o),
(346,57,o),
(341,57,cs),
(336,57,o),
(333,61,o),
(333,69,cs),
(333,89,o),
(347,133,o),
(369,187,cs),
(392,243,o),
(418,297,o),
(418,325,cs),
(418,381,o),
(352,409,o),
(309,409,cs),
(306,409,o),
(304,408,o),
(304,406,cs),
(304,405,o),
(305,404,o),
(306,402,cs),
(308,398,o),
(309,393,o),
(309,386,cs),
(309,332,o),
(278,257,o),
(251,206,cs),
(210,127,o),
(185,91,o),
(165,71,cs),
(158,64,o),
(150,59,o),
(142,59,cs),
(135,59,o),
(130,65,o),
(130,74,cs),
(130,94,o),
(152,143,o),
(176,193,cs),
(204,252,o),
(235,317,o),
(235,348,cs),
(235,398,o),
(177,428,o),
(134,431,cs),
(130,431,o),
(128,430,o),
(128,427,cs),
(128,423,o),
(132,422,o),
(132,410,cs),
(132,377,o),
(106,313,o),
(79,253,cs),
(51,190,o),
(28,133,o),
(28,70,cs),
(28,28,o),
(46,-5,o),
(98,-5,cs),
(144,-5,o),
(190,45,o),
(235,113,c)
);
}
);
width = 571;
}
);
metricRight = n;
note = w;
unicode = 119;
}
{
color = 6;
glyphname = x;
kernLeft = _x;
kernRight = _x;
layers = (
{
background = {
shapes = (
{
closed = 1;
nodes = (
(282,-7,o),
(317,17,o),
(341,50,cs),
(375,95,o),
(403,154,o),
(427,201,cs),
(432,211,o),
(425,221,o),
(417,221,cs),
(412,221,o),
(406,218,o),
(402,209,cs),
(395,195,o),
(363,132,o),
(335,101,cs),
(321,86,o),
(310,79,o),
(301,79,cs),
(269,79,o),
(266,162,o),
(267,236,c),
(346,322,o),
(410,400,o),
(420,417,cs),
(427,429,o),
(430,442,o),
(430,452,cs),
(430,464,o),
(426,472,o),
(421,472,cs),
(420,472,o),
(418,471,o),
(416,469,cs),
(391,435,o),
(320,348,o),
(267,287,c),
(267,299,ls),
(267,338,o),
(265,377,o),
(260,409,cs),
(256,434,o),
(242,442,o),
(223,442,cs),
(189,442,o),
(140,411,o),
(123,394,c),
(122,337,o),
(81,247,o),
(48,183,cs),
(46,178,o),
(45,174,o),
(45,171,cs),
(45,164,o),
(49,160,o),
(54,160,cs),
(59,160,o),
(66,164,o),
(72,174,cs),
(103,230,o),
(123,275,o),
(139,313,c),
(139,207,ls),
(139,186,o),
(139,167,o),
(140,152,c),
(97,100,o),
(43,42,o),
(18,26,cs),
(12,22,o),
(9,19,o),
(9,16,cs),
(9,7,o),
(27,2,o),
(43,2,cs),
(48,2,o),
(54,3,o),
(58,4,cs),
(74,9,o),
(110,52,o),
(143,97,c),
(144,49,o),
(161,-7,o),
(234,-7,cs)
);
}
);
};
layerId = "C623C401-2266-4A98-B253-3D45160C29C7";
shapes = (
{
closed = 1;
nodes = (
(379,102,o),
(410,167,o),
(428,201,cs),
(430,205,o),
(431,208,o),
(431,211,cs),
(431,217,o),
(424,227,o),
(417,227,cs),
(413,227,o),
(410,224,o),
(408,220,cs),
(398,200,o),
(369,139,o),
(338,101,cs),
(322,81,o),
(311,75,o),
(301,75,cs),
(279,75,o),
(265,119,o),
(267,236,c),
(346,322,o),
(410,400,o),
(420,417,cs),
(427,429,o),
(430,442,o),
(430,452,cs),
(430,464,o),
(426,472,o),
(421,472,cs),
(418,472,o),
(416,469,o),
(413,465,cs),
(386,429,o),
(318,346,o),
(267,287,c),
(267,299,ls),
(267,338,o),
(265,377,o),
(260,409,cs),
(256,434,o),
(242,442,o),
(223,442,cs),
(195,442,o),
(153,422,o),
(129,404,cs),
(122,398,o),
(119,395,o),
(119,390,cs),
(119,384,o),
(127,374,o),
(132,345,cs),
(142,292,o),
(140,168,o),
(140,152,c),
(97,100,o),
(43,42,o),
(18,26,cs),
(12,22,o),
(9,19,o),
(9,16,cs),
(9,7,o),
(27,2,o),
(43,2,cs),
(48,2,o),
(54,3,o),
(58,4,cs),
(74,9,o),
(110,52,o),
(143,97,c),
(147,54,o),
(159,-7,o),
(232,-7,cs),
(273,-7,o),
(305,11,o),
(336,49,cs)
);
}
);
width = 341;
}
);
metricRight = n;
note = x;
unicode = 120;
}
{
glyphname = y;
kernLeft = _y;
kernRight = _n;
layers = (
{
anchors = (
{
name = bottom;
pos = (364,-10);
},
{
name = top;
pos = (329,424);
}
);
background = {
anchors = (
{
name = bottom;
pos = (203,0);
},
{
name = top;
pos = (203,454);
}
);
shapes = (
{
closed = 1;
nodes = (
(193,-197,o),
(252,-111,o),
(293,-13,c),
(304,-8,o),
(315,-2,o),
(325,5,cs),
(350,21,o),
(376,43,o),
(401,70,cs),
(433,105,o),
(463,150,o),
(488,203,cs),
(489,206,o),
(490,208,o),
(490,211,cs),
(490,218,o),
(484,224,o),
(478,224,cs),
(473,224,o),
(469,222,o),
(466,216,cs),
(446,178,o),
(425,140,o),
(401,111,cs),
(372,74,o),
(341,46,o),
(307,25,c),
(338,109,o),
(355,190,o),
(390,268,cs),
(418,331,o),
(454,398,o),
(477,398,cs),
(484,398,o),
(491,402,o),
(491,407,cs),
(491,412,o),
(486,417,o),
(473,421,cs),
(465,424,o),
(444,428,o),
(421,428,cs),
(413,428,o),
(404,427,o),
(396,426,cs),
(363,421,o),
(330,396,o),
(300,338,cs),
(282,302,o),
(267,261,o),
(252,231,cs),
(232,192,o),
(204,136,o),
(177,102,cs),
(170,94,o),
(162,88,o),
(157,88,cs),
(152,88,o),
(150,93,o),
(150,101,cs),
(150,128,o),
(172,192,o),
(202,258,cs),
(233,327,o),
(280,404,o),
(295,408,c),
(274,412,o),
(251,416,o),
(228,416,cs),
(188,416,o),
(149,404,o),
(125,357,cs),
(109,326,o),
(80,258,o),
(57,193,cs),
(46,161,o),
(29,112,o),
(29,71,cs),
(29,36,o),
(42,6,o),
(83,-1,cs),
(129,-8,o),
(170,38,o),
(206,92,c),
(252,174,l),
(231,109,o),
(211,48,o),
(186,-20,c),
(113,-38,o),
(-15,-71,o),
(-15,-142,cs),
(-15,-182,o),
(25,-201,o),
(89,-199,cs)
);
},
{
closed = 1;
nodes = (
(34,-158,o),
(27,-148,o),
(27,-135,cs),
(27,-93,o),
(114,-66,o),
(173,-51,c),
(145,-109,o),
(98,-158,o),
(59,-158,cs)
);
}
);
};
layerId = "C623C401-2266-4A98-B253-3D45160C29C7";
shapes = (
{
closed = 1;
nodes = (
(249,165,l),
(229,104,o),
(210,45,o),
(186,-20,c),
(112,-38,o),
(-15,-72,o),
(-15,-142,cs),
(-15,-180,o),
(19,-199,o),
(81,-199,cs),
(195,-199,o),
(252,-111,o),
(293,-13,c),
(328,3,o),
(370,36,o),
(401,70,cs),
(433,105,o),
(462,150,o),
(486,197,cs),
(488,201,o),
(491,208,o),
(491,211,cs),
(491,217,o),
(484,227,o),
(477,227,cs),
(473,227,o),
(470,224,o),
(468,220,cs),
(449,182,o),
(427,145,o),
(400,112,cs),
(374,79,o),
(342,46,o),
(307,25,c),
(338,109,o),
(355,190,o),
(390,268,cs),
(408,310,o),
(426,353,o),
(446,377,cs),
(456,390,o),
(467,398,o),
(479,398,cs),
(486,398,o),
(491,401,o),
(491,407,cs),
(491,418,o),
(462,428,o),
(421,428,cs),
(366,428,o),
(335,405,o),
(300,338,cs),
(282,302,o),
(267,261,o),
(252,231,cs),
(232,192,o),
(204,136,o),
(177,102,cs),
(168,92,o),
(162,88,o),
(157,88,cs),
(153,88,o),
(150,92,o),
(150,101,cs),
(150,128,o),
(172,192,o),
(202,258,cs),
(229,318,o),
(267,382,o),
(287,402,cs),
(291,406,o),
(290,409,o),
(285,410,cs),
(267,414,o),
(247,416,o),
(228,416,cs),
(177,416,o),
(147,398,o),
(125,357,cs),
(95,300,o),
(29,141,o),
(29,71,cs),
(29,24,o),
(56,-2,o),
(93,-2,cs),
(122,-2,o),
(148,18,o),
(172,46,cs),
(203,82,o),
(228,131,o),
(248,166,c)
);
},
{
closed = 1;
nodes = (
(34,-158,o),
(27,-148,o),
(27,-135,cs),
(27,-95,o),
(109,-68,o),
(168,-52,c),
(143,-113,o),
(100,-158,o),
(59,-158,cs)
);
}
);
width = 401;
}
);
metricRight = n;
note = y;
unicode = 121;
}
{
color = 3;
glyphname = z;
kernLeft = _z;
kernRight = _n;
layers = (
{
anchors = (
{
name = bottom;
pos = (177,0);
},
{
name = center;
pos = (232,213);
},
{
name = top;
pos = (303,405);
}
);
background = {
anchors = (
{
name = bottom;
pos = (177,0);
},
{
name = center;
pos = (232,213);
},
{
name = top;
pos = (323,425);
}
);
};
guides = (
{
pos = (95,152);
}
);
layerId = "C623C401-2266-4A98-B253-3D45160C29C7";
shapes = (
{
closed = 1;
nodes = (
(348,98,o),
(333,92,o),
(308,92,cs),
(266,92,o),
(207,108,o),
(179,130,c),
(330,239,o),
(428,328,o),
(428,434,cs),
(428,440,o),
(424,444,o),
(415,444,cs),
(407,444,o),
(403,441,o),
(402,434,cs),
(397,404,o),
(373,396,o),
(342,396,cs),
(294,397,o),
(261,422,o),
(227,422,cs),
(200,422,o),
(173,406,o),
(138,350,cs),
(119,319,o),
(84,254,o),
(55,196,cs),
(51,188,o),
(48,179,o),
(48,171,cs),
(48,159,o),
(51,152,o),
(56,152,cs),
(59,152,o),
(63,155,o),
(67,163,cs),
(79,185,o),
(88,203,o),
(97,219,cs),
(149,309,o),
(174,319,o),
(231,319,cs),
(265,319,o),
(294,313,o),
(307,304,c),
(205,228,o),
(90,116,o),
(34,33,cs),
(26,20,o),
(20,10,o),
(20,2,cs),
(20,-5,o),
(28,-14,o),
(36,-14,cs),
(41,-14,o),
(45,-11,o),
(49,-2,cs),
(59,18,o),
(69,35,o),
(88,35,cs),
(112,35,o),
(134,24,o),
(162,15,cs),
(190,5,o),
(222,-4,o),
(255,-4,cs),
(289,-4,o),
(312,5,o),
(335,28,cs),
(370,63,o),
(423,153,o),
(445,201,cs),
(447,205,o),
(448,208,o),
(448,211,cs),
(448,217,o),
(441,227,o),
(434,227,cs),
(430,227,o),
(427,224,o),
(425,220,cs),
(415,201,o),
(393,156,o),
(371,127,cs)
);
}
);
width = 358;
}
);
metricRight = n;
note = z;
unicode = 122;
}
{
glyphname = braceleft;
layers = (
{
background = {
shapes = (
{
closed = 1;
nodes = (
(172,-52,o),
(233,-36,o),
(264,-23,c),
(271,-21,o),
(289,-5,o),
(289,4,cs),
(289,7,o),
(286,9,o),
(279,9,cs),
(275,9,o),
(269,8,o),
(261,6,cs),
(227,-2,o),
(202,-6,o),
(182,-6,cs),
(143,-6,o),
(129,8,o),
(129,30,cs),
(129,81,o),
(210,174,o),
(246,222,cs),
(256,235,o),
(262,253,o),
(262,269,cs),
(262,299,o),
(243,328,o),
(188,338,c),
(275,353,o),
(334,374,o),
(366,445,cs),
(390,497,o),
(422,605,o),
(511,605,cs),
(526,605,o),
(542,602,o),
(560,596,cs),
(567,594,o),
(575,604,o),
(576,610,cs),
(577,633,o),
(526,649,o),
(468,649,cs),
(423,649,o),
(375,639,o),
(344,615,cs),
(301,581,o),
(282,530,o),
(256,474,cs),
(219,397,o),
(212,371,o),
(135,371,cs),
(105,371,o),
(78,349,o),
(78,335,cs),
(78,327,o),
(85,322,o),
(101,322,cs),
(141,322,o),
(153,309,o),
(153,292,cs),
(153,270,o),
(132,241,o),
(121,226,cs),
(77,164,o),
(31,92,o),
(21,56,cs),
(18,43,o),
(16,31,o),
(16,21,cs),
(16,-35,o),
(63,-52,o),
(118,-52,cs)
);
}
);
};
guides = (
{
pos = (155,259);
},
{
angle = 245;
pos = (267,151);
},
{
angle = 245;
pos = (142,151);
},
{
angle = 245;
pos = (308,151);
},
{
angle = 245;
pos = (183,151);
},
{
angle = 245;
pos = (425,194);
}
);
layerId = "C623C401-2266-4A98-B253-3D45160C29C7";
shapes = (
{
closed = 1;
nodes = (
(197,260,l),
(280,275,o),
(331,297,o),
(365,366,cs),
(403,443,o),
(433,518,o),
(458,552,cs),
(481,583,o),
(512,604,o),
(553,604,cs),
(582,604,o),
(593,595,o),
(604,595,cs),
(611,595,o),
(618,603,o),
(618,609,cs),
(618,629,o),
(566,648,o),
(513,648,cs),
(455,648,o),
(406,634,o),
(374,604,cs),
(331,564,o),
(300,489,o),
(245,372,cs),
(216,310,o),
(196,292,o),
(136,292,cs),
(107,292,o),
(79,274,o),
(79,256,cs),
(79,248,o),
(86,243,o),
(102,243,cs),
(139,243,o),
(155,233,o),
(155,211,cs),
(155,168,o),
(83,84,o),
(83,31,cs),
(83,-27,o),
(130,-52,o),
(196,-52,cs),
(230,-52,o),
(268,-45,o),
(294,-31,cs),
(303,-26,o),
(310,-18,o),
(310,-11,cs),
(310,-5,o),
(307,0,o),
(297,0,cs),
(288,0,o),
(265,-4,o),
(244,-4,cs),
(216,-4,o),
(190,2,o),
(190,26,cs),
(190,62,o),
(258,147,o),
(258,190,cs),
(258,218,o),
(246,246,o),
(197,257,c)
);
}
);
width = 429;
}
);
note = braceleft;
unicode = 123;
}
{
color = 4;
glyphname = bar;
layers = (
{
background = {
shapes = (
{
closed = 1;
nodes = (
(152,1,l),
(419,632,l),
(306,632,l),
(39,1,l)
);
}
);
};
layerId = "C623C401-2266-4A98-B253-3D45160C29C7";
shapes = (
{
closed = 1;
nodes = (
(152,1,l),
(419,632,l),
(306,632,l),
(39,1,l)
);
}
);
width = 309;
}
);
note = bar;
unicode = 124;
}
{
glyphname = braceright;
layers = (
{
background = {
shapes = (
{
closed = 1;
nodes = (
(170,-52,o),
(218,-42,o),
(249,-18,cs),
(292,16,o),
(311,67,o),
(337,123,cs),
(374,200,o),
(381,226,o),
(458,226,cs),
(488,226,o),
(515,248,o),
(515,262,cs),
(515,270,o),
(508,275,o),
(492,275,cs),
(452,275,o),
(440,288,o),
(440,305,cs),
(440,327,o),
(461,356,o),
(472,371,cs),
(516,433,o),
(562,505,o),
(572,541,cs),
(575,554,o),
(577,566,o),
(577,576,cs),
(577,632,o),
(530,649,o),
(475,649,cs),
(421,649,o),
(360,633,o),
(329,620,c),
(322,618,o),
(304,602,o),
(304,593,cs),
(304,590,o),
(307,588,o),
(314,588,cs),
(318,588,o),
(324,589,o),
(332,591,cs),
(366,599,o),
(391,603,o),
(411,603,cs),
(450,603,o),
(464,589,o),
(464,567,cs),
(464,516,o),
(383,423,o),
(347,375,cs),
(337,362,o),
(331,344,o),
(331,328,cs),
(331,298,o),
(350,269,o),
(405,259,c),
(318,244,o),
(259,223,o),
(227,152,cs),
(203,100,o),
(171,-8,o),
(82,-8,cs),
(67,-8,o),
(51,-5,o),
(33,1,cs),
(26,3,o),
(18,-7,o),
(17,-13,cs),
(16,-36,o),
(67,-52,o),
(125,-52,cs)
);
}
);
};
guides = (
{
pos = (279,259);
},
{
angle = 245;
pos = (351,151);
},
{
angle = 245;
pos = (256,111);
},
{
angle = 245;
pos = (392,151);
}
);
layerId = "C623C401-2266-4A98-B253-3D45160C29C7";
shapes = (
{
closed = 1;
nodes = (
(397,258,l),
(338,258,o),
(269,243,o),
(228,155,cs),
(215,127,o),
(193,72,o),
(173,44,cs),
(151,14,o),
(123,-8,o),
(82,-8,cs),
(58,-8,o),
(47,1,o),
(36,1,cs),
(29,1,o),
(22,-7,o),
(22,-13,cs),
(22,-33,o),
(69,-52,o),
(122,-52,cs),
(180,-52,o),
(230,-39,o),
(261,-8,cs),
(292,23,o),
(307,57,o),
(351,151,cs),
(381,214,o),
(398,226,o),
(458,226,cs),
(487,226,o),
(515,244,o),
(515,262,cs),
(515,270,o),
(508,275,o),
(492,275,cs),
(455,275,o),
(439,285,o),
(439,307,cs),
(439,370,o),
(577,482,o),
(577,575,cs),
(577,624,o),
(541,648,o),
(475,648,cs),
(431,648,o),
(374,637,o),
(329,619,cs),
(316,614,o),
(304,599,o),
(304,592,cs),
(304,589,o),
(307,587,o),
(314,587,cs),
(330,587,o),
(377,602,o),
(411,602,cs),
(450,602,o),
(464,588,o),
(464,566,cs),
(464,497,o),
(331,391,o),
(331,328,cs),
(331,300,o),
(348,272,o),
(397,261,c)
);
}
);
width = 554;
}
);
note = braceright;
unicode = 125;
}
{
color = 4;
glyphname = asciitilde;
layers = (
{
background = {
shapes = (
{
closed = 1;
nodes = (
(485,533,o),
(510,570,o),
(525,591,c),
(529,595,o),
(522,607,o),
(517,607,cs),
(516,607,o),
(516,607,o),
(515,606,cs),
(507,596,o),
(489,582,o),
(462,582,cs),
(418,582,o),
(387,608,o),
(343,608,cs),
(309,608,o),
(276,572,o),
(266,554,cs),
(264,549,o),
(275,539,o),
(280,539,cs),
(281,539,o),
(282,540,o),
(283,541,cs),
(291,553,o),
(304,559,o),
(333,559,cs),
(374,559,o),
(408,533,o),
(451,533,cs)
);
}
);
};
layerId = "C623C401-2266-4A98-B253-3D45160C29C7";
shapes = (
{
pos = (269,35);
ref = tildecomb;
}
);
width = 514;
}
);
note = asciitilde;
unicode = 126;
}
{
glyphname = exclamdown;
layers = (
{
background = {
shapes = (
{
closed = 1;
nodes = (
(137,-91,o),
(179,-80,o),
(188,-56,cs),
(299,246,ls),
(303,257,o),
(285,263,o),
(267,263,cs),
(254,263,o),
(242,260,o),
(237,253,cs),
(27,-58,ls),
(25,-61,o),
(24,-63,o),
(24,-66,cs),
(24,-81,o),
(60,-91,o),
(98,-91,cs)
);
},
{
closed = 1;
nodes = (
(337,304,o),
(379,348,o),
(379,393,cs),
(379,419,o),
(363,436,o),
(339,436,cs),
(301,436,o),
(258,393,o),
(258,348,cs),
(258,322,o),
(273,304,o),
(298,304,cs)
);
}
);
};
layerId = "C623C401-2266-4A98-B253-3D45160C29C7";
shapes = (
{
angle = 180;
pos = (449,428);
ref = exclam;
}
);
width = 364;
}
);
note = exclamdown;
unicode = 161;
}
{
glyphname = cent;
layers = (
{
background = {
shapes = (
{
closed = 1;
nodes = (
(115,-46,o),
(122,-42,o),
(125,-34,cs),
(171,75,l),
(193,75,ls),
(236,75,o),
(299,103,o),
(327,137,cs),
(337,151,o),
(343,164,o),
(343,171,cs),
(343,176,o),
(341,178,o),
(338,178,cs),
(333,178,o),
(326,174,o),
(315,166,cs),
(274,134,o),
(244,122,o),
(224,122,cs),
(198,122,o),
(187,142,o),
(187,167,cs),
(187,172,o),
(187,177,o),
(188,182,cs),
(199,249,o),
(239,340,o),
(246,354,cs),
(264,393,o),
(291,444,o),
(311,469,cs),
(320,480,o),
(330,485,o),
(338,485,cs),
(347,485,o),
(353,479,o),
(353,465,cs),
(353,462,o),
(353,458,o),
(352,453,cs),
(351,445,o),
(347,434,o),
(341,421,cs),
(340,418,o),
(339,415,o),
(339,412,cs),
(339,396,o),
(355,383,o),
(372,383,cs),
(386,383,o),
(400,391,o),
(408,410,cs),
(415,426,o),
(419,441,o),
(419,455,cs),
(419,462,o),
(417,468,o),
(415,473,cs),
(407,489,o),
(388,501,o),
(356,508,c),
(403,608,ls),
(406,615,o),
(398,619,o),
(388,619,cs),
(376,619,o),
(361,614,o),
(357,605,cs),
(316,513,l),
(304,514,o),
(291,515,o),
(278,515,cs),
(208,515,o),
(156,442,o),
(126,381,cs),
(100,329,o),
(67,250,o),
(67,186,cs),
(67,140,o),
(84,101,o),
(131,84,c),
(89,-18,ls),
(88,-21,o),
(87,-24,o),
(87,-27,cs),
(87,-38,o),
(98,-46,o),
(108,-46,cs)
);
}
);
};
layerId = "C623C401-2266-4A98-B253-3D45160C29C7";
shapes = (
{
closed = 1;
nodes = (
(67,119,o),
(114,75,o),
(184,75,cs),
(238,75,o),
(273,98,o),
(300,133,cs),
(318,157,o),
(323,172,o),
(323,180,cs),
(323,185,o),
(322,187,o),
(319,187,cs),
(314,187,o),
(306,176,o),
(291,160,cs),
(261,126,o),
(240,116,o),
(211,116,cs),
(186,116,o),
(167,130,o),
(167,160,cs),
(167,227,o),
(244,401,o),
(288,456,cs),
(302,473,o),
(317,485,o),
(333,485,cs),
(357,485,o),
(375,473,o),
(375,432,cs),
(375,400,o),
(363,368,o),
(363,358,cs),
(363,353,o),
(365,351,o),
(370,351,cs),
(380,351,o),
(414,402,o),
(414,437,cs),
(414,488,o),
(384,516,o),
(288,516,cs),
(217,516,o),
(171,469,o),
(126,381,cs),
(99,328,o),
(67,250,o),
(67,186,cs)
);
},
{
closed = 1;
nodes = (
(402,580,o),
(402,600,cs),
(402,612,o),
(398,619,o),
(391,619,cs),
(384,619,o),
(379,612,o),
(376,602,cs),
(345,513,o),
(229,195,o),
(135,15,cs),
(131,8,o),
(127,1,o),
(127,-3,cs),
(127,-9,o),
(131,-12,o),
(137,-12,cs),
(146,-12,o),
(155,-2,o),
(163,11,cs),
(212,96,o)
);
}
);
width = 344;
}
);
note = cent;
unicode = 162;
}
{
glyphname = sterling;
layers = (
{
anchors = (
{
name = top;
pos = (189,306);
}
);
background = {
shapes = (
{
closed = 1;
nodes = (
(29,-2,o),
(33,-2,o),
(38,0,cs),
(64,8,o),
(100,10,o),
(140,10,cs),
(220,10,o),
(315,0,o),
(371,-1,cs),
(403,-2,o),
(434,69,o),
(448,110,cs),
(451,117,o),
(449,120,o),
(445,120,cs),
(438,120,o),
(425,112,o),
(423,111,cs),
(384,90,o),
(323,86,o),
(268,86,cs),
(239,86,o),
(211,87,o),
(189,87,c),
(200,122,o),
(225,186,o),
(255,255,c),
(345,255,ls),
(351,255,o),
(377,281,o),
(377,294,cs),
(377,298,o),
(374,300,o),
(368,300,cs),
(275,300,l),
(329,422,o),
(365,486,o),
(388,516,cs),
(398,529,o),
(409,535,o),
(418,535,cs),
(428,535,o),
(435,527,o),
(435,512,cs),
(435,503,o),
(432,491,o),
(425,477,cs),
(418,462,o),
(408,444,o),
(395,426,cs),
(387,415,o),
(384,406,o),
(384,401,cs),
(384,396,o),
(387,393,o),
(391,393,cs),
(396,393,o),
(403,397,o),
(410,404,cs),
(435,430,o),
(467,477,o),
(467,518,cs),
(467,547,o),
(451,574,o),
(405,588,cs),
(390,593,o),
(374,596,o),
(360,596,cs),
(239,593,o),
(204,431,o),
(156,300,c),
(117,300,ls),
(104,300,o),
(65,255,o),
(82,255,cs),
(141,255,l),
(111,163,o),
(81,77,o),
(42,40,cs),
(30,29,o),
(18,13,o),
(18,4,cs),
(18,1,o),
(20,-2,o),
(26,-2,cs)
);
}
);
};
layerId = "C623C401-2266-4A98-B253-3D45160C29C7";
shapes = (
{
closed = 1;
nodes = (
(39,-4,o),
(51,10,o),
(140,10,cs),
(220,10,o),
(315,0,o),
(371,-1,cs),
(384,-1,o),
(396,7,o),
(408,25,cs),
(420,43,o),
(435,73,o),
(441,88,cs),
(448,105,o),
(450,113,o),
(450,116,cs),
(450,119,o),
(448,121,o),
(445,121,cs),
(441,121,o),
(435,117,o),
(423,111,cs),
(382,91,o),
(331,86,o),
(268,86,cs),
(239,86,o),
(210,86,o),
(188,86,c),
(220,178,o),
(329,441,o),
(388,516,cs),
(398,529,o),
(409,535,o),
(418,535,cs),
(428,535,o),
(435,527,o),
(435,512,cs),
(435,485,o),
(408,446,o),
(395,426,cs),
(388,415,o),
(384,406,o),
(384,401,cs),
(384,396,o),
(387,393,o),
(391,393,cs),
(396,393,o),
(403,397,o),
(410,404,cs),
(435,430,o),
(467,477,o),
(467,518,cs),
(467,547,o),
(451,572,o),
(411,586,cs),
(390,593,o),
(378,596,o),
(362,596,cs),
(301,596,o),
(250,554,o),
(208,446,cs),
(168,342,o),
(138,235,o),
(101,142,cs),
(81,93,o),
(64,64,o),
(42,40,cs),
(30,27,o),
(18,13,o),
(18,4,cs),
(18,1,o),
(19,-4,o),
(26,-4,cs)
);
},
{
closed = 1;
nodes = (
(145,254,o),
(286,254,o),
(349,254,cs),
(352,254,o),
(354,255,o),
(356,257,cs),
(362,263,o),
(378,287,o),
(378,296,cs),
(378,300,o),
(376,302,o),
(371,302,cs),
(313,302,o),
(177,302,o),
(119,302,cs),
(107,302,o),
(105,301,o),
(98,294,cs),
(89,284,o),
(78,265,o),
(78,257,cs),
(78,255,o),
(80,254,o),
(82,254,cs)
);
}
);
width = 467;
}
);
note = sterling;
unicode = 163;
}
{
color = 4;
glyphname = currency;
layers = (
{
background = {
shapes = (
{
closed = 1;
nodes = (
(70,201,o),
(91,203,o),
(97,208,cs),
(153,262,l),
(169,255,o),
(187,251,o),
(208,251,cs),
(224,252,o),
(241,255,o),
(257,261,c),
(270,236,o),
(280,216,o),
(283,209,cs),
(285,204,o),
(304,201,o),
(324,201,cs),
(347,201,o),
(370,205,o),
(366,212,cs),
(317,299,l),
(345,326,o),
(365,361,o),
(365,399,cs),
(365,417,o),
(361,434,o),
(352,450,c),
(397,492,o),
(436,528,o),
(448,537,c),
(455,544,o),
(442,546,o),
(423,546,cs),
(395,546,o),
(356,541,o),
(350,533,cs),
(345,527,o),
(329,511,o),
(310,493,c),
(292,502,o),
(273,508,o),
(252,508,cs),
(236,508,o),
(222,506,o),
(207,502,c),
(191,534,ls),
(188,539,o),
(167,542,o),
(148,542,cs),
(126,542,o),
(106,538,o),
(111,531,cs),
(147,470,l),
(113,442,o),
(89,402,o),
(89,358,cs),
(89,337,o),
(96,318,o),
(105,302,c),
(63,264,o),
(24,231,o),
(2,213,cs),
(-8,205,o),
(20,201,o),
(49,201,cs)
);
},
{
closed = 1;
nodes = (
(176,295,o),
(148,325,o),
(148,366,cs),
(148,419,o),
(196,463,o),
(244,463,cs),
(280,463,o),
(306,435,o),
(306,396,cs),
(306,392,o),
(306,388,o),
(305,383,cs),
(297,335,o),
(256,297,o),
(215,295,cs)
);
}
);
};
layerId = "C623C401-2266-4A98-B253-3D45160C29C7";
shapes = (
{
closed = 1;
nodes = (
(229,308,o),
(291,360,o),
(303,424,cs),
(314,489,o),
(270,541,o),
(206,541,cs),
(143,541,o),
(81,489,o),
(69,424,cs),
(58,360,o),
(102,308,o),
(165,308,cs)
);
},
{
closed = 1;
nodes = (
(138,350,o),
(114,384,o),
(121,425,cs),
(128,466,o),
(163,499,o),
(199,499,cs),
(234,499,o),
(259,466,o),
(251,425,cs),
(244,384,o),
(208,350,o),
(173,350,cs)
);
},
{
closed = 1;
nodes = (
(161,519,l),
(150,536,o),
(130,576,o),
(116,581,cs),
(108,584,o),
(99,585,o),
(90,585,cs),
(77,585,o),
(71,582,o),
(71,577,cs),
(71,573,o),
(77,562,o),
(80,557,cs),
(89,539,o),
(108,506,o),
(114,491,c)
);
},
{
closed = 1;
nodes = (
(266,475,l),
(287,494,o),
(329,532,o),
(349,552,cs),
(353,556,o),
(355,560,o),
(355,563,cs),
(355,570,o),
(330,582,o),
(316,581,cs),
(298,580,o),
(260,533,o),
(235,506,c)
);
},
{
closed = 1;
nodes = (
(111,367,l),
(91,334,o),
(51,298,o),
(31,276,cs),
(26,271,o),
(25,268,o),
(25,265,cs),
(25,253,o),
(42,248,o),
(58,248,cs),
(75,248,o),
(112,296,o),
(145,338,c)
);
},
{
closed = 1;
nodes = (
(194,331,l),
(205,311,o),
(234,245,o),
(267,243,cs),
(286,242,o),
(301,255,o),
(301,260,cs),
(301,263,o),
(295,267,o),
(288,274,cs),
(267,295,o),
(253,328,o),
(244,350,c)
);
}
);
width = 349;
}
);
note = currency;
unicode = 164;
}
{
glyphname = yen;
layers = (
{
anchors = (
{
name = top;
pos = (357,570);
},
{
name = topleft;
pos = (-64,600);
}
);
background = {
shapes = (
{
closed = 1;
nodes = (
(112,-1,o),
(125,0,o),
(137,0,cs),
(157,0,o),
(172,-3,o),
(184,-3,cs),
(208,-3,o),
(220,7,o),
(238,62,cs),
(271,165,o),
(280,220,o),
(313,284,c),
(379,395,o),
(444,478,o),
(549,550,c),
(551,553,o),
(553,556,o),
(553,559,cs),
(553,572,o),
(529,578,o),
(504,578,cs),
(483,578,o),
(461,574,o),
(452,565,cs),
(397,517,o),
(323,401,o),
(268,308,c),
(248,385,o),
(219,464,o),
(198,532,cs),
(183,579,o),
(174,591,o),
(159,591,cs),
(128,591,o),
(77,554,o),
(77,509,cs),
(77,501,o),
(79,493,o),
(82,485,cs),
(128,373,o),
(135,348,o),
(160,234,c),
(162,177,o),
(110,60,o),
(96,-4,c)
);
},
{
closed = 1;
nodes = (
(334,101,ls),
(345,101,o),
(358,123,o),
(358,136,cs),
(358,142,o),
(355,146,o),
(350,146,cs),
(71,146,ls),
(56,146,o),
(29,101,o),
(44,101,cs)
);
},
{
closed = 1;
nodes = (
(366,218,ls),
(377,218,o),
(390,240,o),
(390,253,cs),
(390,259,o),
(387,263,o),
(382,263,cs),
(103,263,ls),
(88,263,o),
(61,218,o),
(76,218,cs)
);
}
);
};
layerId = "C623C401-2266-4A98-B253-3D45160C29C7";
shapes = (
{
closed = 1;
nodes = (
(150,240,o),
(291,240,o),
(354,240,cs),
(357,240,o),
(359,241,o),
(361,243,cs),
(367,249,o),
(383,273,o),
(383,282,cs),
(383,286,o),
(381,288,o),
(376,288,cs),
(318,288,o),
(182,288,o),
(124,288,cs),
(112,288,o),
(110,287,o),
(103,280,cs),
(94,270,o),
(83,251,o),
(83,243,cs),
(83,241,o),
(85,240,o),
(87,240,cs)
);
},
{
closed = 1;
nodes = (
(128,149,o),
(269,149,o),
(332,149,cs),
(335,149,o),
(337,150,o),
(339,152,cs),
(345,158,o),
(361,182,o),
(361,191,cs),
(361,195,o),
(359,197,o),
(354,197,cs),
(296,197,o),
(160,197,o),
(102,197,cs),
(90,197,o),
(88,196,o),
(81,189,cs),
(72,179,o),
(61,160,o),
(61,152,cs),
(61,150,o),
(63,149,o),
(65,149,cs)
);
},
{
closed = 1;
nodes = (
(207,225,l),
(186,272,l),
(176,225,o),
(164,190,o),
(139,110,cs),
(123,58,o),
(109,29,o),
(103,21,cs),
(98,15,o),
(100,9,o),
(104,5,cs),
(119,-7,o),
(139,-13,o),
(161,-13,cs),
(187,-13,o),
(208,-5,o),
(218,11,cs),
(232,34,o),
(245,84,o),
(263,144,cs),
(280,202,o),
(296,255,o),
(313,284,cs),
(386,406,o),
(450,471,o),
(549,550,cs),
(554,554,o),
(555,556,o),
(555,559,cs),
(555,569,o),
(534,578,o),
(504,578,cs),
(483,578,o),
(461,574,o),
(452,565,cs),
(397,517,o),
(288,361,o),
(233,258,c),
(272,259,l),
(263,312,o),
(223,435,o),
(199,508,cs),
(179,569,o),
(152,587,o),
(78,587,cs),
(54,587,o),
(47,577,o),
(47,568,cs),
(47,558,o),
(61,535,o),
(75,501,cs),
(108,421,o),
(158,311,o),
(189,206,c)
);
}
);
width = 412;
}
);
note = yen;
unicode = 165;
}
{
color = 4;
glyphname = section;
layers = (
{
background = {
shapes = (
{
closed = 1;
nodes = (
(231,-242,o),
(350,-182,o),
(350,-76,cs),
(350,-58,o),
(345,-39,o),
(337,-20,c),
(441,-24,o),
(558,45,o),
(558,141,cs),
(558,237,o),
(432,339,o),
(432,445,cs),
(432,465,o),
(436,486,o),
(447,506,cs),
(461,532,o),
(490,572,o),
(523,572,cs),
(538,572,o),
(544,560,o),
(544,543,cs),
(544,513,o),
(526,468,o),
(507,448,cs),
(503,444,o),
(502,440,o),
(502,436,cs),
(502,430,o),
(505,426,o),
(512,426,cs),
(514,426,l),
(570,438,o),
(606,485,o),
(606,528,cs),
(606,568,o),
(574,605,o),
(493,605,cs),
(373,605,o),
(288,531,o),
(288,412,cs),
(288,403,o),
(289,394,o),
(291,384,c),
(283,385,o),
(275,385,o),
(265,384,cs),
(157,377,o),
(80,307,o),
(80,197,cs),
(80,153,o),
(99,113,o),
(123,76,cs),
(158,21,o),
(205,-36,o),
(224,-95,cs),
(231,-115,o),
(233,-131,o),
(233,-145,cs),
(233,-188,o),
(206,-205,o),
(174,-205,cs),
(112,-205,o),
(79,-128,o),
(79,-69,cs),
(79,-58,o),
(80,-48,o),
(82,-39,c),
(15,-55,o),
(-11,-96,o),
(-11,-138,cs),
(-11,-209,o),
(55,-242,o),
(129,-242,cs)
);
},
{
closed = 1;
nodes = (
(350,18,o),
(292,54,o),
(261,113,cs),
(253,129,o),
(242,149,o),
(235,167,cs),
(228,186,o),
(224,205,o),
(224,224,cs),
(224,244,o),
(229,265,o),
(240,286,cs),
(252,309,o),
(274,341,o),
(301,350,c),
(309,331,o),
(319,313,o),
(330,296,cs),
(366,240,o),
(413,183,o),
(432,125,cs),
(439,105,o),
(441,87,o),
(441,73,cs),
(441,35,o),
(420,18,o),
(392,18,cs)
);
}
);
};
layerId = "C623C401-2266-4A98-B253-3D45160C29C7";
shapes = (
{
closed = 1;
nodes = (
(231,-242,o),
(350,-182,o),
(350,-76,cs),
(350,-58,o),
(345,-39,o),
(337,-20,c),
(441,-20,o),
(558,45,o),
(558,141,cs),
(558,237,o),
(432,339,o),
(432,445,cs),
(432,504,o),
(482,572,o),
(523,572,cs),
(538,572,o),
(544,560,o),
(544,543,cs),
(544,513,o),
(526,468,o),
(507,448,cs),
(503,444,o),
(501,440,o),
(501,436,cs),
(501,430,o),
(505,426,o),
(512,426,cs),
(557,425,o),
(606,481,o),
(606,528,cs),
(606,568,o),
(574,605,o),
(493,605,cs),
(373,605,o),
(288,531,o),
(288,412,cs),
(288,403,o),
(289,393,o),
(291,384,c),
(170,384,o),
(80,316,o),
(80,197,cs),
(80,135,o),
(119,79,o),
(158,24,cs),
(196,-31,o),
(233,-85,o),
(233,-145,cs),
(233,-188,o),
(206,-205,o),
(174,-205,cs),
(112,-205,o),
(79,-128,o),
(79,-60,cs),
(79,-48,o),
(77,-44,o),
(69,-44,cs),
(49,-44,o),
(-11,-75,o),
(-11,-138,cs),
(-11,-209,o),
(55,-242,o),
(129,-242,cs)
);
},
{
closed = 1;
nodes = (
(350,18,o),
(292,54,o),
(261,113,cs),
(242,152,o),
(224,181,o),
(224,224,cs),
(224,244,o),
(229,265,o),
(240,286,cs),
(252,309,o),
(274,341,o),
(301,350,c),
(309,331,o),
(319,313,o),
(330,296,cs),
(366,240,o),
(413,183,o),
(432,125,cs),
(439,105,o),
(441,87,o),
(441,73,cs),
(441,35,o),
(420,18,o),
(392,18,cs)
);
}
);
width = 551;
}
);
note = section;
unicode = 167;
}
{
color = 4;
glyphname = copyright;
layers = (
{
background = {
shapes = (
{
closed = 1;
nodes = (
(402,-8,o),
(577,117,o),
(629,285,cs),
(638,314,o),
(642,342,o),
(642,368,cs),
(642,489,o),
(549,565,o),
(410,565,cs),
(242,565,o),
(71,453,o),
(20,285,cs),
(11,254,o),
(6,225,o),
(6,198,cs),
(6,76,o),
(97,-8,o),
(234,-8,cs)
);
},
{
closed = 1;
nodes = (
(303,137,o),
(329,139,o),
(356,143,cs),
(393,149,o),
(421,181,o),
(431,210,cs),
(441,239,l),
(360,240,l),
(353,223,o),
(343,200,o),
(330,193,cs),
(319,188,o),
(306,186,o),
(293,186,cs),
(282,186,o),
(271,188,o),
(263,189,cs),
(248,192,o),
(242,199,o),
(242,214,cs),
(242,228,o),
(248,249,o),
(260,280,cs),
(282,339,o),
(298,363,o),
(320,372,cs),
(326,374,o),
(340,377,o),
(355,377,cs),
(370,377,o),
(386,374,o),
(394,365,c),
(397,363,o),
(398,358,o),
(398,353,cs),
(398,341,o),
(392,323,o),
(388,313,c),
(465,312,l),
(474,337,ls),
(479,351,o),
(481,363,o),
(481,373,cs),
(481,395,o),
(469,407,o),
(450,414,cs),
(432,420,o),
(400,423,o),
(369,423,cs),
(346,423,o),
(324,422,o),
(308,419,cs),
(244,408,o),
(202,373,o),
(169,281,cs),
(157,245,o),
(151,218,o),
(151,198,cs),
(151,163,o),
(168,148,o),
(200,143,cs),
(226,139,o),
(252,137,o),
(278,137,cs)
);
},
{
closed = 1;
nodes = (
(149,51,o),
(82,115,o),
(82,211,cs),
(82,234,o),
(86,259,o),
(94,285,cs),
(135,420,o),
(264,505,o),
(391,505,cs),
(493,505,o),
(564,449,o),
(564,355,cs),
(564,334,o),
(560,310,o),
(552,285,cs),
(511,150,o),
(378,51,o),
(251,51,cs)
);
}
);
};
layerId = "C623C401-2266-4A98-B253-3D45160C29C7";
shapes = (
{
closed = 1;
nodes = (
(402,-8,o),
(577,117,o),
(629,285,cs),
(638,314,o),
(642,342,o),
(642,368,cs),
(642,489,o),
(549,565,o),
(410,565,cs),
(242,565,o),
(71,453,o),
(20,285,cs),
(11,254,o),
(6,225,o),
(6,198,cs),
(6,76,o),
(97,-8,o),
(234,-8,cs)
);
},
{
closed = 1;
nodes = (
(310,136,o),
(335,138,o),
(362,145,cs),
(402,156,o),
(427,183,o),
(440,223,cs),
(445,237,o),
(436,242,o),
(425,242,cs),
(386,242,ls),
(371,242,o),
(366,234,o),
(360,222,cs),
(346,194,o),
(328,186,o),
(296,186,cs),
(264,186,o),
(251,195,o),
(251,216,cs),
(251,230,o),
(255,255,o),
(282,317,cs),
(302,362,o),
(326,376,o),
(360,376,cs),
(389,376,o),
(401,366,o),
(402,351,cs),
(402,346,o),
(400,337,o),
(399,333,cs),
(395,318,o),
(399,312,o),
(415,312,cs),
(428,312,o),
(433,312,o),
(446,312,cs),
(460,312,o),
(469,321,o),
(476,343,cs),
(479,353,o),
(481,365,o),
(481,375,cs),
(481,410,o),
(437,425,o),
(378,425,cs),
(355,425,o),
(333,424,o),
(317,421,cs),
(253,410,o),
(211,375,o),
(178,283,cs),
(166,247,o),
(162,227,o),
(162,207,cs),
(162,155,o),
(211,136,o),
(285,136,cs)
);
},
{
closed = 1;
nodes = (
(149,51,o),
(82,115,o),
(82,211,cs),
(82,234,o),
(86,259,o),
(94,285,cs),
(135,420,o),
(264,505,o),
(391,505,cs),
(493,505,o),
(564,449,o),
(564,355,cs),
(564,334,o),
(560,310,o),
(552,285,cs),
(511,150,o),
(378,51,o),
(251,51,cs)
);
}
);
width = 638;
}
);
note = copyright;
unicode = 169;
}
{
glyphname = ordfeminine;
layers = (
{
background = {
shapes = (
{
closed = 1;
nodes = (
(505,333,o),
(508,334,o),
(508,335,cs),
(508,336,o),
(508,336,o),
(507,337,cs),
(503,342,o),
(501,349,o),
(501,358,cs),
(501,386,o),
(518,428,o),
(526,447,cs),
(539,480,o),
(562,530,o),
(576,536,cs),
(587,540,o),
(583,544,o),
(572,543,cs),
(564,542,o),
(556,542,o),
(547,542,cs),
(525,542,o),
(503,544,o),
(486,544,cs),
(443,544,o),
(408,520,o),
(382,473,cs),
(373,457,o),
(347,404,o),
(347,374,cs),
(347,349,o),
(359,331,o),
(398,334,cs),
(422,337,o),
(439,373,o),
(451,394,c),
(446,353,o),
(460,333,o),
(500,333,cs)
);
},
{
closed = 1;
nodes = (
(405,358,o),
(403,361,o),
(403,366,cs),
(403,395,o),
(460,511,o),
(482,528,cs),
(487,532,o),
(492,535,o),
(497,535,cs),
(500,535,o),
(501,532,o),
(499,528,cs),
(490,504,o),
(454,424,o),
(452,416,c),
(440,388,o),
(419,358,o),
(408,358,cs)
);
}
);
};
layerId = "C623C401-2266-4A98-B253-3D45160C29C7";
shapes = (
{
closed = 1;
nodes = (
(124,329,o),
(122,332,o),
(122,337,cs),
(122,370,o),
(188,500,o),
(212,520,cs),
(217,524,o),
(223,527,o),
(228,527,cs),
(230,527,o),
(231,526,o),
(231,524,cs),
(231,514,o),
(200,448,o),
(186,413,cs),
(164,359,o),
(137,329,o),
(128,329,cs)
);
},
{
closed = 1;
nodes = (
(172,544,o),
(136,519,o),
(105,464,cs),
(85,428,o),
(70,382,o),
(70,356,cs),
(70,324,o),
(87,307,o),
(119,307,cs),
(142,307,o),
(158,322,o),
(184,371,c),
(183,365,o),
(182,359,o),
(182,353,cs),
(182,318,o),
(204,306,o),
(237,306,cs),
(243,306,o),
(247,307,o),
(247,309,cs),
(247,311,o),
(243,313,o),
(241,321,cs),
(241,324,o),
(240,328,o),
(240,332,cs),
(240,355,o),
(247,383,o),
(266,435,cs),
(287,485,o),
(309,528,o),
(326,537,cs),
(328,538,o),
(329,539,o),
(329,541,cs),
(329,543,o),
(328,544,o),
(324,544,cs),
(317,544,o),
(304,541,o),
(277,541,cs),
(261,541,o),
(241,544,o),
(222,544,cs)
);
}
);
width = 259;
}
);
note = ordfeminine;
unicode = 170;
}
{
color = 4;
glyphname = guillemotleft;
layers = (
{
background = {
shapes = (
{
closed = 1;
nodes = (
(539,48,o),
(548,104,o),
(548,131,cs),
(548,138,o),
(547,143,o),
(546,144,cs),
(424,236,l),
(577,325,ls),
(583,329,o),
(593,385,o),
(593,408,cs),
(593,414,o),
(592,418,o),
(591,418,c),
(590,417,l),
(375,268,l),
(368,260,o),
(358,238,o),
(358,221,cs),
(358,215,o),
(359,210,o),
(362,206,c),
(532,54,ls)
);
},
{
closed = 1;
nodes = (
(345,48,o),
(354,104,o),
(354,131,cs),
(354,138,o),
(353,143,o),
(352,144,cs),
(230,236,l),
(383,325,ls),
(389,329,o),
(399,385,o),
(399,408,cs),
(399,414,o),
(398,418,o),
(397,418,c),
(396,417,l),
(180,268,l),
(173,260,o),
(164,237,o),
(164,220,cs),
(164,215,o),
(165,210,o),
(167,206,c),
(338,54,ls)
);
}
);
};
guides = (
{
pos = (652,444);
}
);
layerId = "C623C401-2266-4A98-B253-3D45160C29C7";
shapes = (
{
closed = 1;
nodes = (
(335,57,o),
(337,55,o),
(339,55,cs),
(341,55,o),
(343,57,o),
(346,68,cs),
(350,82,o),
(354,116,o),
(354,131,cs),
(354,141,o),
(353,143,o),
(346,149,cs),
(230,236,l),
(374,320,ls),
(384,326,o),
(386,328,o),
(389,340,cs),
(394,360,o),
(399,393,o),
(399,411,cs),
(399,415,o),
(398,416,o),
(396,416,cs),
(394,416,o),
(390,413,o),
(387,411,cs),
(193,277,ls),
(178,267,o),
(176,263,o),
(170,249,cs),
(167,242,o),
(164,229,o),
(164,220,cs),
(164,212,o),
(165,208,o),
(174,200,cs),
(233,147,o),
(277,108,o),
(329,62,cs)
);
},
{
closed = 1;
nodes = (
(529,57,o),
(531,55,o),
(533,55,cs),
(535,55,o),
(537,57,o),
(540,68,cs),
(544,82,o),
(548,116,o),
(548,131,cs),
(548,141,o),
(547,143,o),
(540,149,cs),
(424,236,l),
(568,320,ls),
(578,326,o),
(580,328,o),
(583,340,cs),
(588,360,o),
(593,393,o),
(593,411,cs),
(593,415,o),
(592,416,o),
(590,416,cs),
(588,416,o),
(584,413,o),
(581,411,cs),
(387,277,ls),
(372,267,o),
(370,263,o),
(364,249,cs),
(361,242,o),
(358,229,o),
(358,220,cs),
(358,212,o),
(359,208,o),
(368,200,cs),
(427,147,o),
(471,108,o),
(523,62,cs)
);
}
);
width = 628;
}
);
note = guillemotleft;
unicode = 171;
}
{
glyphname = logicalnot;
layers = (
{
background = {
shapes = (
{
closed = 1;
nodes = (
(604,12,o),
(623,18,o),
(626,24,c),
(659,131,o),
(704,214,o),
(727,321,cs),
(730,332,o),
(731,351,o),
(731,369,cs),
(731,392,o),
(728,413,o),
(721,413,cs),
(123,412,ls),
(109,412,o),
(80,358,o),
(80,334,cs),
(80,327,o),
(82,323,o),
(88,323,cs),
(646,323,l),
(646,323,o),
(596,119,o),
(577,18,c),
(577,13,o),
(583,12,o),
(591,12,cs)
);
}
);
};
layerId = "C623C401-2266-4A98-B253-3D45160C29C7";
shapes = (
{
closed = 1;
nodes = (
(519,324,o),
(161,324,o),
(83,324,cs),
(79,324,o),
(77,326,o),
(77,329,cs),
(77,340,o),
(90,361,o),
(101,374,cs),
(107,381,o),
(112,383,o),
(129,383,cs),
(194,383,o),
(507,383,o),
(601,383,cs),
(618,383,o),
(626,371,o),
(626,359,cs),
(626,350,o),
(624,342,o),
(622,335,cs),
(584,227,o),
(553,136,o),
(526,63,cs),
(520,44,o),
(510,35,o),
(488,35,cs),
(477,35,o),
(468,38,o),
(466,44,cs),
(465,47,o),
(465,51,o),
(467,55,cs),
(481,92,o),
(525,224,o),
(572,360,c),
(596,324,l)
);
}
);
width = 811;
}
);
note = logicalnot;
unicode = 172;
}
{
glyphname = softhyphen;
layers = (
{
background = {
shapes = (
{
closed = 1;
nodes = (
(340,240,ls),
(346,240,o),
(371,275,o),
(371,291,cs),
(371,297,o),
(368,300,o),
(362,300,cs),
(190,300,ls),
(177,300,o),
(139,240,o),
(156,240,cs)
);
}
);
};
layerId = "C623C401-2266-4A98-B253-3D45160C29C7";
shapes = (
{
closed = 1;
nodes = (
(217,240,o),
(277,240,o),
(337,240,cs),
(342,240,o),
(344,242,o),
(347,245,cs),
(355,253,o),
(372,281,o),
(372,292,cs),
(372,297,o),
(369,300,o),
(363,300,cs),
(309,300,o),
(256,300,o),
(202,300,cs),
(187,300,o),
(184,298,o),
(176,289,cs),
(164,277,o),
(152,255,o),
(152,245,cs),
(152,242,o),
(154,240,o),
(157,240,cs)
);
}
);
width = 369;
}
);
unicode = 173;
}
{
color = 4;
glyphname = registered;
layers = (
{
background = {
shapes = (
{
closed = 1;
nodes = (
(330,340,o),
(407,417,o),
(407,513,cs),
(407,608,o),
(330,686,o),
(231,686,cs),
(132,686,o),
(52,608,o),
(52,513,cs),
(52,417,o),
(132,340,o),
(230,340,cs)
);
},
{
closed = 1;
nodes = (
(158,383,o),
(105,441,o),
(105,512,cs),
(105,584,o),
(158,643,o),
(229,643,cs),
(302,643,o),
(355,584,o),
(355,513,cs),
(355,441,o),
(302,383,o),
(230,383,cs)
);
},
{
closed = 1;
nodes = (
(208,432,l),
(208,489,l),
(236,489,ls),
(245,489,o),
(257,438,o),
(260,432,c),
(317,432,l),
(305,451,o),
(291,503,o),
(271,511,c),
(289,517,o),
(306,528,o),
(306,549,cs),
(306,584,o),
(283,592,o),
(240,592,cs),
(161,592,l),
(161,432,l)
);
},
{
closed = 1;
nodes = (
(210,561,l),
(226,561,o),
(254,566,o),
(254,541,cs),
(254,519,o),
(224,521,o),
(210,521,c)
);
}
);
};
layerId = "C623C401-2266-4A98-B253-3D45160C29C7";
shapes = (
{
closed = 1;
nodes = (
(330,340,o),
(407,417,o),
(407,513,cs),
(407,608,o),
(330,686,o),
(231,686,cs),
(132,686,o),
(52,608,o),
(52,513,cs),
(52,417,o),
(132,340,o),
(230,340,cs)
);
},
{
closed = 1;
nodes = (
(158,383,o),
(105,441,o),
(105,512,cs),
(105,584,o),
(158,643,o),
(229,643,cs),
(302,643,o),
(355,584,o),
(355,513,cs),
(355,441,o),
(302,383,o),
(230,383,cs)
);
},
{
closed = 1;
nodes = (
(212,563,l),
(216,563,o),
(226,563,o),
(228,563,cs),
(248,563,o),
(256,557,o),
(256,543,cs),
(256,527,o),
(240,523,o),
(221,523,cs),
(219,523,o),
(216,523,o),
(212,523,c)
);
},
{
closed = 1;
nodes = (
(166,594,o),
(163,591,o),
(163,585,cs),
(163,537,o),
(163,490,o),
(163,443,cs),
(163,437,o),
(166,434,o),
(172,434,cs),
(201,434,ls),
(207,434,o),
(210,437,o),
(210,443,cs),
(210,491,l),
(238,491,ls),
(245,491,o),
(254,459,o),
(259,443,cs),
(261,437,o),
(264,434,o),
(270,434,cs),
(304,434,ls),
(308,434,o),
(310,437,o),
(310,441,cs),
(310,454,o),
(297,499,o),
(273,513,c),
(287,515,o),
(308,530,o),
(308,551,cs),
(308,586,o),
(272,594,o),
(229,594,cs),
(172,594,ls)
);
}
);
width = 459;
}
);
note = registered;
unicode = 174;
}
{
color = 4;
glyphname = degree;
layers = (
{
background = {
shapes = (
{
closed = 1;
nodes = (
(263,371,o),
(307,414,o),
(307,467,cs),
(307,521,o),
(263,564,o),
(210,564,cs),
(157,564,o),
(113,521,o),
(113,467,cs),
(113,414,o),
(157,371,o),
(210,371,cs)
);
},
{
closed = 1;
nodes = (
(185,415,o),
(164,439,o),
(164,468,cs),
(164,497,o),
(185,520,o),
(210,520,cs),
(235,520,o),
(256,497,o),
(256,468,cs),
(256,439,o),
(235,415,o),
(210,415,cs)
);
}
);
};
layerId = "C623C401-2266-4A98-B253-3D45160C29C7";
shapes = (
{
closed = 1;
nodes = (
(264,370,o),
(307,413,o),
(307,467,cs),
(307,521,o),
(264,564,o),
(210,564,cs),
(156,564,o),
(113,521,o),
(113,467,cs),
(113,413,o),
(156,370,o),
(210,370,cs)
);
},
{
closed = 1;
nodes = (
(181,414,o),
(163,438,o),
(163,467,cs),
(163,496,o),
(181,520,o),
(210,520,cs),
(239,520,o),
(257,496,o),
(257,467,cs),
(257,438,o),
(239,414,o),
(210,414,cs)
);
}
);
width = 349;
}
);
note = degree;
unicode = 176;
}
{
color = 4;
glyphname = plusminus;
layers = (
{
background = {
shapes = (
{
closed = 1;
nodes = (
(332,-60,ls),
(339,-60,o),
(369,-25,o),
(369,-8,cs),
(369,-3,o),
(366,0,o),
(359,0,cs),
(84,0,ls),
(69,0,o),
(25,-60,o),
(45,-60,cs)
);
},
{
ref = plus;
}
);
};
layerId = "C623C401-2266-4A98-B253-3D45160C29C7";
shapes = (
{
closed = 1;
nodes = (
(115,-59,o),
(290,-59,o),
(367,-59,cs),
(372,-59,o),
(375,-58,o),
(379,-54,cs),
(389,-44,o),
(407,-19,o),
(407,-7,cs),
(407,-2,o),
(403,0,o),
(396,0,cs),
(323,0,o),
(153,0,o),
(83,0,cs),
(66,0,o),
(61,-2,o),
(55,-9,cs),
(44,-22,o),
(31,-43,o),
(31,-54,cs),
(31,-57,o),
(33,-59,o),
(37,-59,cs)
);
},
{
ref = plus;
}
);
width = 469;
}
);
note = plusminus;
unicode = 177;
}
{
glyphname = twosuperior;
layers = (
{
background = {
shapes = (
{
closed = 1;
nodes = (
(246,321,o),
(250,322,o),
(251,327,c),
(254,334,o),
(255,341,o),
(255,347,cs),
(255,372,o),
(232,383,o),
(201,383,cs),
(179,383,o),
(140,377,o),
(118,368,c),
(171,402,o),
(317,495,o),
(317,584,cs),
(317,611,o),
(301,632,o),
(258,632,cs),
(217,632,o),
(184,610,o),
(156,581,cs),
(144,569,o),
(140,558,o),
(140,549,cs),
(140,539,o),
(145,533,o),
(153,533,cs),
(169,533,o),
(169,544,o),
(186,570,cs),
(195,585,o),
(217,599,o),
(231,599,cs),
(240,599,o),
(247,594,o),
(247,580,cs),
(247,511,o),
(149,422,o),
(89,379,cs),
(78,370,o),
(68,350,o),
(68,338,cs),
(68,332,o),
(71,328,o),
(76,328,cs),
(197,328,ls),
(223,328,o),
(241,328,o),
(244,324,cs)
);
}
);
};
layerId = "C623C401-2266-4A98-B253-3D45160C29C7";
shapes = (
{
closed = 1;
nodes = (
(130,372,l),
(198,417,o),
(326,497,o),
(326,582,cs),
(326,610,o),
(302,632,o),
(258,632,cs),
(217,632,o),
(184,610,o),
(156,581,cs),
(144,570,o),
(139,558,o),
(139,549,cs),
(139,540,o),
(145,533,o),
(153,533,cs),
(161,533,o),
(165,536,o),
(169,541,cs),
(173,547,o),
(177,556,o),
(186,570,cs),
(195,585,o),
(211,600,o),
(226,600,cs),
(235,600,o),
(243,595,o),
(243,581,cs),
(243,512,o),
(150,423,o),
(90,379,cs),
(78,370,o),
(68,350,o),
(68,338,cs),
(68,332,o),
(71,328,o),
(76,328,cs),
(197,328,ls),
(217,328,o),
(241,328,o),
(251,326,cs),
(258,324,o),
(258,322,o),
(260,322,cs),
(261,322,o),
(262,324,o),
(263,327,cs),
(266,333,o),
(267,341,o),
(267,347,cs),
(267,372,o),
(244,383,o),
(213,383,cs),
(192,383,o),
(153,379,o),
(130,371,c)
);
}
);
width = 405;
}
);
note = twosuperior;
unicode = 178;
}
{
color = 4;
glyphname = threesuperior;
layers = (
{
background = {
shapes = (
{
closed = 1;
nodes = (
(167,328,o),
(186,331,o),
(200,337,cs),
(244,356,o),
(282,415,o),
(282,455,cs),
(282,480,o),
(268,498,o),
(232,495,c),
(250,506,o),
(278,524,o),
(295,546,cs),
(306,560,o),
(312,573,o),
(312,585,cs),
(312,609,o),
(290,626,o),
(250,629,cs),
(214,630,o),
(179,617,o),
(144,579,cs),
(136,570,o),
(133,561,o),
(133,553,cs),
(133,543,o),
(139,536,o),
(146,536,cs),
(150,536,o),
(155,539,o),
(160,545,cs),
(168,557,o),
(204,602,o),
(238,602,cs),
(251,602,o),
(256,595,o),
(256,588,cs),
(256,577,o),
(246,562,o),
(239,556,c),
(225,539,o),
(191,506,o),
(166,504,cs),
(154,503,o),
(148,496,o),
(148,489,cs),
(148,484,o),
(152,479,o),
(160,479,cs),
(162,479,o),
(165,479,o),
(168,480,cs),
(174,482,o),
(188,488,o),
(200,488,cs),
(210,488,o),
(219,483,o),
(219,467,cs),
(219,434,o),
(167,356,o),
(129,356,cs),
(111,356,o),
(105,368,o),
(105,381,cs),
(105,397,o),
(114,417,o),
(120,425,cs),
(123,430,o),
(118,433,o),
(110,433,cs),
(108,433,o),
(106,433,o),
(103,432,cs),
(84,426,o),
(71,408,o),
(71,380,cs),
(71,342,o),
(109,328,o),
(148,328,cs)
);
}
);
};
guides = (
{
pos = (67,632);
},
{
pos = (29,328);
}
);
layerId = "C623C401-2266-4A98-B253-3D45160C29C7";
shapes = (
{
closed = 1;
nodes = (
(185,326,o),
(211,336,o),
(237,358,cs),
(270,386,o),
(289,426,o),
(289,456,cs),
(289,487,o),
(264,498,o),
(233,498,c),
(252,507,o),
(284,524,o),
(301,546,cs),
(313,560,o),
(319,574,o),
(319,587,cs),
(319,611,o),
(291,632,o),
(246,632,cs),
(211,632,o),
(177,618,o),
(143,581,cs),
(135,573,o),
(132,563,o),
(132,556,cs),
(132,545,o),
(138,538,o),
(145,538,cs),
(150,538,o),
(155,540,o),
(163,552,cs),
(185,585,o),
(214,605,o),
(234,605,cs),
(248,605,o),
(254,599,o),
(254,591,cs),
(254,562,o),
(193,507,o),
(165,505,cs),
(153,504,o),
(147,496,o),
(147,490,cs),
(147,484,o),
(152,480,o),
(160,480,cs),
(172,480,o),
(184,489,o),
(201,489,cs),
(210,489,o),
(219,484,o),
(219,468,cs),
(219,433,o),
(167,354,o),
(127,354,cs),
(111,354,o),
(103,367,o),
(103,380,cs),
(103,391,o),
(107,404,o),
(110,410,cs),
(116,423,o),
(120,425,o),
(120,427,cs),
(120,431,o),
(114,433,o),
(108,433,cs),
(88,433,o),
(69,413,o),
(69,379,cs),
(69,345,o),
(102,326,o),
(147,326,cs)
);
}
);
width = 408;
}
);
note = threesuperior;
unicode = 179;
}
{
glyphname = mu;
layers = (
{
background = {
shapes = (
{
closed = 1;
nodes = (
(92,-175,o),
(95,-174,o),
(95,-172,cs),
(95,-171,o),
(94,-170,o),
(93,-168,c),
(85,-159,o),
(81,-146,o),
(81,-130,cs),
(81,-104,o),
(91,-56,o),
(107,0,c),
(152,12,o),
(167,38,o),
(202,92,cs),
(231,142,l),
(226,119,o),
(223,96,o),
(223,76,cs),
(223,40,o),
(234,11,o),
(267,0,cs),
(280,-4,o),
(309,-4,o),
(320,-9,cs),
(327,-13,o),
(333,-7,o),
(333,-2,cs),
(333,-1,o),
(332,1,o),
(331,2,cs),
(323,9,o),
(319,22,o),
(319,40,cs),
(319,139,o),
(433,375,o),
(482,409,cs),
(486,412,o),
(488,414,o),
(488,416,cs),
(488,424,o),
(468,430,o),
(438,430,cs),
(384,430,o),
(350,426,o),
(321,379,cs),
(291,329,o),
(271,273,o),
(245,221,cs),
(225,182,o),
(189,126,o),
(160,91,cs),
(153,82,o),
(144,75,o),
(139,75,cs),
(136,75,o),
(134,77,o),
(134,82,cs),
(134,85,l),
(149,127,ls),
(183,208,o),
(261,367,o),
(284,408,c),
(263,412,o),
(241,416,o),
(219,416,cs),
(182,416,o),
(145,404,o),
(121,357,cs),
(97,310,o),
(36,170,o),
(22,94,c),
(-1,8,o),
(-15,-68,o),
(-15,-96,cs),
(-15,-152,o),
(18,-175,o),
(85,-175,cs)
);
}
);
};
layerId = "C623C401-2266-4A98-B253-3D45160C29C7";
shapes = (
{
closed = 1;
nodes = (
(433,353,o),
(461,400,o),
(477,402,cs),
(486,403,o),
(492,408,o),
(492,413,cs),
(492,419,o),
(488,423,o),
(475,425,cs),
(461,427,o),
(447,428,o),
(425,428,cs),
(402,428,o),
(383,426,o),
(364,414,cs),
(310,380,o),
(268,259,o),
(242,205,cs),
(234,188,o),
(180,56,o),
(146,56,cs),
(138,56,o),
(133,60,o),
(133,73,cs),
(133,102,o),
(157,164,o),
(186,227,cs),
(215,290,o),
(250,355,o),
(272,391,cs),
(274,395,o),
(275,398,o),
(275,401,cs),
(275,407,o),
(266,410,o),
(248,414,cs),
(235,417,o),
(222,418,o),
(216,418,cs),
(180,418,o),
(145,402,o),
(119,352,cs),
(45,210,o),
(-15,-23,o),
(-15,-96,cs),
(-15,-151,o),
(23,-175,o),
(77,-175,cs),
(87,-175,o),
(93,-172,o),
(93,-168,cs),
(93,-163,o),
(88,-164,o),
(84,-150,cs),
(82,-142,o),
(81,-133,o),
(81,-122,cs),
(81,-98,o),
(91,-52,o),
(106,-1,c),
(152,5,o),
(190,39,o),
(228,113,c),
(226,102,o),
(225,88,o),
(225,77,cs),
(225,20,o),
(260,-7,o),
(326,-7,cs),
(337,-7,o),
(344,-4,o),
(344,0,cs),
(344,3,o),
(338,7,o),
(333,16,cs),
(327,27,o),
(324,44,o),
(324,58,cs),
(324,90,o),
(336,140,o),
(356,187,cs),
(369,219,o),
(398,282,o),
(412,310,cs)
);
}
);
width = 612;
}
);
note = mu;
unicode = 181;
}
{
glyphname = periodcentered;
layers = (
{
background = {
shapes = (
{
closed = 1;
nodes = (
(215,204,o),
(252,241,o),
(252,281,cs),
(252,302,o),
(239,317,o),
(218,317,cs),
(185,317,o),
(148,280,o),
(148,241,cs),
(148,219,o),
(161,204,o),
(182,204,cs)
);
}
);
};
layerId = "C623C401-2266-4A98-B253-3D45160C29C7";
shapes = (
{
pos = (30,208);
ref = period;
}
);
width = 307;
}
);
note = periodcentered;
unicode = 183;
}
{
color = 4;
glyphname = onesuperior;
layers = (
{
background = {
shapes = (
{
closed = 1;
nodes = (
(160,399,o),
(257,592,o),
(294,616,cs),
(298,619,o),
(301,622,o),
(301,625,cs),
(301,627,o),
(299,628,o),
(293,629,cs),
(281,631,o),
(270,632,o),
(260,632,cs),
(232,632,o),
(214,623,o),
(195,604,cs),
(172,579,o),
(140,549,o),
(83,500,cs),
(80,497,o),
(78,493,o),
(78,489,cs),
(78,483,o),
(81,478,o),
(85,478,cs),
(86,478,o),
(88,479,o),
(89,480,cs),
(116,503,o),
(136,521,o),
(157,537,c),
(125,475,o),
(92,395,o),
(85,362,cs),
(84,357,o),
(84,353,o),
(84,350,cs),
(84,318,o),
(113,319,o),
(143,319,c)
);
}
);
};
layerId = "C623C401-2266-4A98-B253-3D45160C29C7";
shapes = (
{
closed = 1;
nodes = (
(129,445,o),
(212,588,o),
(239,615,cs),
(243,619,o),
(246,621,o),
(246,623,cs),
(246,628,o),
(234,631,o),
(215,631,cs),
(188,631,o),
(169,622,o),
(151,603,cs),
(128,578,o),
(96,548,o),
(39,500,cs),
(37,498,o),
(35,493,o),
(35,489,cs),
(35,483,o),
(38,478,o),
(42,478,cs),
(45,478,o),
(52,485,o),
(64,496,cs),
(80,509,o),
(101,527,o),
(113,536,c),
(72,455,o),
(40,375,o),
(40,349,cs),
(40,318,o),
(70,319,o),
(89,319,c)
);
}
);
width = 176;
}
);
note = onesuperior;
unicode = 185;
}
{
color = 4;
glyphname = ordmasculine;
layers = (
{
background = {
shapes = (
{
closed = 1;
nodes = (
(154,332,o),
(179,351,o),
(200,378,c),
(203,368,o),
(211,361,o),
(221,361,cs),
(225,361,o),
(231,362,o),
(236,367,c),
(253,380,o),
(268,412,o),
(277,431,cs),
(280,436,o),
(276,439,o),
(272,439,cs),
(270,439,o),
(267,438,o),
(266,436,cs),
(258,420,o),
(248,397,o),
(236,383,cs),
(231,377,o),
(226,372,o),
(221,372,cs),
(213,372,o),
(211,379,o),
(211,387,cs),
(211,390,o),
(211,393,o),
(212,396,c),
(234,433,o),
(248,476,o),
(248,501,cs),
(248,534,o),
(221,539,o),
(193,539,cs),
(122,539,o),
(65,445,o),
(65,380,cs),
(65,342,o),
(89,332,o),
(129,332,cs)
);
},
{
closed = 1;
nodes = (
(104,343,o),
(138,425,o),
(147,443,cs),
(165,483,o),
(189,529,o),
(198,528,cs),
(214,527,o),
(176,448,o),
(170,436,cs),
(152,394,o),
(127,343,o),
(119,343,cs)
);
}
);
};
layerId = "C623C401-2266-4A98-B253-3D45160C29C7";
shapes = (
{
alignment = -1;
pos = (39,311);
ref = o.ss02;
scale = (0.5407,0.5407);
}
);
width = 308;
}
);
note = ordmasculine;
unicode = 186;
}
{
color = 4;
glyphname = guillemotright;
layers = (
{
background = {
shapes = (
{
closed = 1;
nodes = (
(362,54,l),
(577,204,l),
(584,212,o),
(594,234,o),
(594,251,cs),
(594,257,o),
(593,262,o),
(590,266,c),
(420,417,ls),
(413,423,o),
(404,367,o),
(404,341,cs),
(404,334,o),
(405,329,o),
(406,328,cs),
(527,235,l),
(374,147,ls),
(368,143,o),
(358,89,o),
(358,65,cs),
(358,58,o),
(359,54,o),
(361,54,cs)
);
},
{
closed = 1;
nodes = (
(167,54,l),
(383,204,l),
(390,212,o),
(399,235,o),
(399,252,cs),
(399,257,o),
(398,262,o),
(396,266,c),
(226,417,ls),
(219,423,o),
(209,366,o),
(209,340,cs),
(209,333,o),
(210,329,o),
(211,328,cs),
(333,235,l),
(180,147,ls),
(174,143,o),
(164,87,o),
(164,64,cs),
(164,57,o),
(165,53,o),
(166,53,c)
);
}
);
};
guides = (
{
pos = (177,236);
},
{
pos = (177,55);
},
{
pos = (177,416);
}
);
layerId = "C623C401-2266-4A98-B253-3D45160C29C7";
shapes = (
{
closed = 1;
nodes = (
(422,414,o),
(420,416,o),
(418,416,cs),
(416,416,o),
(414,414,o),
(411,403,cs),
(407,389,o),
(403,355,o),
(403,340,cs),
(403,330,o),
(404,328,o),
(411,322,cs),
(527,235,l),
(383,151,ls),
(373,145,o),
(371,143,o),
(368,131,cs),
(363,111,o),
(358,78,o),
(358,60,cs),
(358,56,o),
(359,55,o),
(361,55,cs),
(363,55,o),
(367,58,o),
(370,60,cs),
(564,194,ls),
(579,204,o),
(581,208,o),
(587,222,cs),
(590,229,o),
(593,242,o),
(593,251,cs),
(593,259,o),
(592,263,o),
(583,271,cs),
(524,324,o),
(480,363,o),
(428,409,cs)
);
},
{
closed = 1;
nodes = (
(228,414,o),
(226,416,o),
(224,416,cs),
(222,416,o),
(220,414,o),
(217,403,cs),
(213,389,o),
(209,355,o),
(209,340,cs),
(209,330,o),
(210,328,o),
(217,322,cs),
(333,235,l),
(189,151,ls),
(179,145,o),
(177,143,o),
(174,131,cs),
(169,111,o),
(164,78,o),
(164,60,cs),
(164,56,o),
(165,55,o),
(167,55,cs),
(169,55,o),
(173,58,o),
(176,60,cs),
(370,194,ls),
(385,204,o),
(387,208,o),
(393,222,cs),
(396,229,o),
(399,242,o),
(399,251,cs),
(399,259,o),
(398,263,o),
(389,271,cs),
(330,324,o),
(286,363,o),
(234,409,cs)
);
}
);
width = 626;
}
);
note = guillemotright;
unicode = 187;
}
{
glyphname = questiondown;
layers = (
{
background = {
shapes = (
{
closed = 1;
nodes = (
(187,-192,o),
(239,-189,o),
(297,-157,cs),
(361,-122,o),
(430,-55,o),
(430,-9,cs),
(430,11,o),
(406,9,o),
(397,11,c),
(353,-53,o),
(264,-155,o),
(190,-155,cs),
(163,-155,o),
(149,-142,o),
(149,-123,cs),
(149,-10,o),
(412,131,o),
(412,205,cs),
(412,227,o),
(389,245,o),
(371,251,cs),
(362,254,o),
(355,251,o),
(355,247,cs),
(355,245,o),
(356,244,o),
(358,242,cs),
(361,240,o),
(362,237,o),
(362,234,cs),
(361,230,ls),
(358,214,o),
(330,197,o),
(309,183,cs),
(217,121,o),
(50,60,o),
(35,-78,cs),
(29,-136,o),
(67,-184,o),
(143,-189,cs)
);
},
{
closed = 1;
nodes = (
(415,300,o),
(457,344,o),
(457,389,cs),
(457,415,o),
(441,432,o),
(417,432,cs),
(379,432,o),
(336,389,o),
(336,344,cs),
(336,318,o),
(351,300,o),
(376,300,cs)
);
}
);
};
layerId = "C623C401-2266-4A98-B253-3D45160C29C7";
shapes = (
{
angle = 180;
pos = (588,426);
ref = question;
}
);
width = 532;
}
);
note = questiondown;
unicode = 191;
}
{
color = 3;
glyphname = AE;
kernLeft = _E_ss02;
kernRight = _E_ss02;
layers = (
{
anchors = (
{
name = top;
pos = (618,600);
}
);
background = {
anchors = (
{
name = bottom;
pos = (475,18);
},
{
name = ogonek;
pos = (629,39);
},
{
name = top;
pos = (618,600);
},
{
name = topleft;
pos = (280,600);
}
);
shapes = (
{
closed = 1;
nodes = (
(451,-17,o),
(454,-14,o),
(454,-11,cs),
(454,-9,o),
(453,-7,o),
(451,-5,cs),
(446,1,o),
(443,13,o),
(443,29,cs),
(443,77,o),
(464,160,o),
(483,226,c),
(502,225,o),
(513,223,o),
(516,220,cs),
(526,212,o),
(527,230,o),
(527,239,cs),
(527,244,o),
(524,248,o),
(518,251,cs),
(512,254,o),
(504,258,o),
(494,261,c),
(529,377,o),
(597,551,o),
(633,587,cs),
(636,590,o),
(637,592,o),
(637,594,cs),
(637,602,o),
(619,606,o),
(597,606,cs),
(541,606,o),
(511,590,o),
(488,556,c),
(382,443,ls),
(344,402,o),
(273,329,o),
(231,285,c),
(204,285,o),
(180,285,o),
(161,284,cs),
(141,283,o),
(128,281,o),
(121,280,cs),
(80,271,o),
(64,263,o),
(49,238,cs),
(45,231,o),
(42,224,o),
(42,219,cs),
(42,218,o),
(42,217,o),
(43,216,c),
(43,211,o),
(46,208,o),
(49,208,cs),
(50,208,ls),
(62,208,o),
(88,214,o),
(123,217,c),
(138,220,o),
(154,221,o),
(170,222,c),
(100,150,o),
(-2,49,o),
(-33,32,cs),
(-37,30,o),
(-39,27,o),
(-39,24,cs),
(-39,10,o),
(12,-5,o),
(54,-5,cs),
(109,-5,o),
(136,28,o),
(176,80,cs),
(182,88,o),
(194,106,o),
(213,133,cs),
(278,229,l),
(298,230,o),
(318,231,o),
(339,231,cs),
(350,231,o),
(360,230,o),
(371,230,c),
(360,183,o),
(352,134,o),
(352,93,cs),
(352,42,o),
(364,3,o),
(400,-6,cs),
(407,-8,o),
(414,-9,o),
(423,-10,cs),
(432,-11,o),
(439,-12,o),
(444,-14,cs)
);
},
{
closed = 1;
nodes = (
(372,279,o),
(360,280,o),
(349,281,cs),
(314,283,l),
(361,351,o),
(410,423,o),
(450,479,c),
(433,436,o),
(406,359,o),
(383,278,c)
);
},
{
closed = 1;
nodes = (
(394,-1,o),
(401,0,o),
(408,1,cs),
(431,5,o),
(503,17,o),
(547,21,cs),
(562,22,o),
(587,24,o),
(609,24,cs),
(635,24,o),
(657,21,o),
(661,13,cs),
(664,8,o),
(667,9,o),
(667,16,cs),
(667,19,o),
(668,24,o),
(669,30,cs),
(672,46,ls),
(678,79,o),
(629,91,o),
(581,95,cs),
(569,96,o),
(556,96,o),
(542,96,cs),
(498,96,o),
(447,92,o),
(414,88,c),
(425,121,o),
(445,166,o),
(469,217,c),
(487,218,ls),
(510,219,o),
(551,221,o),
(588,221,cs),
(627,221,o),
(663,219,o),
(670,212,cs),
(677,205,o),
(679,223,o),
(679,232,cs),
(679,266,o),
(557,273,o),
(496,275,c),
(499,282,ls),
(525,343,o),
(558,401,o),
(587,450,cs),
(606,483,l),
(623,511,l),
(639,512,o),
(655,513,o),
(669,513,cs),
(681,513,o),
(693,512,o),
(704,512,cs),
(727,510,o),
(741,505,o),
(746,498,cs),
(749,494,o),
(754,495,o),
(753,502,cs),
(752,506,o),
(753,511,o),
(754,516,cs),
(755,521,o),
(755,526,o),
(755,530,cs),
(755,579,o),
(681,592,o),
(619,592,cs),
(605,592,o),
(591,591,o),
(579,590,cs),
(523,583,o),
(408,572,o),
(408,501,cs),
(408,497,ls),
(408,490,o),
(411,487,o),
(414,487,cs),
(415,487,ls),
(426,487,o),
(449,493,o),
(480,497,c),
(459,459,o),
(411,354,o),
(374,268,c),
(373,268,ls),
(334,268,o),
(318,252,o),
(305,228,cs),
(301,221,o),
(299,216,o),
(299,211,cs),
(299,210,o),
(299,208,o),
(300,208,c),
(300,202,o),
(302,200,o),
(305,200,cs),
(306,200,ls),
(314,200,o),
(327,204,o),
(348,206,c),
(333,167,o),
(320,130,o),
(313,103,cs),
(310,94,o),
(309,85,o),
(309,77,cs),
(309,33,o),
(343,-1,o),
(388,-1,cs)
);
}
);
};
layerId = "C623C401-2266-4A98-B253-3D45160C29C7";
shapes = (
{
closed = 1;
nodes = (
(607,529,l),
(632,533,o),
(664,535,o),
(702,535,cs),
(732,535,o),
(757,531,o),
(770,522,cs),
(777,517,o),
(778,515,o),
(781,515,cs),
(785,515,o),
(788,526,o),
(788,540,cs),
(788,593,o),
(754,619,o),
(637,621,cs),
(534,623,o),
(520,611,o),
(499,564,c),
(325,385,o),
(81,127,o),
(21,74,cs),
(-5,52,o),
(-21,40,o),
(-34,32,cs),
(-39,29,o),
(-40,27,o),
(-40,24,cs),
(-40,10,o),
(11,-5,o),
(53,-5,cs),
(107,-5,o),
(136,30,o),
(175,80,cs),
(208,121,o),
(266,211,o),
(319,285,cs),
(390,385,o),
(443,452,o),
(488,505,c),
(489,505,l),
(478,480,o),
(429,372,o),
(381,263,cs),
(345,182,o),
(315,104,o),
(315,71,cs),
(315,34,o),
(345,-5,o),
(394,-5,cs),
(416,-5,o),
(460,6,o),
(510,12,cs),
(550,17,o),
(589,23,o),
(623,22,cs),
(642,22,o),
(658,20,o),
(667,15,cs),
(674,11,o),
(674,8,o),
(677,8,cs),
(682,8,o),
(685,28,o),
(685,49,cs),
(685,61,o),
(679,72,o),
(669,79,cs),
(649,93,o),
(609,99,o),
(551,99,cs),
(493,99,o),
(435,92,o),
(377,82,c),
(407,48,l),
(418,83,o),
(451,167,o),
(491,259,cs),
(541,373,o),
(601,499,o),
(642,560,c)
);
},
{
closed = 1;
nodes = (
(89,212,o),
(176,223,o),
(264,229,cs),
(363,234,o),
(465,234,o),
(490,234,cs),
(565,234,o),
(649,230,o),
(686,220,cs),
(692,218,o),
(694,215,o),
(696,215,cs),
(697,215,o),
(698,216,o),
(699,218,cs),
(701,223,o),
(702,231,o),
(702,239,cs),
(702,253,o),
(684,266,o),
(637,274,cs),
(586,283,o),
(480,289,o),
(374,289,cs),
(283,289,o),
(203,286,o),
(146,283,cs),
(100,280,o),
(64,264,o),
(49,241,cs),
(45,234,o),
(42,227,o),
(42,220,cs),
(42,214,o),
(45,209,o),
(58,210,cs)
);
}
);
width = 703;
}
);
metricLeft = A.ss02;
unicode = 198;
}
{
glyphname = multiply;
layers = (
{
background = {
shapes = (
{
closed = 1;
nodes = (
(123,72,o),
(151,75,o),
(156,80,cs),
(170,94,o),
(220,141,o),
(281,195,c),
(335,84,ls),
(337,79,o),
(360,77,o),
(386,77,cs),
(425,77,o),
(470,82,o),
(464,91,cs),
(441,124,o),
(400,201,o),
(365,271,c),
(432,332,o),
(499,390,o),
(530,415,cs),
(536,420,o),
(528,422,o),
(513,422,cs),
(485,422,o),
(434,414,o),
(426,407,cs),
(336,327,l),
(318,367,o),
(303,399,o),
(298,412,cs),
(296,419,o),
(254,424,o),
(219,424,cs),
(191,424,o),
(166,421,o),
(170,414,cs),
(180,396,o),
(216,325,o),
(252,253,c),
(167,177,o),
(78,100,o),
(58,82,cs),
(50,75,o),
(73,72,o),
(98,72,cs)
);
}
);
};
guides = (
{
pos = (424,388);
}
);
layerId = "C623C401-2266-4A98-B253-3D45160C29C7";
shapes = (
{
closed = 1;
nodes = (
(210,107,o),
(223,109,o),
(228,114,cs),
(242,128,o),
(285,177,o),
(310,209,c),
(355,129,ls),
(364,112,o),
(371,108,o),
(394,108,cs),
(413,108,o),
(430,111,o),
(430,118,cs),
(430,125,o),
(413,150,o),
(405,164,cs),
(391,189,o),
(366,231,o),
(355,252,c),
(382,282,o),
(417,317,o),
(464,367,cs),
(469,372,o),
(476,379,o),
(476,382,cs),
(476,386,o),
(469,388,o),
(454,388,cs),
(443,388,o),
(433,388,o),
(421,384,cs),
(412,381,o),
(405,371,o),
(389,354,cs),
(359,322,o),
(350,309,o),
(331,290,c),
(317,318,o),
(303,346,o),
(288,376,cs),
(286,380,o),
(281,384,o),
(270,386,cs),
(265,387,o),
(251,388,o),
(237,388,cs),
(228,388,o),
(215,387,o),
(215,383,cs),
(215,381,o),
(217,378,o),
(220,372,cs),
(234,345,o),
(264,292,o),
(287,247,c),
(248,204,o),
(210,161,o),
(179,129,cs),
(175,124,o),
(171,120,o),
(171,115,cs),
(171,111,o),
(176,107,o),
(195,107,cs)
);
}
);
width = 578;
}
);
note = multiply;
unicode = 215;
}
